<svg id="Layer_1" data-name="Layer 1" xmlns="http://www.w3.org/2000/svg" viewBox="0 0 460 310"><defs><style>.cls-1{fill:#aabdff;}.cls-2{fill:#ccc;}.cls-3,.cls-8{fill:none;}.cls-3,.cls-5{stroke:#999;stroke-width:0.5px;}.cls-3,.cls-5,.cls-8{stroke-miterlimit:10;}.cls-4{fill:#007bff;}.cls-5{fill:#999;}.cls-6{font-size:22.75px;fill:#333;font-family:SegoeUIHistoric, Segoe UI Historic;}.cls-7{fill:#fff;}.cls-8{stroke:#f2f2f2;stroke-linecap:round;stroke-width:1.5px;}</style></defs><title>tutorial-create-3</title><rect class="cls-1" x="129" y="112" width="202" height="39"/><rect class="cls-2" x="133.3" y="82.99" width="18.7" height="18.7" rx="4"/><rect class="cls-3" x="133.3" y="82.99" width="18.7" height="18.7" rx="4"/><rect class="cls-4" x="133.3" y="121.67" width="18.7" height="18.7" rx="4"/><line class="cls-5" x1="129" y1="73" x2="331" y2="73"/><line class="cls-5" x1="129" y1="111.68" x2="331" y2="111.68"/><line class="cls-5" x1="129" y1="150.92" x2="331" y2="150.92"/><text class="cls-6" transform="translate(186.74 100.06)">AKM 204E</text><text class="cls-6" transform="translate(188.4 138.74)">HUK 201E</text><path d="M69.67,199l-1.74,5.3H65.68l5.73-16.85H74l5.75,16.85H77.45L75.64,199Zm5.53-1.7-1.66-4.85c-.37-1.1-.62-2.1-.87-3.07h-.06c-.24,1-.5,2-.84,3l-1.66,4.88Z"/><path d="M82.1,186.59h2.19v17.75H82.1Z"/><path d="M90.64,188.77v3.48H93.8v1.67H90.64v6.51c0,1.51.43,2.36,1.66,2.36a4.31,4.31,0,0,0,1.27-.16l.1,1.67a5.54,5.54,0,0,1-2,.3,3.05,3.05,0,0,1-2.37-.93,4.6,4.6,0,0,1-.86-3.15v-6.6H86.61v-1.67h1.87v-2.91Z"/><path d="M103.75,197.79h0c.3-.42.71-1,1.06-1.37l3.56-4.17h2.64l-4.67,5,5.33,7.12H109l-4.16-5.81-1.13,1.26v4.55h-2.18V186.59h2.18Z"/><path d="M113.72,204.34V192.25h2.19v12.09Z"/><path d="M119.26,202.1a6,6,0,0,0,2.92.86c1.6,0,2.34-.79,2.34-1.8s-.63-1.61-2.24-2.21c-2.19-.79-3.22-2-3.21-3.43,0-2,1.58-3.54,4.18-3.54a5.85,5.85,0,0,1,3,.74l-.55,1.6a4.75,4.75,0,0,0-2.48-.71c-1.29,0-2,.74-2,1.65s.71,1.45,2.3,2.07c2.08.77,3.16,1.82,3.17,3.63,0,2.14-1.67,3.64-4.52,3.64a6.88,6.88,0,0,1-3.4-.84Z"/><path d="M129.47,204.34V192.25h2.19v12.09Z"/><path d="M135.32,195.52c0-1.27,0-2.27-.1-3.27h1.91l.12,1.95h.06a4.17,4.17,0,0,1,3.82-2.22,3.54,3.54,0,0,1,3.4,2.42h.05a4.86,4.86,0,0,1,1.37-1.57,4.12,4.12,0,0,1,2.66-.85c1.61,0,4,1,4,5.24v7.12h-2.15V197.5c0-2.34-.86-3.73-2.62-3.73a2.88,2.88,0,0,0-2.62,2,3.79,3.79,0,0,0-.18,1.11v7.48h-2.14v-7.26c0-1.92-.85-3.31-2.51-3.31a3,3,0,0,0-2.74,2.2,3.4,3.4,0,0,0-.17,1.08v7.29h-2.15Z"/><path d="M166.61,186.59v14.63c0,1.07,0,2.28.1,3.12h-2l-.11-2.09h-.06a4.43,4.43,0,0,1-4.1,2.36c-2.93,0-5.19-2.47-5.19-6.14,0-4,2.49-6.49,5.43-6.49a4,4,0,0,1,3.65,1.83h0v-7.22Zm-2.19,10.58a5,5,0,0,0-.09-.94,3.25,3.25,0,0,0-3.19-2.53c-2.27,0-3.63,2-3.63,4.65,0,2.46,1.22,4.5,3.59,4.5a3.32,3.32,0,0,0,3.21-2.64,3.54,3.54,0,0,0,.11-1Z"/><path d="M177,204.34l-.19-1.53h-.07a4.48,4.48,0,0,1-3.69,1.8,3.45,3.45,0,0,1-3.69-3.47c0-2.92,2.59-4.53,7.26-4.5v-.26a2.48,2.48,0,0,0-2.75-2.78,5.84,5.84,0,0,0-3.15.9l-.5-1.46a7.55,7.55,0,0,1,4-1.06c3.69,0,4.59,2.52,4.59,4.94v4.53a18.28,18.28,0,0,0,.19,2.89Zm-.34-6.17c-2.38,0-5.1.37-5.1,2.71a1.93,1.93,0,0,0,2.05,2.1,3,3,0,0,0,2.95-2,2.45,2.45,0,0,0,.1-.69Z"/><path d="M184.5,197.79h.05c.3-.42.71-1,1.06-1.37l3.56-4.17h2.64l-4.67,5,5.33,7.12h-2.68l-4.16-5.81-1.13,1.26v4.55h-2.18V186.59h2.18Z"/><path d="M196.93,188.83a1.37,1.37,0,1,1-2.73,0,1.35,1.35,0,0,1,1.37-1.37A1.33,1.33,0,0,1,196.93,188.83Zm-2.46,15.51V192.25h2.19v12.09Z"/><path d="M205.62,186.59h2.19v7.55h.05a4.28,4.28,0,0,1,1.58-1.55,4.42,4.42,0,0,1,2.25-.61c1.63,0,4.21,1,4.21,5.16v7.2h-2.18v-7c0-1.95-.74-3.59-2.8-3.59a3.2,3.2,0,0,0-3,2.19,2.87,2.87,0,0,0-.15,1.05v7.31h-2.19Z"/><path d="M226.2,204.34l-.19-1.53h-.07a4.5,4.5,0,0,1-3.7,1.8,3.45,3.45,0,0,1-3.69-3.47c0-2.92,2.59-4.53,7.26-4.5v-.26a2.48,2.48,0,0,0-2.75-2.78,5.86,5.86,0,0,0-3.15.9l-.5-1.46a7.6,7.6,0,0,1,4-1.06c3.7,0,4.6,2.52,4.6,4.94v4.53a19.64,19.64,0,0,0,.18,2.89Zm-.34-6.17c-2.38,0-5.11.37-5.11,2.71a1.94,1.94,0,0,0,2.06,2.1,3,3,0,0,0,2.94-2,2.16,2.16,0,0,0,.11-.69Z"/><path d="M232.19,192.25l2.37,6.78c.41,1.12.72,2.12,1,3.12h.07c.28-1,.62-2,1-3.12l2.37-6.78h2.29l-4.75,12.09h-2.1l-4.6-12.09Z"/><path d="M253.48,201c0,1.27,0,2.35.1,3.31h-1.94l-.12-2h-.06a4.53,4.53,0,0,1-4,2.25c-1.89,0-4.17-1.06-4.17-5.29v-7.07h2.19v6.68c0,2.3.72,3.87,2.7,3.87a3.18,3.18,0,0,0,2.91-2,3.25,3.25,0,0,0,.2-1.13v-7.4h2.19Z"/><path d="M255.77,203.06l5.47-7.11c.54-.67,1-1.25,1.59-1.89V194h-6.57v-1.76h9.23v1.37l-5.4,7c-.52.65-1,1.27-1.56,1.88v.05h7.06v1.76h-9.81Z"/><path d="M278.1,186.59v14.63c0,1.07,0,2.28.1,3.12h-1.95l-.11-2.09h-.06a4.43,4.43,0,0,1-4.1,2.36c-2.93,0-5.19-2.47-5.19-6.14,0-4,2.49-6.49,5.43-6.49a4,4,0,0,1,3.65,1.83h.05v-7.22Zm-2.18,10.58a5,5,0,0,0-.09-.94,3.25,3.25,0,0,0-3.19-2.53c-2.27,0-3.63,2-3.63,4.65,0,2.46,1.22,4.5,3.59,4.5a3.32,3.32,0,0,0,3.21-2.64,3.54,3.54,0,0,0,.11-1Z"/><path d="M288.47,204.34l-.19-1.53h-.07a4.48,4.48,0,0,1-3.69,1.8,3.45,3.45,0,0,1-3.7-3.47c0-2.92,2.6-4.53,7.27-4.5v-.26a2.48,2.48,0,0,0-2.75-2.78,5.84,5.84,0,0,0-3.15.9l-.5-1.46a7.55,7.55,0,0,1,4-1.06c3.69,0,4.59,2.52,4.59,4.94v4.53a18.28,18.28,0,0,0,.19,2.89Zm-.34-6.17c-2.38,0-5.1.37-5.1,2.71a1.93,1.93,0,0,0,2.05,2.1,3,3,0,0,0,2.95-2,2.45,2.45,0,0,0,.1-.69Z"/><path d="M293.82,195.52c0-1.27,0-2.27-.1-3.27h1.94l.13,2h.06a4.44,4.44,0,0,1,4-2.26c1.66,0,4.26,1,4.26,5.15v7.21h-2.18v-7c0-2-.74-3.59-2.8-3.59a3.16,3.16,0,0,0-3,2.25,3.48,3.48,0,0,0-.15,1v7.29h-2.19Z"/><path d="M323.43,186.59v14.63c0,1.07,0,2.28.1,3.12h-2l-.11-2.09h-.06a4.41,4.41,0,0,1-4.1,2.36c-2.92,0-5.18-2.47-5.18-6.14,0-4,2.48-6.49,5.43-6.49a4,4,0,0,1,3.64,1.83h.05v-7.22Zm-2.19,10.58a4.28,4.28,0,0,0-.09-.94A3.25,3.25,0,0,0,318,193.7c-2.28,0-3.64,2-3.64,4.65,0,2.46,1.22,4.5,3.59,4.5a3.34,3.34,0,0,0,3.22-2.64,4,4,0,0,0,.1-1Z"/><path d="M328.33,198.69c0,3,1.92,4.2,4.13,4.2a8.06,8.06,0,0,0,3.35-.62l.39,1.56a9.82,9.82,0,0,1-4,.77c-3.71,0-6-2.47-6-6.1s2.16-6.52,5.69-6.52c4,0,5,3.46,5,5.68a5.2,5.2,0,0,1-.08,1Zm6.43-1.58c0-1.39-.57-3.56-3-3.56-2.25,0-3.2,2-3.38,3.56Z"/><path d="M339.62,196c0-1.42,0-2.64-.1-3.76h1.92l.09,2.37h.08A3.65,3.65,0,0,1,345,192a2.34,2.34,0,0,1,.61.06v2.07a3.24,3.24,0,0,0-.75-.07,3.08,3.08,0,0,0-2.94,2.81,6.58,6.58,0,0,0-.09,1v6.46h-2.18Z"/><path d="M347.49,202.1a6,6,0,0,0,2.91.86c1.6,0,2.35-.79,2.35-1.8s-.64-1.61-2.25-2.21c-2.18-.79-3.22-2-3.21-3.43,0-2,1.58-3.54,4.18-3.54a5.85,5.85,0,0,1,3,.74l-.55,1.6a4.74,4.74,0,0,0-2.47-.71c-1.3,0-2,.74-2,1.65s.71,1.45,2.3,2.07c2.08.77,3.16,1.82,3.17,3.63,0,2.14-1.66,3.64-4.52,3.64a6.91,6.91,0,0,1-3.4-.84Z"/><path d="M357.7,186.59h2.18v17.75H357.7Z"/><path d="M364.83,198.69c0,3,1.92,4.2,4.13,4.2a8.06,8.06,0,0,0,3.35-.62l.39,1.56a9.82,9.82,0,0,1-4,.77c-3.71,0-6-2.47-6-6.1s2.16-6.52,5.69-6.52c4,0,5,3.46,5,5.68a5.2,5.2,0,0,1-.08,1Zm6.43-1.58c0-1.39-.57-3.56-3-3.56-2.25,0-3.2,2-3.38,3.56Z"/><path d="M376.12,196c0-1.42,0-2.64-.1-3.76h1.92l.09,2.37h.07a3.67,3.67,0,0,1,3.37-2.64,2.34,2.34,0,0,1,.61.06v2.07a3.24,3.24,0,0,0-.75-.07,3.08,3.08,0,0,0-2.94,2.81,5.56,5.56,0,0,0-.09,1v6.46h-2.18Z"/><path d="M385.28,198.69c0,3,1.92,4.2,4.13,4.2a8.09,8.09,0,0,0,3.35-.62l.38,1.56a9.72,9.72,0,0,1-4,.77c-3.71,0-5.95-2.47-5.95-6.1s2.16-6.52,5.69-6.52c3.95,0,5,3.46,5,5.68a5.2,5.2,0,0,1-.08,1Zm6.43-1.58c0-1.39-.57-3.56-3-3.56-2.25,0-3.2,2-3.38,3.56Z"/><path d="M18.73,218.77v3.48h3.15v1.67H18.73v6.51c0,1.51.43,2.36,1.66,2.36a4.31,4.31,0,0,0,1.27-.16l.1,1.67a5.54,5.54,0,0,1-2,.3,3.05,3.05,0,0,1-2.37-.93,4.6,4.6,0,0,1-.86-3.15v-6.6H14.7v-1.67h1.87v-2.91Z"/><path d="M24.36,234.34V222.25h2.19v12.09Z"/><path d="M32.39,227.79h0c.3-.42.71-1,1.06-1.37l3.56-4.17H39.7l-4.67,5,5.33,7.12H37.68l-4.16-5.81-1.13,1.26v4.55H30.21V216.59h2.18Z"/><path d="M42.36,216.59h2.19v17.75H42.36Z"/><path d="M55,234.34l-.19-1.53H54.7a4.48,4.48,0,0,1-3.69,1.8,3.45,3.45,0,0,1-3.7-3.47c0-2.92,2.6-4.53,7.27-4.5v-.26a2.48,2.48,0,0,0-2.75-2.78,5.84,5.84,0,0,0-3.15.9l-.5-1.46a7.55,7.55,0,0,1,4-1.06c3.69,0,4.59,2.52,4.59,4.94v4.53a18.28,18.28,0,0,0,.19,2.89Zm-.34-6.17c-2.38,0-5.1.37-5.1,2.71a1.93,1.93,0,0,0,2,2.1,3,3,0,0,0,3-2,2.45,2.45,0,0,0,.1-.69Z"/><path d="M60.91,222.25l2.64,7.15c.28.79.58,1.74.78,2.46h.06c.21-.71.48-1.64.77-2.51l2.39-7.1h2.33l-3.31,8.61c-1.56,4.16-2.64,6.27-4.14,7.58a5.94,5.94,0,0,1-2.69,1.41L59.19,238a5.77,5.77,0,0,0,1.93-1.08A7,7,0,0,0,63,234.49a1.32,1.32,0,0,0,.17-.53,1.46,1.46,0,0,0-.16-.56l-4.45-11.15Z"/><path d="M78.49,234.34l-.19-1.53h-.07a4.5,4.5,0,0,1-3.7,1.8,3.45,3.45,0,0,1-3.69-3.47c0-2.92,2.59-4.53,7.26-4.5v-.26a2.48,2.48,0,0,0-2.75-2.78,5.86,5.86,0,0,0-3.15.9L71.7,223a7.6,7.6,0,0,1,4-1.06c3.7,0,4.6,2.52,4.6,4.94v4.53a19.64,19.64,0,0,0,.18,2.89Zm-.34-6.17c-2.38,0-5.11.37-5.11,2.71A1.94,1.94,0,0,0,75.1,233,3,3,0,0,0,78,231a2.16,2.16,0,0,0,.11-.69Z"/><path d="M83.83,226c0-1.42,0-2.64-.1-3.76h1.93l.08,2.37h.08A3.67,3.67,0,0,1,89.19,222a2.34,2.34,0,0,1,.61.06v2.07a3.36,3.36,0,0,0-.75-.07,3.07,3.07,0,0,0-2.94,2.81,5.56,5.56,0,0,0-.09,1v6.46H83.83Z"/><path d="M98.59,234.34l-.19-1.53h-.07a4.5,4.5,0,0,1-3.7,1.8,3.45,3.45,0,0,1-3.69-3.47c0-2.92,2.59-4.53,7.26-4.5v-.26a2.48,2.48,0,0,0-2.75-2.78,5.86,5.86,0,0,0-3.15.9L91.8,223a7.57,7.57,0,0,1,4-1.06c3.7,0,4.6,2.52,4.6,4.94v4.53a19.64,19.64,0,0,0,.18,2.89Zm-.34-6.17c-2.38,0-5.11.37-5.11,2.71A1.94,1.94,0,0,0,95.2,233a3,3,0,0,0,2.94-2,2.16,2.16,0,0,0,.11-.69Z"/><path d="M106.12,227.79h0c.29-.42.71-1,1-1.37l3.57-4.17h2.64l-4.67,5,5.32,7.12H111.4l-4.16-5.81-1.12,1.26v4.55h-2.19V216.59h2.19Z"/><path d="M121,216.59h2.19v7.55h0a4.28,4.28,0,0,1,1.58-1.55A4.42,4.42,0,0,1,127,222c1.63,0,4.21,1,4.21,5.16v7.2h-2.18v-7c0-1.95-.74-3.59-2.8-3.59a3.2,3.2,0,0,0-3,2.19,2.87,2.87,0,0,0-.15,1.05v7.31H121Z"/><path d="M141.54,234.34l-.2-1.53h-.06a4.5,4.5,0,0,1-3.7,1.8,3.45,3.45,0,0,1-3.69-3.47c0-2.92,2.59-4.53,7.26-4.5v-.26a2.48,2.48,0,0,0-2.75-2.78,5.86,5.86,0,0,0-3.15.9l-.5-1.46a7.57,7.57,0,0,1,4-1.06c3.7,0,4.6,2.52,4.6,4.94v4.53a18.35,18.35,0,0,0,.18,2.89Zm-.34-6.17c-2.38,0-5.11.37-5.11,2.71a1.94,1.94,0,0,0,2.06,2.1,3,3,0,0,0,2.94-2,2.16,2.16,0,0,0,.11-.69Z"/><path d="M147.1,234.34V223.92h-1.69v-1.67h1.69v-.58a5.77,5.77,0,0,1,1.41-4.24,4.23,4.23,0,0,1,2.93-1.11,4.72,4.72,0,0,1,1.88.35l-.29,1.69a3.26,3.26,0,0,0-1.41-.28c-1.86,0-2.34,1.65-2.34,3.52v.65h2.92v1.67h-2.91v10.42Z"/><path d="M157.1,218.77v3.48h3.16v1.67H157.1v6.51c0,1.51.43,2.36,1.66,2.36a4.39,4.39,0,0,0,1.28-.16l.1,1.67a5.6,5.6,0,0,1-2,.3,3.05,3.05,0,0,1-2.37-.93,4.6,4.6,0,0,1-.85-3.15v-6.6h-1.88v-1.67H155v-2.91Z"/><path d="M169.44,234.34l-.2-1.53h-.06a4.52,4.52,0,0,1-3.7,1.8,3.45,3.45,0,0,1-3.69-3.47c0-2.92,2.59-4.53,7.26-4.5v-.26a2.48,2.48,0,0,0-2.75-2.78,5.84,5.84,0,0,0-3.15.9l-.5-1.46a7.57,7.57,0,0,1,4-1.06c3.7,0,4.6,2.52,4.6,4.94v4.53a18.35,18.35,0,0,0,.18,2.89Zm-.34-6.17c-2.38,0-5.11.37-5.11,2.71a1.94,1.94,0,0,0,2.06,2.1,3,3,0,0,0,2.94-2,2.16,2.16,0,0,0,.11-.69Z"/><path d="M174.79,216.59H177v17.75h-2.18Z"/><path d="M180.69,234.34V222.25h2.18v12.09Z"/><path d="M188.72,227.79h.05c.29-.42.71-1,1-1.37l3.56-4.17H196l-4.66,5,5.32,7.12H194l-4.16-5.81-1.12,1.26v4.55h-2.19V216.59h2.19Z"/><path d="M212.18,233.9a8.39,8.39,0,0,1-3.47.7c-3.64,0-6-2.48-6-6.18a6.15,6.15,0,0,1,6.49-6.44,7.18,7.18,0,0,1,3.06.64l-.49,1.69a5.43,5.43,0,0,0-2.57-.58c-2.76,0-4.27,2.07-4.26,4.58,0,2.8,1.8,4.52,4.21,4.52a6.37,6.37,0,0,0,2.69-.58Zm-3,.38-.81,1.31a1.85,1.85,0,0,1,1.74,1.73c0,1.47-1.21,2-2.61,2a3.43,3.43,0,0,1-1.7-.44l.38-1.06a2.76,2.76,0,0,0,1.35.36c.55,0,1.08-.2,1.07-.79s-.77-.94-1.95-1l1.18-2.09Z"/><path d="M217.22,218.83a1.33,1.33,0,0,1-1.4,1.37,1.31,1.31,0,0,1-1.33-1.37,1.34,1.34,0,0,1,1.37-1.37A1.33,1.33,0,0,1,217.22,218.83Zm-2.46,15.51V222.25H217v12.09Z"/><path d="M219.23,233.06,224.7,226c.54-.67,1-1.25,1.59-1.89V224h-6.57v-1.76H229v1.37l-5.4,7c-.52.65-1,1.27-1.56,1.88v.05H229v1.76h-9.81Z"/><path d="M232.37,228.69c0,3,1.92,4.2,4.13,4.2a8.09,8.09,0,0,0,3.35-.62l.38,1.56a9.72,9.72,0,0,1-4,.77c-3.71,0-5.95-2.47-5.95-6.1s2.16-6.52,5.69-6.52c3.95,0,5,3.46,5,5.68a5.2,5.2,0,0,1-.08,1Zm6.43-1.58c0-1.39-.57-3.56-3-3.56-2.25,0-3.2,2-3.38,3.56Z"/><path d="M243.66,216.59h2.19v17.75h-2.19Z"/><path d="M260,222.25c-.06.85-.1,1.84-.1,3.31v7c0,2.8-.57,4.47-1.73,5.53a6.48,6.48,0,0,1-4.4,1.45,7.88,7.88,0,0,1-4-1l.55-1.69a6.86,6.86,0,0,0,3.56,1c2.25,0,3.9-1.17,3.9-4.23v-1.35h-.05a4.29,4.29,0,0,1-3.85,2c-3,0-5.15-2.57-5.15-5.92,0-4.09,2.67-6.4,5.46-6.4a4,4,0,0,1,3.77,2.08h0l.09-1.81ZM257.7,227a3.42,3.42,0,0,0-.12-1,3.17,3.17,0,0,0-3.09-2.34c-2.09,0-3.6,1.78-3.6,4.59,0,2.36,1.23,4.35,3.58,4.35a3.21,3.21,0,0,0,3.06-2.27,3.76,3.76,0,0,0,.17-1.17Z"/><path d="M264.76,228.69c.05,3,1.93,4.2,4.14,4.2a8.09,8.09,0,0,0,3.35-.62l.38,1.56a9.72,9.72,0,0,1-4,.77c-3.71,0-6-2.47-6-6.1s2.16-6.52,5.69-6.52c4,0,5,3.46,5,5.68a5.2,5.2,0,0,1-.08,1Zm6.44-1.58c0-1.39-.57-3.56-3-3.56-2.25,0-3.2,2-3.38,3.56Z"/><path d="M276.85,222.25l2.64,7.15c.29.79.58,1.74.78,2.46h.06c.22-.71.49-1.64.77-2.51l2.4-7.1h2.33l-3.31,8.61c-1.56,4.16-2.64,6.27-4.14,7.58a6,6,0,0,1-2.69,1.41l-.55-1.83a5.87,5.87,0,0,0,1.93-1.08,7,7,0,0,0,1.83-2.45,1.32,1.32,0,0,0,.17-.53,1.39,1.39,0,0,0-.15-.56l-4.46-11.15Z"/><path d="M288.81,228.69c.05,3,1.93,4.2,4.14,4.2a8.09,8.09,0,0,0,3.35-.62l.38,1.56a9.72,9.72,0,0,1-4,.77c-3.71,0-5.95-2.47-5.95-6.1s2.16-6.52,5.69-6.52c3.94,0,5,3.46,5,5.68a5.2,5.2,0,0,1-.08,1Zm6.44-1.58c0-1.39-.57-3.56-3-3.56-2.25,0-3.2,2-3.38,3.56Z"/><path d="M306.64,228.69c0,3,1.93,4.2,4.14,4.2a8,8,0,0,0,3.34-.62l.39,1.56a9.76,9.76,0,0,1-4,.77c-3.72,0-6-2.47-6-6.1s2.16-6.52,5.68-6.52c4,0,5,3.46,5,5.68a6.33,6.33,0,0,1-.07,1Zm6.43-1.58c0-1.39-.57-3.56-3-3.56-2.24,0-3.2,2-3.37,3.56Z"/><path d="M320.11,227.79h.05c.3-.42.71-1,1.06-1.37l3.56-4.17h2.64l-4.67,5,5.33,7.12H325.4l-4.16-5.81-1.13,1.26v4.55h-2.18V216.59h2.18Z"/><path d="M330.08,216.59h2.19v17.75h-2.19Z"/><path d="M337.21,228.69c.05,3,1.93,4.2,4.14,4.2a8.13,8.13,0,0,0,3.35-.62l.38,1.56a9.76,9.76,0,0,1-4,.77c-3.72,0-5.95-2.47-5.95-6.1s2.16-6.52,5.69-6.52c3.94,0,5,3.46,5,5.68a5.36,5.36,0,0,1-.07,1Zm6.44-1.58c0-1.39-.57-3.56-3-3.56-2.24,0-3.19,2-3.37,3.56Z"/><path d="M349.3,222.25l2.64,7.15c.29.79.58,1.74.78,2.46h.06c.22-.71.49-1.64.77-2.51l2.4-7.1h2.33L355,230.86c-1.57,4.16-2.64,6.27-4.14,7.58a6,6,0,0,1-2.7,1.41l-.54-1.83a5.74,5.74,0,0,0,1.92-1.08,6.86,6.86,0,0,0,1.84-2.45,1.32,1.32,0,0,0,.17-.53,1.39,1.39,0,0,0-.15-.56l-4.46-11.15Z"/><path d="M361.26,228.69c.05,3,1.93,4.2,4.14,4.2a8.13,8.13,0,0,0,3.35-.62l.38,1.56a9.76,9.76,0,0,1-4,.77c-3.72,0-6-2.47-6-6.1s2.16-6.52,5.69-6.52c3.94,0,5,3.46,5,5.68a5.36,5.36,0,0,1-.07,1Zm6.44-1.58c0-1.39-.57-3.56-3-3.56-2.24,0-3.2,2-3.37,3.56Z"/><path d="M372.45,234.34c.06-.83.1-2.05.1-3.12V216.59h2.19v7.6h.05a4.46,4.46,0,0,1,4.12-2.21c3,0,5.11,2.49,5.1,6.15,0,4.34-2.74,6.48-5.44,6.48a4.35,4.35,0,0,1-4.05-2.26h-.06l-.11,2Zm2.29-4.85a3.5,3.5,0,0,0,.09.8,3.38,3.38,0,0,0,3.3,2.57c2.31,0,3.67-1.87,3.67-4.64,0-2.43-1.26-4.51-3.61-4.51a3.68,3.68,0,0,0-3.45,3.61Z"/><path d="M389.24,218.83a1.33,1.33,0,0,1-1.4,1.37,1.31,1.31,0,0,1-1.33-1.37,1.35,1.35,0,0,1,1.37-1.37A1.33,1.33,0,0,1,389.24,218.83Zm-2.46,15.51V222.25H389v12.09Z"/><path d="M392.63,216.59h2.19v17.75h-2.19Z"/><path d="M401,218.83a1.33,1.33,0,0,1-1.4,1.37,1.31,1.31,0,0,1-1.33-1.37,1.34,1.34,0,0,1,1.37-1.37A1.33,1.33,0,0,1,401,218.83Zm-2.46,15.51V222.25h2.19v12.09Z"/><path d="M404.38,226c0-1.42,0-2.64-.1-3.76h1.92l.09,2.37h.08a3.65,3.65,0,0,1,3.36-2.64,2.34,2.34,0,0,1,.61.06v2.07a3.24,3.24,0,0,0-.75-.07,3.08,3.08,0,0,0-2.94,2.81,6.58,6.58,0,0,0-.09,1v6.46h-2.18Z"/><path d="M412.25,232.1a6,6,0,0,0,2.91.86c1.6,0,2.35-.79,2.35-1.8s-.64-1.61-2.25-2.21c-2.18-.79-3.22-2-3.21-3.43,0-2,1.58-3.54,4.18-3.54a5.85,5.85,0,0,1,3,.74l-.54,1.6a4.81,4.81,0,0,0-2.48-.71c-1.3,0-2,.74-2,1.65s.71,1.45,2.3,2.07c2.08.77,3.17,1.82,3.17,3.63,0,2.14-1.66,3.64-4.52,3.64a6.91,6.91,0,0,1-3.4-.84Z"/><path d="M424.91,218.83a1.33,1.33,0,0,1-1.4,1.37,1.31,1.31,0,0,1-1.32-1.37,1.34,1.34,0,0,1,1.36-1.37A1.32,1.32,0,0,1,424.91,218.83Zm-2.45,15.51V222.25h2.18v12.09Z"/><path d="M428.31,225.52c0-1.27-.05-2.27-.1-3.27h1.94l.12,2h.06a4.45,4.45,0,0,1,4-2.26c1.66,0,4.26,1,4.26,5.15v7.21H436.4v-7c0-2-.74-3.59-2.79-3.59a3.17,3.17,0,0,0-3,2.25,3.48,3.48,0,0,0-.15,1v7.29h-2.18Z"/><path d="M441.66,233.05a1.49,1.49,0,1,1,1.47,1.56A1.46,1.46,0,0,1,441.66,233.05Z"/><path class="cls-7" d="M327.83,143.42v10.29A10.29,10.29,0,0,1,317.54,164h-5a10.26,10.26,0,0,1-7-2.77l-9.13-8.52a.83.83,0,0,1-.25-.58v-.61a3.35,3.35,0,0,1,3.35-3.35,3.4,3.4,0,0,1,1.5.35l5.08,2.54a.79.79,0,0,0,1.15-.71V129.17a3.17,3.17,0,1,1,6.33,0v8.34a3.08,3.08,0,0,1,1.59-.43,3.17,3.17,0,0,1,2.71,1.54,3.12,3.12,0,0,1,2-.75,3.16,3.16,0,0,1,3.14,2.82,3.16,3.16,0,0,1,4.77,2.73Z"/><path d="M324.67,140.25a3.16,3.16,0,0,0-1.61.44,3.16,3.16,0,0,0-3.14-2.82,3.12,3.12,0,0,0-2,.75,3.17,3.17,0,0,0-2.71-1.54,3.08,3.08,0,0,0-1.59.43v-8.34a3.17,3.17,0,1,0-6.33,0v21.18a.79.79,0,0,1-1.15.71L301,148.52a3.4,3.4,0,0,0-1.5-.35,3.35,3.35,0,0,0-3.35,3.35v.61a.83.83,0,0,0,.25.58l9.13,8.52a10.26,10.26,0,0,0,7,2.77h5a10.29,10.29,0,0,0,10.29-10.29V143.42A3.16,3.16,0,0,0,324.67,140.25Zm1.58,13.46a8.72,8.72,0,0,1-8.71,8.71h-5a8.61,8.61,0,0,1-5.94-2.35l-8.89-8.29v-.26a1.77,1.77,0,0,1,1.77-1.77,1.84,1.84,0,0,1,.79.19l5.09,2.54a2.37,2.37,0,0,0,3.43-2.13V129.17a1.59,1.59,0,1,1,3.17,0V141a.79.79,0,0,0,1.58,0v-.79a1.59,1.59,0,0,1,3.17,0V141h0a.79.79,0,0,0,1.58,0h0a1.59,1.59,0,0,1,3.17,0v2.38a.79.79,0,0,0,1.58,0,1.59,1.59,0,1,1,3.17,0Z"/><path class="cls-8" d="M138,131l3.62,3,5.38-6"/></svg>