<svg id="Layer_1" data-name="Layer 1" xmlns="http://www.w3.org/2000/svg" viewBox="0 0 460 310"><title>tutorial-class-1</title><path d="M43.47,138.28a20.42,20.42,0,0,1,4-.36c2.18,0,3.58.37,4.62,1.22a3.58,3.58,0,0,1,1.41,3,4,4,0,0,1-2.85,3.69v.07a4.31,4.31,0,0,1,3.48,4.22,4.42,4.42,0,0,1-1.44,3.36c-1.16,1.09-3.06,1.58-5.82,1.58a27.77,27.77,0,0,1-3.38-.19Zm2.18,6.9h2c2.28,0,3.63-1.21,3.63-2.85,0-2-1.48-2.74-3.69-2.74a8.75,8.75,0,0,0-1.93.16Zm0,8.06a9.93,9.93,0,0,0,1.83.11c2.26,0,4.33-.83,4.33-3.28,0-2.29-2-3.25-4.35-3.25H45.65Z"/><path d="M67.09,151.59c0,1.26,0,2.35.1,3.3H65.25l-.12-2h-.06a4.52,4.52,0,0,1-4,2.25c-1.89,0-4.16-1.06-4.16-5.3v-7.06h2.18v6.67c0,2.31.72,3.87,2.7,3.87a3.19,3.19,0,0,0,2.91-2,3.25,3.25,0,0,0,.2-1.13v-7.4h2.19Z"/><path d="M75.75,152.66a6,6,0,0,0,2.91.86c1.61,0,2.35-.79,2.35-1.8s-.64-1.61-2.25-2.22c-2.18-.79-3.22-2-3.21-3.42,0-2,1.58-3.55,4.18-3.55a5.85,5.85,0,0,1,3,.74l-.54,1.6a4.78,4.78,0,0,0-2.48-.71c-1.3,0-2,.75-2,1.66s.72,1.45,2.3,2.06c2.08.78,3.17,1.83,3.17,3.63,0,2.15-1.66,3.65-4.52,3.65a6.91,6.91,0,0,1-3.4-.85Z"/><path d="M92.66,154.89l-.19-1.52H92.4a4.5,4.5,0,0,1-3.7,1.8A3.45,3.45,0,0,1,85,151.7c0-2.93,2.59-4.54,7.26-4.5v-.26a2.49,2.49,0,0,0-2.75-2.79,6,6,0,0,0-3.15.9l-.5-1.46a7.69,7.69,0,0,1,4-1.06c3.7,0,4.6,2.53,4.6,4.95V152a19.64,19.64,0,0,0,.18,2.89Zm-.34-6.17c-2.38-.05-5.1.38-5.1,2.72a1.93,1.93,0,0,0,2,2.1,3,3,0,0,0,2.94-2,2.26,2.26,0,0,0,.11-.7Z"/><path d="M98.6,142.81l2.64,7.14c.29.8.58,1.75.78,2.47h.06c.22-.71.48-1.64.77-2.52l2.4-7.09h2.33l-3.31,8.61c-1.57,4.15-2.64,6.27-4.14,7.58a6.12,6.12,0,0,1-2.7,1.41l-.54-1.84a5.78,5.78,0,0,0,1.92-1.07,6.86,6.86,0,0,0,1.84-2.45,1,1,0,0,0,0-1.09l-4.46-11.15Z"/><path d="M109.8,154.89V144.47h-1.69v-1.66h1.69v-.59a5.8,5.8,0,0,1,1.4-4.23,4.21,4.21,0,0,1,2.94-1.12,4.7,4.7,0,0,1,1.88.36l-.29,1.69a3.33,3.33,0,0,0-1.41-.28c-1.86,0-2.35,1.65-2.35,3.51v.66h2.92v1.66H112v10.42Z"/><path d="M123.58,154.89l-.19-1.52h-.07a4.48,4.48,0,0,1-3.69,1.8,3.45,3.45,0,0,1-3.7-3.47c0-2.93,2.6-4.54,7.27-4.5v-.26a2.49,2.49,0,0,0-2.75-2.79,5.93,5.93,0,0,0-3.15.9l-.5-1.46a7.64,7.64,0,0,1,4-1.06c3.69,0,4.59,2.53,4.59,4.95V152a18.28,18.28,0,0,0,.19,2.89Zm-.34-6.17c-2.38-.05-5.1.38-5.1,2.72a1.93,1.93,0,0,0,2,2.1,3,3,0,0,0,3-2,2.57,2.57,0,0,0,.1-.7Z"/><path d="M139.36,137.15v14.63c0,1.07,0,2.28.1,3.11h-2l-.11-2.09h-.06a4.43,4.43,0,0,1-4.1,2.37c-2.93,0-5.19-2.48-5.19-6.14,0-4,2.49-6.5,5.43-6.5a4,4,0,0,1,3.65,1.84h.05v-7.22Zm-2.18,10.57a4.88,4.88,0,0,0-.09-.93,3.25,3.25,0,0,0-3.19-2.53c-2.27,0-3.63,2-3.63,4.65,0,2.45,1.22,4.49,3.59,4.49a3.31,3.31,0,0,0,3.21-2.64,3.51,3.51,0,0,0,.11-.94Z"/><path d="M149.73,154.89l-.19-1.52h-.07a4.48,4.48,0,0,1-3.69,1.8,3.45,3.45,0,0,1-3.7-3.47c0-2.93,2.6-4.54,7.27-4.5v-.26a2.49,2.49,0,0,0-2.75-2.79,5.93,5.93,0,0,0-3.15.9l-.5-1.46a7.64,7.64,0,0,1,4-1.06c3.69,0,4.59,2.53,4.59,4.95V152a18.28,18.28,0,0,0,.19,2.89Zm-.34-6.17c-2.38-.05-5.1.38-5.1,2.72a1.93,1.93,0,0,0,2.05,2.1,3,3,0,0,0,2.95-2,2.57,2.57,0,0,0,.1-.7Z"/><path d="M170.81,137.15v14.63c0,1.07,0,2.28.1,3.11H169l-.11-2.09h-.06a4.43,4.43,0,0,1-4.1,2.37c-2.93,0-5.19-2.48-5.19-6.14,0-4,2.49-6.5,5.43-6.5a4,4,0,0,1,3.65,1.84h0v-7.22Zm-2.18,10.57a4.88,4.88,0,0,0-.09-.93,3.26,3.26,0,0,0-3.19-2.53c-2.27,0-3.63,2-3.63,4.65,0,2.45,1.22,4.49,3.59,4.49a3.31,3.31,0,0,0,3.21-2.64,3.51,3.51,0,0,0,.11-.94Z"/><path d="M175.71,149.25a3.85,3.85,0,0,0,4.14,4.19,8.13,8.13,0,0,0,3.35-.62l.38,1.57a9.76,9.76,0,0,1-4,.77c-3.72,0-6-2.48-6-6.1s2.16-6.53,5.69-6.53c3.94,0,5,3.46,5,5.69a5.36,5.36,0,0,1-.07,1Zm6.44-1.58c0-1.39-.57-3.56-3-3.56-2.24,0-3.2,2-3.37,3.56Z"/><path d="M187,146.57c0-1.43,0-2.64-.1-3.76h1.93l.08,2.37H189a3.67,3.67,0,0,1,3.37-2.65,2.93,2.93,0,0,1,.61.06v2.07a3.4,3.4,0,0,0-.75-.06,3.06,3.06,0,0,0-2.94,2.81,5.56,5.56,0,0,0-.09,1v6.45H187Z"/><path d="M194.87,152.66a6,6,0,0,0,2.91.86c1.61,0,2.35-.79,2.35-1.8s-.64-1.61-2.24-2.22c-2.19-.79-3.22-2-3.22-3.42,0-2,1.59-3.55,4.19-3.55a5.88,5.88,0,0,1,3,.74l-.55,1.6a4.78,4.78,0,0,0-2.48-.71c-1.3,0-2,.75-2,1.66s.71,1.45,2.29,2.06c2.09.78,3.17,1.83,3.17,3.63,0,2.15-1.66,3.65-4.52,3.65a6.87,6.87,0,0,1-3.39-.85Z"/><path d="M210.38,146.74c0-1.54,0-2.79-.1-3.93h2l.12,2.06h0a4.72,4.72,0,0,1,4.29-2.34c2.93,0,5.13,2.47,5.13,6.14,0,4.35-2.66,6.5-5.49,6.5a4.21,4.21,0,0,1-3.73-1.91h-.05v6.58h-2.18Zm2.18,3.23a3.76,3.76,0,0,0,.1.9,3.38,3.38,0,0,0,3.28,2.58c2.33,0,3.68-1.92,3.68-4.69,0-2.41-1.26-4.48-3.59-4.48A3.5,3.5,0,0,0,212.7,147a3.84,3.84,0,0,0-.14.89Z"/><path d="M224.6,146.57c0-1.43,0-2.64-.1-3.76h1.93l.08,2.37h.08a3.67,3.67,0,0,1,3.37-2.65,2.93,2.93,0,0,1,.61.06v2.07a3.4,3.4,0,0,0-.75-.06,3.06,3.06,0,0,0-2.94,2.81,5.56,5.56,0,0,0-.09,1v6.45H224.6Z"/><path d="M243.47,148.73c0,4.48-3.1,6.44-6,6.44-3.28,0-5.81-2.39-5.81-6.23,0-4,2.66-6.41,6-6.41S243.47,145.05,243.47,148.73Zm-9.58.14c0,2.66,1.52,4.65,3.66,4.65s3.68-2,3.68-4.71c0-2.05-1-4.63-3.64-4.63S233.89,146.58,233.89,148.87Z"/><path d="M256.71,142.81c-.06.85-.1,1.83-.1,3.3v7c0,2.8-.57,4.48-1.73,5.54a6.48,6.48,0,0,1-4.4,1.45,7.78,7.78,0,0,1-4-1l.56-1.69a6.69,6.69,0,0,0,3.55,1c2.25,0,3.9-1.18,3.9-4.24v-1.34h0a4.3,4.3,0,0,1-3.85,2c-3,0-5.15-2.56-5.15-5.91,0-4.1,2.67-6.41,5.46-6.41a4,4,0,0,1,3.77,2.09h.05l.09-1.81Zm-2.29,4.75a3.33,3.33,0,0,0-.12-1,3.18,3.18,0,0,0-3.09-2.34c-2.09,0-3.6,1.77-3.6,4.58,0,2.37,1.22,4.36,3.58,4.36a3.22,3.22,0,0,0,3.06-2.27,3.85,3.85,0,0,0,.17-1.17Z"/><path d="M260.1,146.57c0-1.43,0-2.64-.1-3.76h1.93l.08,2.37h.08a3.67,3.67,0,0,1,3.37-2.65,2.93,2.93,0,0,1,.61.06v2.07a3.4,3.4,0,0,0-.75-.06,3.06,3.06,0,0,0-2.94,2.81,5.56,5.56,0,0,0-.09,1v6.45H260.1Z"/><path d="M274.86,154.89l-.2-1.52h-.06a4.52,4.52,0,0,1-3.7,1.8,3.45,3.45,0,0,1-3.69-3.47c0-2.93,2.59-4.54,7.26-4.5v-.26a2.49,2.49,0,0,0-2.75-2.79,5.93,5.93,0,0,0-3.15.9l-.5-1.46a7.67,7.67,0,0,1,4-1.06c3.7,0,4.6,2.53,4.6,4.95V152a18.35,18.35,0,0,0,.18,2.89Zm-.34-6.17c-2.38-.05-5.11.38-5.11,2.72a1.93,1.93,0,0,0,2,2.1,3,3,0,0,0,3-2,2.26,2.26,0,0,0,.11-.7Z"/><path d="M280.21,146.07c0-1.26,0-2.26-.11-3.26H282l.11,1.94h.06a4.18,4.18,0,0,1,3.82-2.22,3.56,3.56,0,0,1,3.41,2.42h0a5,5,0,0,1,1.37-1.57,4.12,4.12,0,0,1,2.66-.85c1.61,0,4,1,4,5.25v7.11h-2.15v-6.83c0-2.34-.86-3.73-2.62-3.73a2.88,2.88,0,0,0-2.62,2,3.79,3.79,0,0,0-.17,1.1v7.48h-2.15v-7.25c0-1.93-.85-3.31-2.51-3.31a3,3,0,0,0-2.74,2.19,3.51,3.51,0,0,0-.17,1.09v7.28h-2.14Z"/><path d="M301.05,154.89V142.81h2.19v12.08Z"/><path d="M306.9,146.07c0-1.26,0-2.26-.1-3.26h1.95l.12,2h.06a4.47,4.47,0,0,1,4-2.26c1.66,0,4.26,1,4.26,5.15v7.21H315v-7c0-1.95-.74-3.59-2.79-3.59a3.18,3.18,0,0,0-3,2.26,3.48,3.48,0,0,0-.15,1v7.28H306.9Z"/><path d="M331.21,137.15v14.63c0,1.07,0,2.28.1,3.11h-1.95l-.11-2.09h-.06a4.44,4.44,0,0,1-4.1,2.37c-2.93,0-5.19-2.48-5.19-6.14,0-4,2.49-6.5,5.43-6.5a4,4,0,0,1,3.65,1.84h0v-7.22ZM329,147.72a4.2,4.2,0,0,0-.1-.93,3.24,3.24,0,0,0-3.18-2.53c-2.28,0-3.64,2-3.64,4.65,0,2.45,1.22,4.49,3.6,4.49a3.32,3.32,0,0,0,3.21-2.64,3.51,3.51,0,0,0,.11-.94Z"/><path d="M341.58,154.89l-.19-1.52h-.07a4.5,4.5,0,0,1-3.7,1.8,3.45,3.45,0,0,1-3.69-3.47c0-2.93,2.6-4.54,7.27-4.5v-.26a2.5,2.5,0,0,0-2.76-2.79,6,6,0,0,0-3.15.9l-.49-1.46a7.64,7.64,0,0,1,4-1.06c3.69,0,4.59,2.53,4.59,4.95V152a19.64,19.64,0,0,0,.18,2.89Zm-.34-6.17c-2.38-.05-5.1.38-5.1,2.72a1.93,1.93,0,0,0,2.05,2.1,3,3,0,0,0,2.94-2,2.26,2.26,0,0,0,.11-.7Z"/><path d="M363.17,148.73c0,4.48-3.11,6.44-6,6.44-3.28,0-5.81-2.39-5.81-6.23,0-4,2.66-6.41,6-6.41S363.17,145.05,363.17,148.73Zm-9.59.14c0,2.66,1.52,4.65,3.67,4.65s3.68-2,3.68-4.71c0-2.05-1-4.63-3.64-4.63S353.58,146.58,353.58,148.87Z"/><path d="M366,137.15h2.19v17.74H366Z"/><path d="M371.85,146.07c0-1.26,0-2.26-.1-3.26h1.91l.12,1.94h.06a4.17,4.17,0,0,1,3.82-2.22,3.55,3.55,0,0,1,3.4,2.42h.05a5,5,0,0,1,1.37-1.57,4.12,4.12,0,0,1,2.66-.85c1.61,0,4,1,4,5.25v7.11H387v-6.83c0-2.34-.86-3.73-2.62-3.73a2.88,2.88,0,0,0-2.62,2,3.78,3.78,0,0,0-.18,1.1v7.48h-2.14v-7.25c0-1.93-.85-3.31-2.51-3.31a3,3,0,0,0-2.74,2.19,3.51,3.51,0,0,0-.17,1.09v7.28h-2.15Z"/><path d="M399.41,154.89l-.2-1.52h-.06a4.52,4.52,0,0,1-3.7,1.8,3.45,3.45,0,0,1-3.69-3.47c0-2.93,2.59-4.54,7.26-4.5v-.26a2.49,2.49,0,0,0-2.75-2.79,5.93,5.93,0,0,0-3.15.9l-.5-1.46a7.64,7.64,0,0,1,4-1.06c3.7,0,4.6,2.53,4.6,4.95V152a18.35,18.35,0,0,0,.18,2.89Zm-.35-6.17c-2.37-.05-5.1.38-5.1,2.72a1.93,1.93,0,0,0,2.05,2.1,3,3,0,0,0,2.95-2,2.23,2.23,0,0,0,.1-.7Z"/><path d="M404.44,152.66a6.07,6.07,0,0,0,2.92.86c1.6,0,2.35-.79,2.35-1.8s-.64-1.61-2.25-2.22c-2.18-.79-3.22-2-3.21-3.42,0-2,1.58-3.55,4.18-3.55a5.85,5.85,0,0,1,3,.74l-.55,1.6a4.75,4.75,0,0,0-2.48-.71c-1.29,0-2,.75-2,1.66s.71,1.45,2.3,2.06c2.08.78,3.16,1.83,3.17,3.63,0,2.15-1.67,3.65-4.52,3.65a6.88,6.88,0,0,1-3.4-.85Z"/><path d="M414.65,154.89V142.81h2.19v12.08Z"/><path d="M99.14,172.81c-.06.85-.1,1.83-.1,3.3v7c0,2.8-.57,4.48-1.73,5.54a6.5,6.5,0,0,1-4.4,1.45,7.85,7.85,0,0,1-4-1l.55-1.69a6.76,6.76,0,0,0,3.56,1c2.25,0,3.89-1.18,3.89-4.24v-1.34h-.05a4.28,4.28,0,0,1-3.84,2c-3,0-5.15-2.56-5.15-5.91,0-4.1,2.67-6.41,5.46-6.41a4,4,0,0,1,3.77,2.09h0l.09-1.81Zm-2.29,4.75a3.33,3.33,0,0,0-.12-1,3.19,3.19,0,0,0-3.09-2.34c-2.09,0-3.6,1.77-3.6,4.58,0,2.37,1.22,4.35,3.58,4.35a3.21,3.21,0,0,0,3.06-2.26,3.85,3.85,0,0,0,.17-1.17Z"/><path d="M103.91,179.25c0,3,1.93,4.19,4.14,4.19a8.13,8.13,0,0,0,3.35-.62l.38,1.57a9.76,9.76,0,0,1-4,.77c-3.71,0-6-2.48-6-6.1s2.16-6.53,5.69-6.53c3.94,0,5,3.46,5,5.69a5.36,5.36,0,0,1-.07,1Zm6.44-1.58c0-1.39-.57-3.56-3-3.56-2.24,0-3.19,2-3.37,3.56Z"/><path d="M115.2,176.57c0-1.43,0-2.64-.1-3.76H117l.08,2.37h.08a3.68,3.68,0,0,1,3.37-2.65,2.87,2.87,0,0,1,.61.06v2.07a3.35,3.35,0,0,0-.75-.06,3.06,3.06,0,0,0-2.94,2.81,5.56,5.56,0,0,0-.09,1v6.45H115.2Z"/><path d="M124.36,179.25c0,3,1.93,4.19,4.14,4.19a8.09,8.09,0,0,0,3.35-.62l.38,1.57a9.76,9.76,0,0,1-4,.77c-3.71,0-5.95-2.48-5.95-6.1s2.16-6.53,5.69-6.53c3.94,0,5,3.46,5,5.69a5.36,5.36,0,0,1-.07,1Zm6.44-1.58c0-1.39-.57-3.56-3-3.56-2.24,0-3.19,2-3.37,3.56Z"/><path d="M137.84,178.35h0c.29-.43.71-1,1.05-1.38l3.57-4.16h2.64l-4.67,5,5.32,7.11h-2.68L139,179.08l-1.12,1.26v4.55h-2.19V167.15h2.19Z"/><path d="M148.64,179.25c0,3,1.93,4.19,4.13,4.19a8.06,8.06,0,0,0,3.35-.62l.39,1.57a9.82,9.82,0,0,1-4,.77c-3.71,0-5.94-2.48-5.94-6.1s2.15-6.53,5.68-6.53c3.95,0,5,3.46,5,5.69a5.2,5.2,0,0,1-.08,1Zm6.43-1.58c0-1.39-.57-3.56-3-3.56-2.24,0-3.2,2-3.38,3.56Z"/><path d="M159.93,176.07c0-1.26,0-2.26-.1-3.26h1.94l.13,2H162a4.46,4.46,0,0,1,4-2.26c1.66,0,4.26,1,4.26,5.15v7.21H168v-7c0-1.95-.74-3.59-2.8-3.59a3.16,3.16,0,0,0-3,2.26,3.48,3.48,0,0,0-.15,1v7.28h-2.19Z"/><path d="M189.54,167.15v14.63c0,1.07,0,2.28.1,3.11h-2l-.11-2.09h-.06a4.42,4.42,0,0,1-4.1,2.37c-2.93,0-5.18-2.48-5.18-6.14,0-4,2.48-6.5,5.43-6.5a4,4,0,0,1,3.64,1.84h0v-7.22Zm-2.19,10.57a4.19,4.19,0,0,0-.09-.93,3.25,3.25,0,0,0-3.18-2.53c-2.28,0-3.64,2-3.64,4.65,0,2.45,1.22,4.49,3.59,4.49a3.33,3.33,0,0,0,3.22-2.64,4,4,0,0,0,.1-.94Z"/><path d="M194.44,179.25c0,3,1.93,4.19,4.13,4.19a8.06,8.06,0,0,0,3.35-.62l.39,1.57a9.82,9.82,0,0,1-4,.77c-3.71,0-5.94-2.48-5.94-6.1s2.15-6.53,5.68-6.53c4,0,5,3.46,5,5.69a5.2,5.2,0,0,1-.08,1Zm6.43-1.58c0-1.39-.57-3.56-3-3.56-2.25,0-3.2,2-3.38,3.56Z"/><path d="M205.73,176.57c0-1.43,0-2.64-.1-3.76h1.92l.09,2.37h.08a3.66,3.66,0,0,1,3.36-2.65,2.87,2.87,0,0,1,.61.06v2.07a3.25,3.25,0,0,0-.74-.06,3.07,3.07,0,0,0-2.95,2.81,6.58,6.58,0,0,0-.09,1v6.45h-2.18Z"/><path d="M213.59,182.66a6.07,6.07,0,0,0,2.92.86c1.6,0,2.35-.79,2.35-1.8s-.64-1.61-2.25-2.22c-2.18-.79-3.22-2-3.21-3.42,0-2,1.58-3.55,4.18-3.55a5.85,5.85,0,0,1,3,.74l-.55,1.6a4.74,4.74,0,0,0-2.47-.71c-1.3,0-2,.75-2,1.66s.71,1.45,2.3,2.06c2.08.78,3.16,1.83,3.17,3.63,0,2.15-1.67,3.65-4.52,3.65a6.91,6.91,0,0,1-3.4-.85Z"/><path d="M223.81,167.15H226v17.74h-2.18Z"/><path d="M230.94,179.25c0,3,1.93,4.19,4.13,4.19a8.06,8.06,0,0,0,3.35-.62l.39,1.57a9.82,9.82,0,0,1-4,.77c-3.71,0-5.94-2.48-5.94-6.1s2.15-6.53,5.68-6.53c4,0,5,3.46,5,5.69a5.2,5.2,0,0,1-.08,1Zm6.43-1.58c0-1.39-.57-3.56-3-3.56-2.25,0-3.2,2-3.38,3.56Z"/><path d="M242.23,176.57c0-1.43,0-2.64-.1-3.76h1.92l.09,2.37h.07a3.68,3.68,0,0,1,3.37-2.65,2.87,2.87,0,0,1,.61.06v2.07a3.25,3.25,0,0,0-.74-.06,3.07,3.07,0,0,0-2.95,2.81,6.58,6.58,0,0,0-.09,1v6.45h-2.18Z"/><path d="M253,169.39a1.32,1.32,0,0,1-1.4,1.36,1.3,1.3,0,0,1-1.32-1.36,1.36,1.36,0,1,1,2.72,0Zm-2.45,15.5V172.81h2.18v12.08Z"/><path d="M261.34,182.66a6.07,6.07,0,0,0,2.92.86c1.6,0,2.35-.79,2.35-1.8s-.64-1.61-2.25-2.22c-2.18-.79-3.22-2-3.21-3.42,0-2,1.58-3.55,4.18-3.55a5.85,5.85,0,0,1,3,.74l-.55,1.6a4.75,4.75,0,0,0-2.48-.71c-1.29,0-2,.75-2,1.66s.71,1.45,2.3,2.06c2.08.78,3.16,1.83,3.17,3.63,0,2.15-1.67,3.65-4.52,3.65a6.88,6.88,0,0,1-3.4-.85Z"/><path d="M272.79,179.25c0,3,1.92,4.19,4.13,4.19a8.09,8.09,0,0,0,3.35-.62l.38,1.57a9.72,9.72,0,0,1-4,.77c-3.71,0-5.95-2.48-5.95-6.1s2.16-6.53,5.69-6.53c3.95,0,5,3.46,5,5.69a5.2,5.2,0,0,1-.08,1Zm6.43-1.58c0-1.39-.57-3.56-3-3.56-2.25,0-3.2,2-3.38,3.56Z"/><path d="M292.7,184.46a8.39,8.39,0,0,1-3.47.7c-3.64,0-6-2.48-6-6.18a6.15,6.15,0,0,1,6.49-6.44,7,7,0,0,1,3.06.64l-.49,1.69a5.31,5.31,0,0,0-2.57-.58c-2.76,0-4.27,2.06-4.26,4.57,0,2.8,1.8,4.53,4.21,4.53a6.37,6.37,0,0,0,2.69-.58Zm-3,.37-.81,1.32a1.84,1.84,0,0,1,1.74,1.72c0,1.47-1.21,2-2.61,2a3.47,3.47,0,0,1-1.69-.43l.37-1.07a2.77,2.77,0,0,0,1.35.37c.55,0,1.09-.2,1.07-.79s-.77-.95-1.95-1.05l1.18-2.09Z"/><path d="M295.28,176.07c0-1.26,0-2.26-.1-3.26h1.91l.12,1.94h.06a4.17,4.17,0,0,1,3.81-2.22,3.56,3.56,0,0,1,3.41,2.42h.05a5,5,0,0,1,1.36-1.57,4.13,4.13,0,0,1,2.66-.85c1.62,0,4,1,4,5.25v7.11h-2.14v-6.83c0-2.34-.87-3.73-2.62-3.73a2.87,2.87,0,0,0-2.62,2,3.47,3.47,0,0,0-.18,1.1v7.48h-2.15v-7.25c0-1.93-.85-3.31-2.51-3.31a3,3,0,0,0-2.74,2.19,3.5,3.5,0,0,0-.16,1.09v7.28h-2.15Z"/><path d="M317.36,179.25a3.85,3.85,0,0,0,4.14,4.19,8,8,0,0,0,3.34-.62l.39,1.57a9.76,9.76,0,0,1-4,.77c-3.72,0-5.95-2.48-5.95-6.1s2.16-6.53,5.69-6.53c3.94,0,5,3.46,5,5.69a6.33,6.33,0,0,1-.07,1Zm6.43-1.58c0-1.39-.56-3.56-3-3.56-2.24,0-3.2,2-3.37,3.56Z"/><path d="M328.65,167.15h2.19v17.74h-2.19Z"/><path d="M337,169.39a1.32,1.32,0,0,1-1.4,1.36,1.3,1.3,0,0,1-1.32-1.36,1.36,1.36,0,1,1,2.72,0Zm-2.46,15.5V172.81h2.19v12.08Z"/><path d="M340.09,182.66a6.07,6.07,0,0,0,2.92.86c1.6,0,2.35-.79,2.35-1.8s-.64-1.61-2.25-2.22c-2.18-.79-3.22-2-3.21-3.42,0-2,1.58-3.55,4.18-3.55a5.85,5.85,0,0,1,3,.74l-.55,1.6a4.75,4.75,0,0,0-2.48-.71c-1.29,0-2,.75-2,1.66s.71,1.45,2.3,2.06c2.08.78,3.16,1.83,3.17,3.63,0,2.15-1.67,3.65-4.52,3.65a6.88,6.88,0,0,1-3.4-.85Z"/><path d="M352.76,169.39a1.32,1.32,0,0,1-1.4,1.36,1.3,1.3,0,0,1-1.32-1.36,1.36,1.36,0,1,1,2.72,0Zm-2.46,15.5V172.81h2.19v12.08Z"/><path d="M356.15,176.07c0-1.26,0-2.26-.1-3.26H358l.12,2h.06a4.47,4.47,0,0,1,4-2.26c1.66,0,4.26,1,4.26,5.15v7.21h-2.19v-7c0-1.95-.74-3.59-2.8-3.59a3.17,3.17,0,0,0-3,2.26,3.48,3.48,0,0,0-.15,1v7.28h-2.19Z"/><path d="M369.51,183.6A1.49,1.49,0,0,1,371,182a1.58,1.58,0,1,1-1.49,1.59Z"/></svg>