<svg id="Layer_1" data-name="Layer 1" xmlns="http://www.w3.org/2000/svg" viewBox="0 0 460 310"><defs><style>.cls-1{fill:#ccc;}.cls-2{fill:none;stroke-width:0.5px;}.cls-2,.cls-3{stroke:#999;stroke-miterlimit:10;}.cls-3{fill:#999;}.cls-4{font-size:22.75px;fill:#333;font-family:SegoeUIHistoric, Segoe UI Historic;}.cls-5{fill:#666;}</style></defs><title>tutorial-class-2</title><path d="M81.93,184.21A1.27,1.27,0,0,1,83.18,183a1.24,1.24,0,0,1,1.2,1.24,1.23,1.23,0,1,1-2.45,0Zm2.3,2.46v16.84H82.05V186.67Z"/><path d="M87.64,201.27a6,6,0,0,0,2.92.86c1.6,0,2.35-.79,2.35-1.8s-.64-1.61-2.25-2.21c-2.18-.79-3.22-2-3.21-3.43,0-1.94,1.58-3.54,4.18-3.54a5.85,5.85,0,0,1,3,.74l-.55,1.6a4.75,4.75,0,0,0-2.48-.71c-1.29,0-2,.75-2,1.66s.71,1.44,2.3,2.06c2.08.78,3.16,1.83,3.17,3.63,0,2.14-1.67,3.64-4.52,3.64a6.88,6.88,0,0,1-3.4-.84Z"/><path d="M100.49,187.94v3.48h3.16v1.67h-3.16v6.51c0,1.51.44,2.36,1.67,2.36a4.31,4.31,0,0,0,1.27-.16l.1,1.67a5.58,5.58,0,0,1-2,.3,3.09,3.09,0,0,1-2.38-.93,4.64,4.64,0,0,1-.85-3.15v-6.6H96.47v-1.67h1.87v-2.91Z"/><path d="M107.21,197.86c0,3,1.93,4.2,4.14,4.2a8,8,0,0,0,3.34-.62l.39,1.56a9.76,9.76,0,0,1-4,.77c-3.72,0-6-2.47-6-6.1s2.16-6.52,5.69-6.52c3.94,0,5,3.46,5,5.68a6.24,6.24,0,0,1-.07,1Zm6.43-1.58c0-1.38-.56-3.56-3-3.56-2.24,0-3.2,2-3.37,3.56Z"/><path d="M118.5,195.19c0-1.43,0-2.65-.1-3.77h1.93l.08,2.37h.08a3.66,3.66,0,0,1,3.36-2.64,2.42,2.42,0,0,1,.62.06v2.07a3.36,3.36,0,0,0-.75-.07,3.06,3.06,0,0,0-2.94,2.82,5.45,5.45,0,0,0-.09,1v6.46H118.5Z"/><path d="M126.37,201.27a5.92,5.92,0,0,0,2.91.86c1.61,0,2.35-.79,2.35-1.8s-.64-1.61-2.25-2.21c-2.18-.79-3.21-2-3.21-3.43,0-1.94,1.58-3.54,4.18-3.54a5.85,5.85,0,0,1,3,.74l-.54,1.6a4.78,4.78,0,0,0-2.48-.71c-1.3,0-2,.75-2,1.66s.71,1.44,2.29,2.06c2.08.78,3.17,1.83,3.17,3.63,0,2.14-1.66,3.64-4.52,3.64a6.91,6.91,0,0,1-3.4-.84Z"/><path d="M137.81,197.86c0,3,1.93,4.2,4.14,4.2a8,8,0,0,0,3.34-.62l.39,1.56a9.76,9.76,0,0,1-4,.77c-3.72,0-6-2.47-6-6.1s2.16-6.52,5.69-6.52c3.94,0,5,3.46,5,5.68a6.24,6.24,0,0,1-.07,1Zm6.43-1.58c0-1.38-.56-3.56-3-3.56-2.24,0-3.2,2-3.37,3.56Z"/><path d="M149.1,194.69c0-1.26,0-2.26-.1-3.27H151l.12,2h.06a4.47,4.47,0,0,1,4-2.26c1.66,0,4.26,1,4.26,5.15v7.21H157.2v-7c0-1.95-.74-3.59-2.8-3.59a3.17,3.17,0,0,0-3,2.26,3.48,3.48,0,0,0-.15,1v7.28H149.1Z"/><path d="M168.49,203.51V193.09H166.8v-1.67h1.69v-.58a5.75,5.75,0,0,1,1.41-4.23,4.2,4.2,0,0,1,2.94-1.12,4.89,4.89,0,0,1,1.87.35l-.29,1.69a3.44,3.44,0,0,0-1.41-.27c-1.85,0-2.34,1.64-2.34,3.51v.65h2.92v1.67h-2.91v10.42Z"/><path d="M182.28,203.51l-.19-1.53H182a4.48,4.48,0,0,1-3.7,1.81,3.45,3.45,0,0,1-3.69-3.47c0-2.93,2.6-4.54,7.27-4.51v-.25a2.5,2.5,0,0,0-2.76-2.79,6,6,0,0,0-3.15.9l-.49-1.46a7.54,7.54,0,0,1,4-1.06c3.7,0,4.6,2.52,4.6,4.95v4.52a19.64,19.64,0,0,0,.18,2.89Zm-.34-6.17c-2.38-.05-5.1.37-5.1,2.71a1.94,1.94,0,0,0,2,2.11,3,3,0,0,0,2.94-2,2.16,2.16,0,0,0,.11-.69Z"/><path d="M186.25,202.23l5.47-7.1c.54-.68,1-1.25,1.59-1.9v0h-6.57v-1.76H196v1.37l-5.4,7c-.52.66-1,1.28-1.56,1.88v.05h7.06v1.76h-9.81Z"/><path d="M198.33,185.77h2.19v17.74h-2.19Z"/><path d="M210.93,203.51l-.19-1.53h-.07a4.48,4.48,0,0,1-3.7,1.81,3.45,3.45,0,0,1-3.69-3.47c0-2.93,2.6-4.54,7.26-4.51v-.25a2.49,2.49,0,0,0-2.75-2.79,6,6,0,0,0-3.15.9l-.5-1.46a7.6,7.6,0,0,1,4-1.06c3.7,0,4.6,2.52,4.6,4.95v4.52a19.64,19.64,0,0,0,.18,2.89Zm-.34-6.17c-2.38-.05-5.1.37-5.1,2.71a1.93,1.93,0,0,0,2,2.11,3,3,0,0,0,2.94-2,2.16,2.16,0,0,0,.11-.69Z"/><path d="M226.71,185.77v14.62c0,1.08,0,2.29.1,3.12h-1.95l-.12-2.09h-.05a4.45,4.45,0,0,1-4.11,2.37c-2.92,0-5.18-2.48-5.18-6.15,0-4,2.48-6.49,5.43-6.49a4,4,0,0,1,3.64,1.83h.05v-7.21Zm-2.19,10.57a4.28,4.28,0,0,0-.09-.94,3.26,3.26,0,0,0-3.18-2.53c-2.28,0-3.64,2-3.64,4.66,0,2.45,1.22,4.49,3.59,4.49a3.32,3.32,0,0,0,3.22-2.64,3.52,3.52,0,0,0,.1-.94Z"/><path d="M237.08,203.51l-.19-1.53h-.07a4.48,4.48,0,0,1-3.7,1.81,3.45,3.45,0,0,1-3.69-3.47c0-2.93,2.59-4.54,7.26-4.51v-.25a2.49,2.49,0,0,0-2.75-2.79,6,6,0,0,0-3.15.9l-.5-1.46a7.57,7.57,0,0,1,4-1.06c3.7,0,4.6,2.52,4.6,4.95v4.52a19.64,19.64,0,0,0,.18,2.89Zm-.34-6.17c-2.38-.05-5.11.37-5.11,2.71a1.94,1.94,0,0,0,2.06,2.11,3,3,0,0,0,2.94-2,2.16,2.16,0,0,0,.11-.69Z"/><path d="M242.43,194.69c0-1.26,0-2.26-.1-3.27h1.94l.12,2h.06a4.48,4.48,0,0,1,4-2.26c1.66,0,4.26,1,4.26,5.15v7.21h-2.19v-7c0-1.95-.73-3.59-2.79-3.59a3.27,3.27,0,0,0-3.12,3.28v7.28h-2.18Z"/><path d="M261.29,201.27a5.92,5.92,0,0,0,2.91.86c1.61,0,2.35-.79,2.35-1.8s-.64-1.61-2.24-2.21c-2.19-.79-3.22-2-3.22-3.43,0-1.94,1.59-3.54,4.19-3.54a5.85,5.85,0,0,1,3,.74l-.55,1.6a4.75,4.75,0,0,0-2.48-.71c-1.3,0-2,.75-2,1.66s.71,1.44,2.29,2.06c2.09.78,3.17,1.83,3.17,3.63,0,2.14-1.66,3.64-4.52,3.64a6.87,6.87,0,0,1-3.39-.84Z"/><path d="M272.73,197.86c0,3,1.93,4.2,4.14,4.2a8.13,8.13,0,0,0,3.35-.62l.38,1.56a9.76,9.76,0,0,1-4,.77c-3.72,0-5.95-2.47-5.95-6.1s2.16-6.52,5.69-6.52c3.94,0,5,3.46,5,5.68a5.29,5.29,0,0,1-.07,1Zm6.44-1.58c0-1.38-.57-3.56-3-3.56-2.24,0-3.2,2-3.37,3.56Z"/><path d="M292.65,203.07a8.27,8.27,0,0,1-3.47.7c-3.65,0-6-2.48-6-6.17a6.16,6.16,0,0,1,6.49-6.45,7,7,0,0,1,3.06.65l-.49,1.68a5.43,5.43,0,0,0-2.57-.58c-2.76,0-4.27,2.07-4.27,4.58,0,2.8,1.8,4.52,4.21,4.52a6.37,6.37,0,0,0,2.69-.58Zm-3,.38-.82,1.31a1.86,1.86,0,0,1,1.75,1.73c0,1.47-1.21,2-2.61,2a3.54,3.54,0,0,1-1.7-.43l.37-1.07a2.77,2.77,0,0,0,1.36.36c.55,0,1.08-.19,1.07-.79s-.77-.94-2-1l1.18-2.09Z"/><path d="M296.31,197.86c0,3,1.93,4.2,4.13,4.2a8.06,8.06,0,0,0,3.35-.62l.39,1.56a9.82,9.82,0,0,1-4,.77c-3.71,0-5.94-2.47-5.94-6.1s2.15-6.52,5.68-6.52c3.95,0,5,3.46,5,5.68a5.13,5.13,0,0,1-.08,1Zm6.43-1.58c0-1.38-.57-3.56-3-3.56-2.25,0-3.2,2-3.38,3.56Z"/><path d="M307.5,203.51c.06-.83.1-2,.1-3.12V185.77h2.18v7.59h.05a4.46,4.46,0,0,1,4.12-2.21c3,0,5.12,2.49,5.11,6.15,0,4.34-2.75,6.49-5.45,6.49a4.37,4.37,0,0,1-4.05-2.27h-.06l-.11,2Zm2.28-4.84a3.35,3.35,0,0,0,3.39,3.37c2.31,0,3.67-1.88,3.67-4.65,0-2.43-1.25-4.51-3.6-4.51a3.5,3.5,0,0,0-3.33,2.7,3.56,3.56,0,0,0-.13.91Z"/><path d="M324.28,188a1.32,1.32,0,0,1-1.4,1.36,1.31,1.31,0,0,1-1.32-1.36,1.33,1.33,0,0,1,1.36-1.37A1.31,1.31,0,0,1,324.28,188Zm-2.45,15.5V191.42H324v12.09Z"/><path d="M327.68,185.77h2.18v17.74h-2.18Z"/><path d="M336,188a1.32,1.32,0,0,1-1.4,1.36,1.3,1.3,0,0,1-1.32-1.36,1.36,1.36,0,1,1,2.72,0Zm-2.45,15.5V191.42h2.18v12.09Z"/><path d="M339.42,195.19c0-1.43,0-2.65-.1-3.77h1.93l.08,2.37h.08a3.66,3.66,0,0,1,3.37-2.64,2.38,2.38,0,0,1,.61.06v2.07a3.36,3.36,0,0,0-.75-.07A3.07,3.07,0,0,0,341.7,196a5.45,5.45,0,0,0-.09,1v6.46h-2.19Z"/><path d="M347.29,201.27a5.92,5.92,0,0,0,2.91.86c1.61,0,2.35-.79,2.35-1.8s-.64-1.61-2.24-2.21c-2.19-.79-3.22-2-3.22-3.43,0-1.94,1.59-3.54,4.19-3.54a5.91,5.91,0,0,1,3,.74l-.55,1.6a4.78,4.78,0,0,0-2.48-.71c-1.3,0-2,.75-2,1.66s.71,1.44,2.29,2.06c2.09.78,3.17,1.83,3.17,3.63,0,2.14-1.66,3.64-4.52,3.64a6.87,6.87,0,0,1-3.39-.84Z"/><path d="M360,188a1.33,1.33,0,0,1-1.4,1.36,1.31,1.31,0,0,1-1.33-1.36,1.34,1.34,0,0,1,1.37-1.37A1.32,1.32,0,0,1,360,188Zm-2.46,15.5V191.42h2.19v12.09Z"/><path d="M363.35,194.69c0-1.26,0-2.26-.1-3.27h1.94l.12,2h.07a4.46,4.46,0,0,1,4-2.26c1.66,0,4.26,1,4.26,5.15v7.21h-2.19v-7c0-1.95-.73-3.59-2.79-3.59a3.16,3.16,0,0,0-3,2.26,3.48,3.48,0,0,0-.15,1v7.28h-2.19Z"/><path d="M376.7,202.22a1.49,1.49,0,0,1,1.49-1.59,1.58,1.58,0,1,1-1.49,1.59Z"/><path d="M51.81,216.67v7.05H60v-7.05h2.19v16.84H60v-7.9H51.81v7.9H49.62V216.67Z"/><path d="M72.56,233.51l-.2-1.53H72.3a4.5,4.5,0,0,1-3.7,1.81,3.45,3.45,0,0,1-3.69-3.47c0-2.93,2.59-4.54,7.26-4.51v-.25a2.49,2.49,0,0,0-2.75-2.79,5.84,5.84,0,0,0-3.15.9l-.5-1.46a7.57,7.57,0,0,1,4-1.06c3.7,0,4.6,2.52,4.6,4.95v4.52a18.35,18.35,0,0,0,.18,2.89Zm-.35-6.17c-2.37-.05-5.1.38-5.1,2.71a1.94,1.94,0,0,0,2.06,2.11,3,3,0,0,0,2.94-2,2.14,2.14,0,0,0,.1-.69Z"/><path d="M77.9,224.69c0-1.26,0-2.27-.1-3.27h2l.12,2h.06a4.47,4.47,0,0,1,4-2.26c1.66,0,4.26,1,4.26,5.15v7.21H86v-7c0-1.95-.74-3.59-2.79-3.59a3.18,3.18,0,0,0-3,2.26,3.48,3.48,0,0,0-.15,1v7.28H77.9Z"/><path d="M102.21,221.42c-.06.86-.1,1.84-.1,3.31v7c0,2.8-.57,4.47-1.73,5.53a6.48,6.48,0,0,1-4.4,1.45,7.88,7.88,0,0,1-4-1l.55-1.69a6.85,6.85,0,0,0,3.56,1c2.25,0,3.9-1.18,3.9-4.24v-1.35h0a4.29,4.29,0,0,1-3.85,2c-3,0-5.15-2.56-5.15-5.91,0-4.1,2.67-6.41,5.46-6.41a4,4,0,0,1,3.77,2.08h.05l.09-1.81Zm-2.29,4.76a3.45,3.45,0,0,0-.12-1,3.17,3.17,0,0,0-3.09-2.33c-2.09,0-3.6,1.77-3.6,4.58,0,2.36,1.22,4.35,3.58,4.35a3.21,3.21,0,0,0,3.06-2.26,3.85,3.85,0,0,0,.17-1.17Z"/><path d="M108.06,218a1.32,1.32,0,0,1-1.4,1.36,1.3,1.3,0,0,1-1.32-1.36,1.36,1.36,0,1,1,2.72,0Zm-2.46,15.5V221.42h2.19v12.09Z"/><path d="M111.45,215.76h2.19v17.75h-2.19Z"/><path d="M118.58,227.86c0,3,1.93,4.2,4.14,4.2a8.09,8.09,0,0,0,3.35-.62l.38,1.56a9.76,9.76,0,0,1-4,.77c-3.71,0-6-2.47-6-6.1s2.16-6.52,5.69-6.52c3.94,0,5,3.46,5,5.68a5.29,5.29,0,0,1-.07,1Zm6.44-1.58c0-1.38-.57-3.56-3-3.56-2.25,0-3.2,2-3.38,3.56Z"/><path d="M129.88,225.19c0-1.43,0-2.65-.11-3.77h1.93l.09,2.37h.07a3.67,3.67,0,0,1,3.37-2.64,2.34,2.34,0,0,1,.61.06v2.07a3.24,3.24,0,0,0-.75-.07,3.07,3.07,0,0,0-2.94,2.82,5.45,5.45,0,0,0-.09,1v6.46h-2.18Z"/><path d="M140.61,218a1.37,1.37,0,1,1-1.36-1.37A1.33,1.33,0,0,1,140.61,218Zm-2.46,15.5V221.42h2.19v12.09Z"/><path d="M144,224.69c0-1.26,0-2.27-.1-3.27h1.95l.12,2H146a4.47,4.47,0,0,1,4-2.26c1.66,0,4.26,1,4.26,5.15v7.21H152.1v-7c0-1.95-.74-3.59-2.8-3.59a3.17,3.17,0,0,0-3,2.26,3.48,3.48,0,0,0-.15,1v7.28H144Z"/><path d="M160.33,218a1.36,1.36,0,1,1-2.72,0,1.34,1.34,0,0,1,1.37-1.37A1.31,1.31,0,0,1,160.33,218Zm-2.45,15.5V221.42h2.19v12.09Z"/><path d="M169,225.36c0-1.54,0-2.8-.1-3.94h2l.12,2.06h.05a4.72,4.72,0,0,1,4.29-2.33c2.93,0,5.13,2.46,5.13,6.13,0,4.36-2.66,6.51-5.5,6.51a4.22,4.22,0,0,1-3.72-1.91h0v6.58H169Zm2.19,3.23a4.43,4.43,0,0,0,.09.9,3.39,3.39,0,0,0,3.29,2.57c2.33,0,3.68-1.91,3.68-4.68,0-2.41-1.27-4.48-3.6-4.48a3.49,3.49,0,0,0-3.32,2.71,3.84,3.84,0,0,0-.14.89Z"/><path d="M183.25,225.19c0-1.43,0-2.65-.1-3.77h1.92l.09,2.37h.08a3.65,3.65,0,0,1,3.36-2.64,2.34,2.34,0,0,1,.61.06v2.07a3.21,3.21,0,0,0-.74-.07,3.08,3.08,0,0,0-2.95,2.82,6.45,6.45,0,0,0-.09,1v6.46h-2.18Z"/><path d="M202.12,227.35c0,4.48-3.11,6.44-6,6.44-3.28,0-5.81-2.39-5.81-6.23,0-4.05,2.66-6.41,6-6.41S202.12,223.67,202.12,227.35Zm-9.59.14c0,2.65,1.52,4.65,3.67,4.65s3.68-2,3.68-4.71c0-2.05-1-4.63-3.64-4.63S192.53,225.2,192.53,227.49Z"/><path d="M215.36,221.42c-.06.86-.1,1.84-.1,3.31v7c0,2.8-.58,4.47-1.73,5.53a6.5,6.5,0,0,1-4.4,1.45,7.83,7.83,0,0,1-4-1l.55-1.69a6.85,6.85,0,0,0,3.56,1c2.24,0,3.89-1.18,3.89-4.24v-1.35H213a4.27,4.27,0,0,1-3.84,2c-3,0-5.15-2.56-5.15-5.91,0-4.1,2.66-6.41,5.46-6.41a4,4,0,0,1,3.77,2.08h.05l.09-1.81Zm-2.29,4.76a3.45,3.45,0,0,0-.12-1,3.18,3.18,0,0,0-3.09-2.33c-2.1,0-3.6,1.77-3.6,4.58,0,2.36,1.22,4.35,3.58,4.35a3.22,3.22,0,0,0,3.06-2.26,4.19,4.19,0,0,0,.17-1.17Z"/><path d="M218.75,225.19c0-1.43,0-2.65-.1-3.77h1.92l.09,2.37h.08a3.65,3.65,0,0,1,3.36-2.64,2.34,2.34,0,0,1,.61.06v2.07a3.21,3.21,0,0,0-.74-.07A3.08,3.08,0,0,0,221,226a6.45,6.45,0,0,0-.09,1v6.46h-2.18Z"/><path d="M233.5,233.51l-.19-1.53h-.07a4.46,4.46,0,0,1-3.69,1.81,3.45,3.45,0,0,1-3.7-3.47c0-2.93,2.6-4.54,7.27-4.51v-.25a2.49,2.49,0,0,0-2.75-2.79,5.84,5.84,0,0,0-3.15.9l-.5-1.46a7.55,7.55,0,0,1,4-1.06c3.69,0,4.59,2.52,4.59,4.95v4.52a18.28,18.28,0,0,0,.19,2.89Zm-.34-6.17c-2.38-.05-5.1.38-5.1,2.71a1.94,1.94,0,0,0,2.05,2.11,3,3,0,0,0,2.95-2,2.45,2.45,0,0,0,.1-.69Z"/><path d="M238.85,224.69c0-1.26,0-2.27-.1-3.27h1.91l.12,2h.06a4.17,4.17,0,0,1,3.82-2.22,3.56,3.56,0,0,1,3.4,2.42h.05a4.86,4.86,0,0,1,1.37-1.57,4.12,4.12,0,0,1,2.66-.85c1.61,0,4,1,4,5.24v7.12H254v-6.84c0-2.34-.86-3.72-2.62-3.72a2.87,2.87,0,0,0-2.62,2,3.73,3.73,0,0,0-.18,1.1v7.48h-2.14v-7.25c0-1.93-.86-3.31-2.52-3.31a3,3,0,0,0-2.74,2.19,3.76,3.76,0,0,0-.16,1.08v7.29h-2.15Z"/><path d="M259.7,233.51V221.42h2.19v12.09Z"/><path d="M265.55,224.69c0-1.26,0-2.27-.1-3.27h1.94l.13,2h.06a4.46,4.46,0,0,1,4-2.26c1.66,0,4.26,1,4.26,5.15v7.21h-2.18v-7c0-1.95-.74-3.59-2.8-3.59a3.16,3.16,0,0,0-3,2.26,3.48,3.48,0,0,0-.15,1v7.28h-2.19Z"/><path d="M286.13,233.51l-.19-1.53h-.07a4.48,4.48,0,0,1-3.7,1.81,3.45,3.45,0,0,1-3.69-3.47c0-2.93,2.59-4.54,7.26-4.51v-.25a2.49,2.49,0,0,0-2.75-2.79,5.86,5.86,0,0,0-3.15.9l-.5-1.46a7.57,7.57,0,0,1,4-1.06c3.7,0,4.6,2.52,4.6,4.95v4.52a19.64,19.64,0,0,0,.18,2.89Zm-.34-6.17c-2.38-.05-5.11.38-5.11,2.71a1.94,1.94,0,0,0,2.06,2.11,3,3,0,0,0,2.94-2,2.16,2.16,0,0,0,.11-.69Z"/><path d="M299,227H299c.29-.43.71-1,1.05-1.38l3.57-4.17h2.64l-4.67,5,5.32,7.12h-2.68l-4.16-5.81L299,229v4.55h-2.19V215.76H299Z"/><path d="M319.47,227.35c0,4.48-3.11,6.44-6,6.44-3.28,0-5.82-2.39-5.82-6.23,0-4.05,2.66-6.41,6-6.41S319.47,223.67,319.47,227.35Zm-9.59.14c0,2.65,1.52,4.65,3.67,4.65s3.68-2,3.68-4.71c0-2.05-1-4.63-3.64-4.63S309.88,225.2,309.88,227.49Z"/><path d="M322.87,221.42l2.64,7.15c.29.8.58,1.74.78,2.46h.06c.22-.71.48-1.63.77-2.51l2.39-7.1h2.34L328.54,230c-1.57,4.16-2.64,6.28-4.14,7.59a6.23,6.23,0,0,1-2.7,1.41l-.54-1.84a6,6,0,0,0,1.92-1.07,7.17,7.17,0,0,0,1.84-2.45,1.42,1.42,0,0,0,.17-.53,1.39,1.39,0,0,0-.15-.57l-4.46-11.15Z"/><path d="M340.45,233.51l-.19-1.53h-.07a4.46,4.46,0,0,1-3.69,1.81,3.45,3.45,0,0,1-3.7-3.47c0-2.93,2.6-4.54,7.27-4.51v-.25a2.49,2.49,0,0,0-2.75-2.79,5.81,5.81,0,0,0-3.15.9l-.5-1.46a7.55,7.55,0,0,1,4-1.06c3.69,0,4.59,2.52,4.59,4.95v4.52a18.28,18.28,0,0,0,.19,2.89Zm-.34-6.17c-2.38-.05-5.1.38-5.1,2.71a1.94,1.94,0,0,0,2.05,2.11,3,3,0,0,0,2.95-2,2.45,2.45,0,0,0,.1-.69Z"/><path d="M354.42,233.07a8.23,8.23,0,0,1-3.47.7c-3.64,0-6-2.48-6-6.17a6.16,6.16,0,0,1,6.5-6.45,7,7,0,0,1,3.05.65l-.49,1.68a5.43,5.43,0,0,0-2.57-.58c-2.76,0-4.27,2.07-4.26,4.58,0,2.8,1.8,4.52,4.21,4.52a6.37,6.37,0,0,0,2.69-.58Z"/><path d="M363.73,233.51l-.2-1.53h-.06a4.5,4.5,0,0,1-3.7,1.81,3.45,3.45,0,0,1-3.69-3.47c0-2.93,2.59-4.54,7.26-4.51v-.25a2.49,2.49,0,0,0-2.75-2.79,5.84,5.84,0,0,0-3.15.9l-.5-1.46a7.57,7.57,0,0,1,4-1.06c3.7,0,4.6,2.52,4.6,4.95v4.52a18.35,18.35,0,0,0,.18,2.89Zm-.34-6.17c-2.38-.05-5.11.38-5.11,2.71a1.94,1.94,0,0,0,2.06,2.11,3,3,0,0,0,2.94-2,2.16,2.16,0,0,0,.11-.69Z"/><path d="M379.49,221.41c-.05.88-.1,1.85-.1,3.33v7c0,2.78-.55,4.48-1.72,5.53a6.46,6.46,0,0,1-4.4,1.44,7.78,7.78,0,0,1-4-1l.55-1.67a6.82,6.82,0,0,0,3.55.95c2.24,0,3.89-1.18,3.89-4.22v-1.35h-.05a4.31,4.31,0,0,1-3.84,2c-3,0-5.15-2.55-5.15-5.9,0-4.1,2.67-6.42,5.45-6.42a4,4,0,0,1,3.77,2.1h.05l.1-1.83Zm-2.27,4.78a3.11,3.11,0,0,0-.13-1,3.16,3.16,0,0,0-3.07-2.33c-2.1,0-3.6,1.78-3.6,4.58,0,2.37,1.2,4.35,3.58,4.35a3.21,3.21,0,0,0,3-2.25,3.72,3.72,0,0,0,.18-1.18Zm-5-9.73a1.82,1.82,0,0,0,1.79,1.73,1.77,1.77,0,0,0,1.8-1.73h1.3a3.1,3.1,0,1,1-6.19,0Z"/><path d="M383.05,233.51V221.42h2.19v12.09Z"/><path d="M388.9,224.69c0-1.26,0-2.27-.1-3.27h1.94l.12,2h.06a4.48,4.48,0,0,1,4-2.26c1.66,0,4.26,1,4.26,5.15v7.21H397v-7c0-1.95-.73-3.59-2.79-3.59a3.16,3.16,0,0,0-3,2.26,3.48,3.48,0,0,0-.15,1v7.28H388.9Z"/><path d="M409.48,233.51l-.2-1.53h-.06a4.5,4.5,0,0,1-3.7,1.81,3.45,3.45,0,0,1-3.69-3.47c0-2.93,2.59-4.54,7.26-4.51v-.25a2.49,2.49,0,0,0-2.75-2.79,5.84,5.84,0,0,0-3.15.9l-.5-1.46a7.57,7.57,0,0,1,4-1.06c3.7,0,4.6,2.52,4.6,4.95v4.52a18.35,18.35,0,0,0,.18,2.89Zm-.35-6.17c-2.37-.05-5.1.38-5.1,2.71a1.94,1.94,0,0,0,2.05,2.11,3,3,0,0,0,2.95-2,2.14,2.14,0,0,0,.1-.69Z"/><path d="M96.16,245.76v14.63c0,1.08,0,2.29.1,3.12h-2l-.11-2.09h-.06a4.44,4.44,0,0,1-4.1,2.37c-2.93,0-5.19-2.48-5.19-6.15,0-4,2.49-6.49,5.43-6.49A4.07,4.07,0,0,1,93.93,253h0v-7.22ZM94,256.34a4.36,4.36,0,0,0-.1-.94,3.25,3.25,0,0,0-3.18-2.53c-2.28,0-3.64,2-3.64,4.66,0,2.45,1.22,4.49,3.6,4.49a3.32,3.32,0,0,0,3.21-2.64,3.51,3.51,0,0,0,.11-.94Z"/><path d="M106.53,263.51l-.19-1.53h-.07a4.48,4.48,0,0,1-3.7,1.81,3.45,3.45,0,0,1-3.69-3.47c0-2.93,2.6-4.54,7.27-4.51v-.25a2.5,2.5,0,0,0-2.76-2.79,5.86,5.86,0,0,0-3.15.9l-.49-1.46a7.54,7.54,0,0,1,4-1.06c3.7,0,4.6,2.52,4.6,5v4.52a19.64,19.64,0,0,0,.18,2.89Zm-.34-6.17c-2.38,0-5.1.38-5.1,2.71a1.94,1.94,0,0,0,2,2.11,3,3,0,0,0,2.94-2,2.16,2.16,0,0,0,.11-.69Z"/><path d="M111.88,245.76h2.19v7.55h.05a4.28,4.28,0,0,1,1.58-1.55,4.4,4.4,0,0,1,2.25-.61c1.63,0,4.21,1,4.21,5.16v7.2H120v-7c0-2-.73-3.59-2.79-3.59a3.2,3.2,0,0,0-3,2.2,3,3,0,0,0-.14,1v7.3h-2.19Z"/><path d="M132.46,263.51l-.2-1.53h-.06a4.5,4.5,0,0,1-3.7,1.81,3.45,3.45,0,0,1-3.69-3.47c0-2.93,2.59-4.54,7.26-4.51v-.25a2.49,2.49,0,0,0-2.75-2.79,5.84,5.84,0,0,0-3.15.9l-.5-1.46a7.55,7.55,0,0,1,4-1.06c3.69,0,4.59,2.52,4.59,5v4.52a18.28,18.28,0,0,0,.19,2.89Zm-.35-6.17c-2.38,0-5.1.38-5.1,2.71a1.94,1.94,0,0,0,2,2.11,3,3,0,0,0,2.95-2,2.45,2.45,0,0,0,.1-.69Z"/><path d="M142.79,261.27a5.93,5.93,0,0,0,2.92.86c1.6,0,2.34-.79,2.34-1.8s-.63-1.61-2.24-2.21c-2.19-.79-3.22-2-3.21-3.43,0-1.94,1.58-3.54,4.18-3.54a5.85,5.85,0,0,1,3,.74l-.55,1.6a4.75,4.75,0,0,0-2.48-.71c-1.29,0-2,.75-2,1.66s.71,1.44,2.29,2.06c2.09.78,3.17,1.83,3.18,3.63,0,2.14-1.67,3.64-4.52,3.64a6.88,6.88,0,0,1-3.4-.84Z"/><path d="M163.94,257.35c0,4.48-3.1,6.44-6,6.44-3.28,0-5.81-2.39-5.81-6.23,0-4.05,2.66-6.41,6-6.41S163.94,253.67,163.94,257.35Zm-9.58.14c0,2.65,1.52,4.65,3.66,4.65s3.69-2,3.69-4.71c0-2.05-1-4.63-3.65-4.63S154.36,255.2,154.36,257.49Z"/><path d="M166.73,254.69c0-1.26,0-2.27-.1-3.27h1.94l.12,2h.06a4.48,4.48,0,0,1,4-2.26c1.66,0,4.26,1,4.26,5.15v7.21h-2.19v-7c0-2-.73-3.59-2.79-3.59a3.24,3.24,0,0,0-3.11,3.28v7.28h-2.19Z"/><path d="M180.6,255.19c0-1.43,0-2.65-.1-3.77h1.92l.09,2.37h.08a3.65,3.65,0,0,1,3.36-2.64,2.34,2.34,0,0,1,.61.06v2.07a3.21,3.21,0,0,0-.74-.07,3.08,3.08,0,0,0-2.95,2.82,6.49,6.49,0,0,0-.08,1v6.46H180.6Z"/><path d="M195.35,263.51l-.19-1.53h-.07a4.46,4.46,0,0,1-3.69,1.81,3.45,3.45,0,0,1-3.69-3.47c0-2.93,2.59-4.54,7.26-4.51v-.25a2.49,2.49,0,0,0-2.75-2.79,5.84,5.84,0,0,0-3.15.9l-.5-1.46a7.55,7.55,0,0,1,4-1.06c3.69,0,4.59,2.52,4.59,5v4.52a18.28,18.28,0,0,0,.19,2.89Zm-.34-6.17c-2.38,0-5.1.38-5.1,2.71a1.94,1.94,0,0,0,2.05,2.11,3,3,0,0,0,2.95-2,2.45,2.45,0,0,0,.1-.69Z"/><path d="M208.18,257h0c.3-.43.71-1,1.06-1.38l3.56-4.17h2.64l-4.67,5,5.33,7.12h-2.68l-4.16-5.81L208.18,259v4.55H206V245.76h2.18Z"/><path d="M224.88,263.51l-.19-1.53h-.07a4.48,4.48,0,0,1-3.7,1.81,3.45,3.45,0,0,1-3.69-3.47c0-2.93,2.59-4.54,7.26-4.51v-.25a2.49,2.49,0,0,0-2.75-2.79,5.86,5.86,0,0,0-3.15.9l-.5-1.46a7.57,7.57,0,0,1,4-1.06c3.7,0,4.6,2.52,4.6,5v4.52a19.64,19.64,0,0,0,.18,2.89Zm-.34-6.17c-2.38,0-5.11.38-5.11,2.71a1.94,1.94,0,0,0,2.06,2.11,3,3,0,0,0,2.94-2,2.16,2.16,0,0,0,.11-.69Z"/><path d="M230.22,255.19c0-1.43,0-2.65-.1-3.77h1.93l.08,2.37h.08a3.67,3.67,0,0,1,3.37-2.64,2.34,2.34,0,0,1,.61.06v2.07a3.36,3.36,0,0,0-.75-.07A3.07,3.07,0,0,0,232.5,256a5.45,5.45,0,0,0-.09,1v6.46h-2.19Z"/><path d="M245,263.51l-.19-1.53h-.07a4.48,4.48,0,0,1-3.7,1.81,3.45,3.45,0,0,1-3.69-3.47c0-2.93,2.59-4.54,7.26-4.51v-.25a2.49,2.49,0,0,0-2.75-2.79,5.86,5.86,0,0,0-3.15.9l-.5-1.46a7.57,7.57,0,0,1,4-1.06c3.7,0,4.6,2.52,4.6,5v4.52a19.64,19.64,0,0,0,.18,2.89Zm-.34-6.17c-2.38,0-5.11.38-5.11,2.71a1.94,1.94,0,0,0,2.06,2.11,3,3,0,0,0,2.94-2,2.16,2.16,0,0,0,.11-.69Z"/><path d="M250.32,255.19c0-1.43,0-2.65-.1-3.77h1.93l.08,2.37h.08a3.67,3.67,0,0,1,3.37-2.64,2.34,2.34,0,0,1,.61.06v2.07a3.36,3.36,0,0,0-.75-.07A3.07,3.07,0,0,0,252.6,256a5.45,5.45,0,0,0-.09,1v6.46h-2.19Z"/><path d="M264.65,251.42,267,258.2c.4,1.12.72,2.12,1,3.12h.06c.28-1,.63-2,1-3.12l2.37-6.78h2.3L269,263.51H266.9l-4.61-12.09Z"/><path d="M276.81,257.86c0,3,1.93,4.2,4.13,4.2a8.06,8.06,0,0,0,3.35-.62l.39,1.56a9.82,9.82,0,0,1-4,.77c-3.71,0-5.94-2.47-5.94-6.1s2.15-6.52,5.68-6.52c3.95,0,5,3.46,5,5.68a5.13,5.13,0,0,1-.08,1Zm6.43-1.58c0-1.38-.57-3.56-3-3.56-2.25,0-3.2,2-3.38,3.56Z"/><path d="M288.1,255.19c0-1.43,0-2.65-.1-3.77h1.92l.09,2.37h.07a3.67,3.67,0,0,1,3.37-2.64,2.34,2.34,0,0,1,.61.06v2.07a3.24,3.24,0,0,0-.75-.07,3.08,3.08,0,0,0-2.94,2.82,6.45,6.45,0,0,0-.09,1v6.46H288.1Z"/><path d="M297.26,257.86c0,3,1.93,4.2,4.13,4.2a8.06,8.06,0,0,0,3.35-.62l.39,1.56a9.82,9.82,0,0,1-4,.77c-3.71,0-5.94-2.47-5.94-6.1s2.15-6.52,5.68-6.52c3.95,0,5,3.46,5,5.68a5.13,5.13,0,0,1-.08,1Zm6.43-1.58c0-1.38-.57-3.56-3-3.56-2.25,0-3.2,2-3.38,3.56Z"/><path d="M317.17,263.07a8.23,8.23,0,0,1-3.47.7c-3.64,0-6-2.48-6-6.17a6.16,6.16,0,0,1,6.5-6.45,7,7,0,0,1,3.05.65l-.49,1.68a5.43,5.43,0,0,0-2.57-.58c-2.76,0-4.27,2.07-4.26,4.58,0,2.8,1.8,4.52,4.21,4.52a6.37,6.37,0,0,0,2.69-.58Z"/><path d="M320.83,257.86c0,3,1.93,4.2,4.14,4.2a8.13,8.13,0,0,0,3.35-.62l.38,1.56a9.76,9.76,0,0,1-4,.77c-3.72,0-5.95-2.47-5.95-6.1s2.16-6.52,5.69-6.52c3.94,0,5,3.46,5,5.68a5.29,5.29,0,0,1-.07,1Zm6.43-1.58c0-1.38-.56-3.56-3-3.56-2.24,0-3.2,2-3.37,3.56Z"/><path d="M334.31,257h.05c.29-.43.71-1,1.05-1.38l3.57-4.17h2.64l-4.67,5,5.32,7.12h-2.68l-4.16-5.81L334.31,259v4.55h-2.19V245.76h2.19Z"/><path d="M343.54,261.27a5.92,5.92,0,0,0,2.91.86c1.61,0,2.35-.79,2.35-1.8s-.64-1.61-2.24-2.21c-2.19-.79-3.22-2-3.22-3.43,0-1.94,1.59-3.54,4.19-3.54a5.91,5.91,0,0,1,3,.74l-.55,1.6a4.78,4.78,0,0,0-2.48-.71c-1.3,0-2,.75-2,1.66s.71,1.44,2.29,2.06c2.09.78,3.17,1.83,3.17,3.63,0,2.14-1.66,3.64-4.52,3.64a6.87,6.87,0,0,1-3.39-.84Z"/><path d="M356.21,248a1.33,1.33,0,0,1-1.4,1.36,1.31,1.31,0,0,1-1.33-1.36,1.34,1.34,0,0,1,1.37-1.37A1.32,1.32,0,0,1,356.21,248Zm-2.46,15.5V251.42h2.19v12.09Z"/><path d="M359.6,254.69c0-1.26,0-2.27-.1-3.27h1.94l.12,2h.07a4.46,4.46,0,0,1,4-2.26c1.66,0,4.26,1,4.26,5.15v7.21H367.7v-7c0-2-.74-3.59-2.8-3.59a3.16,3.16,0,0,0-3,2.26,3.48,3.48,0,0,0-.15,1v7.28H359.6Z"/><path d="M373,262.22a1.49,1.49,0,0,1,1.49-1.59,1.58,1.58,0,1,1-1.49,1.59Z"/><rect class="cls-1" x="60.3" y="72.99" width="18.7" height="18.7" rx="4"/><rect class="cls-2" x="60.3" y="72.99" width="18.7" height="18.7" rx="4"/><rect class="cls-1" x="60.3" y="111.67" width="18.7" height="18.7" rx="4"/><rect class="cls-2" x="60.3" y="111.67" width="18.7" height="18.7" rx="4"/><line class="cls-3" x1="56" y1="63" x2="258" y2="63"/><line class="cls-3" x1="56" y1="101.68" x2="258" y2="101.68"/><line class="cls-3" x1="56" y1="140.92" x2="258" y2="140.92"/><text class="cls-4" transform="translate(117.38 90.06)">SNT 102E</text><text class="cls-4" transform="translate(117.38 128.74)">SNT 103E</text><path class="cls-5" d="M400.58,46.93a60,60,0,0,0-99,36.8,60.47,60.47,0,0,0,6.64,36.79,1.76,1.76,0,0,0,1.55.93,1.66,1.66,0,0,0,.83-.22,1.75,1.75,0,0,0,.71-2.38A56.91,56.91,0,0,1,305,84.21a56.48,56.48,0,0,1,93.23-34.64,1.76,1.76,0,0,0,2.32-2.64Z"/><path class="cls-5" d="M406.05,52.4a1.76,1.76,0,0,0-2.64,2.33,56.48,56.48,0,0,1-27.31,91.71,56.89,56.89,0,0,1-26.58.87,5.69,5.69,0,0,0,.06-.83,5.45,5.45,0,0,0-.77-2.8,5.51,5.51,0,0,0,2.65-4.71,5.46,5.46,0,0,0-.77-2.81,5.51,5.51,0,0,0,2.65-4.71,5.35,5.35,0,0,0-.38-2h15.53a5.52,5.52,0,1,0,0-11H334.67a3.88,3.88,0,0,1-3.88-3.88V103.27a5.52,5.52,0,1,0-11,0v9.2a9.56,9.56,0,0,1-2.08,5.94l-1.76,2.19a16.88,16.88,0,0,0-3.68,10.49V139a13.05,13.05,0,0,0,13,13h18.79a5.51,5.51,0,0,0,3.74-1.47A59.77,59.77,0,0,0,361,152a59.81,59.81,0,0,0,42.42-17.57,60,60,0,0,0,2.64-82ZM345.94,141h-1.87a1.76,1.76,0,1,0,0,3.51,2,2,0,0,1,0,4H325.28a9.52,9.52,0,0,1-9.52-9.51v-7.88a13.29,13.29,0,0,1,2.91-8.29l1.75-2.19a13.12,13.12,0,0,0,2.86-8.14v-9.2a2,2,0,1,1,4,0v11.27a7.4,7.4,0,0,0,7.39,7.4h33.82a2,2,0,0,1,0,4H347.82a1.76,1.76,0,0,0,0,3.51,2,2,0,0,1,0,4h-1.88a1.76,1.76,0,0,0,0,3.52,2,2,0,0,1,0,4Z"/><path class="cls-5" d="M343,72.46A1.77,1.77,0,0,0,341.05,74l-.28,2.8a2.93,2.93,0,0,1-3.21,2.64,3,3,0,0,1-2.64-3.22l.37-3.74a3,3,0,0,1,3.22-2.63,1.76,1.76,0,0,0,.34-3.5,6.47,6.47,0,0,0-7.06,5.79l-.36,3.74A6.46,6.46,0,0,0,337.22,83c.21,0,.43,0,.64,0a6.47,6.47,0,0,0,6.41-5.82l.28-2.81A1.75,1.75,0,0,0,343,72.46Z"/><path class="cls-5" d="M382.24,76.33a1.75,1.75,0,0,0-1.92,1.57L380,80.71a2.94,2.94,0,1,1-5.85-.58l.37-3.74a2.93,2.93,0,0,1,3.21-2.63,1.76,1.76,0,1,0,.35-3.5,6.45,6.45,0,0,0-7.06,5.79l-.37,3.74a6.47,6.47,0,0,0,5.79,7.06l.65,0a6.47,6.47,0,0,0,6.41-5.83l.28-2.8A1.75,1.75,0,0,0,382.24,76.33Z"/><path class="cls-5" d="M371.16,107.34c-.55-.29-13.8-6.89-29-7.24a1.76,1.76,0,0,0-.08,3.52c14.39.33,27.38,6.79,27.51,6.85a1.7,1.7,0,0,0,.79.19,1.75,1.75,0,0,0,.79-3.32Z"/><path class="cls-5" d="M347,60.56c-.42-.34-10.41-8.15-22.55-2.08a1.76,1.76,0,1,0,1.57,3.14c10.08-5,18.42,1.4,18.79,1.69a1.76,1.76,0,0,0,2.47-.28A1.76,1.76,0,0,0,347,60.56Z"/><path class="cls-5" d="M392.76,61.59a1.75,1.75,0,0,0-2.07-1.38L371.91,64a1.76,1.76,0,0,0,.34,3.48,1.32,1.32,0,0,0,.34,0l18.79-3.76A1.75,1.75,0,0,0,392.76,61.59Z"/></svg>