<svg id="Layer_1" data-name="Layer 1" xmlns="http://www.w3.org/2000/svg" viewBox="0 0 460 310"><defs><style>.cls-1{fill:#999;stroke:#999;stroke-miterlimit:10;}</style></defs><title>tutorial-create-1</title><line class="cls-1" x1="93" y1="62" x2="372" y2="62"/><line class="cls-1" x1="93" y1="100.68" x2="372" y2="100.68"/><line class="cls-1" x1="93" y1="139.92" x2="372" y2="139.92"/><line class="cls-1" x1="93.6" y1="139.5" x2="93.6" y2="61.5"/><line class="cls-1" x1="186.2" y1="140" x2="186.2" y2="62"/><line class="cls-1" x1="278.8" y1="139" x2="278.8" y2="61"/><line class="cls-1" x1="371.4" y1="140" x2="371.4" y2="62"/><path d="M28.73,187.49v10c0,3.75,1.67,5.35,3.94,5.35,2.48,0,4.1-1.65,4.1-5.35v-10H39v9.83c0,5.18-2.72,7.29-6.38,7.29-3.44,0-6-2-6-7.19v-9.93Zm.53-2.44a1.25,1.25,0,0,1,1.25-1.26,1.27,1.27,0,0,1,0,2.53A1.23,1.23,0,0,1,29.26,185.05Zm4.65,0a1.23,1.23,0,0,1,1.23-1.26,1.27,1.27,0,1,1-1.23,1.26Z"/><path d="M42.21,202.1a6,6,0,0,0,2.91.86c1.6,0,2.35-.79,2.35-1.8s-.64-1.61-2.25-2.21C43,198.16,42,197,42,195.52c0-2,1.58-3.54,4.18-3.54a5.85,5.85,0,0,1,3,.74l-.54,1.6a4.81,4.81,0,0,0-2.48-.71c-1.3,0-2,.74-2,1.65s.71,1.45,2.3,2.07c2.08.77,3.16,1.82,3.17,3.63,0,2.14-1.66,3.64-4.52,3.64a6.91,6.91,0,0,1-3.4-.84Z"/><path d="M55.06,188.77v3.48h3.15v1.67H55.06v6.51c0,1.51.43,2.36,1.66,2.36a4.31,4.31,0,0,0,1.27-.16l.1,1.67a5.54,5.54,0,0,1-2,.3,3.05,3.05,0,0,1-2.37-.93,4.6,4.6,0,0,1-.86-3.15v-6.6H51v-1.67H52.9v-2.91Z"/><path d="M68.17,197.79h0c.3-.42.71-1,1.06-1.37l3.56-4.17h2.64l-4.67,5,5.32,7.12H73.46l-4.16-5.81-1.13,1.26v4.55H66V186.59h2.18Z"/><path d="M78.14,204.34V192.25h2.19v12.09Z"/><path d="M83.68,202.1a6,6,0,0,0,2.91.86c1.61,0,2.35-.79,2.35-1.8s-.64-1.61-2.24-2.21c-2.19-.79-3.22-2-3.22-3.43,0-2,1.59-3.54,4.19-3.54a5.85,5.85,0,0,1,3,.74l-.55,1.6a4.75,4.75,0,0,0-2.48-.71c-1.3,0-2,.74-2,1.65s.71,1.45,2.29,2.07c2.09.77,3.17,1.82,3.17,3.63,0,2.14-1.66,3.64-4.52,3.64a6.87,6.87,0,0,1-3.39-.84Z"/><path d="M93.89,204.34V192.25h2.19v12.09Z"/><path d="M99.74,195.52c0-1.27,0-2.27-.1-3.27h1.91l.12,1.95h.06a4.17,4.17,0,0,1,3.81-2.22A3.55,3.55,0,0,1,109,194.4h0a4.86,4.86,0,0,1,1.37-1.57A4.1,4.1,0,0,1,113,192c1.61,0,4,1,4,5.24v7.12h-2.15V197.5c0-2.34-.86-3.73-2.62-3.73a2.88,2.88,0,0,0-2.62,2,3.79,3.79,0,0,0-.18,1.11v7.48h-2.14v-7.26c0-1.92-.86-3.31-2.52-3.31a3.05,3.05,0,0,0-2.74,2.2,3.71,3.71,0,0,0-.16,1.08v7.29H99.74Z"/><path d="M131,186.59v14.63c0,1.07,0,2.28.1,3.12h-2l-.11-2.09H129a4.43,4.43,0,0,1-4.1,2.36c-2.93,0-5.19-2.47-5.19-6.14,0-4,2.49-6.49,5.43-6.49a4,4,0,0,1,3.65,1.83h.05v-7.22Zm-2.18,10.58a5,5,0,0,0-.09-.94,3.26,3.26,0,0,0-3.19-2.53c-2.27,0-3.64,2-3.64,4.65,0,2.46,1.23,4.5,3.6,4.5a3.32,3.32,0,0,0,3.21-2.64,3.54,3.54,0,0,0,.11-1Z"/><path d="M141.39,204.34l-.19-1.53h-.07a4.48,4.48,0,0,1-3.69,1.8,3.45,3.45,0,0,1-3.7-3.47c0-2.92,2.6-4.53,7.27-4.5v-.26a2.49,2.49,0,0,0-2.76-2.78,5.8,5.8,0,0,0-3.14.9l-.5-1.46a7.55,7.55,0,0,1,4-1.06c3.69,0,4.59,2.52,4.59,4.94v4.53a18.28,18.28,0,0,0,.19,2.89Zm-.34-6.17c-2.38,0-5.1.37-5.1,2.71A1.93,1.93,0,0,0,138,203a3,3,0,0,0,2.95-2,2.45,2.45,0,0,0,.1-.69Z"/><path d="M152,196.19c0-1.54,0-2.8-.1-3.94h2l.12,2.06h0a4.73,4.73,0,0,1,4.29-2.33c2.93,0,5.13,2.46,5.13,6.13,0,4.36-2.66,6.5-5.49,6.5a4.22,4.22,0,0,1-3.73-1.9h-.05v6.58H152Zm2.18,3.23a3.68,3.68,0,0,0,.1.89,3.36,3.36,0,0,0,3.28,2.58c2.33,0,3.68-1.91,3.68-4.68,0-2.41-1.27-4.49-3.59-4.49a3.5,3.5,0,0,0-3.33,2.71,4,4,0,0,0-.14.9Z"/><path d="M166.26,196c0-1.42,0-2.64-.1-3.76h1.93l.08,2.37h.08a3.66,3.66,0,0,1,3.37-2.64,2.38,2.38,0,0,1,.61.06v2.07a3.36,3.36,0,0,0-.75-.07,3.06,3.06,0,0,0-2.94,2.81,5.56,5.56,0,0,0-.09,1v6.46h-2.19Z"/><path d="M185.13,198.18c0,4.47-3.1,6.43-6,6.43-3.28,0-5.81-2.39-5.81-6.22,0-4,2.66-6.41,6-6.41S185.13,194.5,185.13,198.18Zm-9.58.14c0,2.65,1.52,4.65,3.66,4.65s3.68-2,3.68-4.72c0-2-1-4.63-3.64-4.63S175.55,196,175.55,198.32Z"/><path d="M198.37,192.25c-.06.85-.1,1.84-.1,3.31v7c0,2.8-.57,4.47-1.73,5.53a6.48,6.48,0,0,1-4.4,1.45,7.88,7.88,0,0,1-4-1l.55-1.69a6.86,6.86,0,0,0,3.56,1c2.25,0,3.9-1.17,3.9-4.23v-1.35h-.05a4.29,4.29,0,0,1-3.85,2c-3,0-5.15-2.57-5.15-5.92,0-4.09,2.67-6.4,5.46-6.4a4,4,0,0,1,3.77,2.08h.05l.09-1.81ZM196.08,197a3.42,3.42,0,0,0-.12-1,3.17,3.17,0,0,0-3.09-2.34c-2.09,0-3.6,1.78-3.6,4.59,0,2.36,1.23,4.35,3.58,4.35a3.21,3.21,0,0,0,3.06-2.27,3.76,3.76,0,0,0,.17-1.17Z"/><path d="M201.76,196c0-1.42,0-2.64-.1-3.76h1.93l.08,2.37h.08a3.66,3.66,0,0,1,3.37-2.64,2.38,2.38,0,0,1,.61.06v2.07A3.36,3.36,0,0,0,207,194a3.06,3.06,0,0,0-2.94,2.81,5.56,5.56,0,0,0-.09,1v6.46h-2.19Z"/><path d="M216.52,204.34l-.2-1.53h-.06a4.52,4.52,0,0,1-3.7,1.8,3.45,3.45,0,0,1-3.69-3.47c0-2.92,2.59-4.53,7.26-4.5v-.26a2.48,2.48,0,0,0-2.75-2.78,5.84,5.84,0,0,0-3.15.9l-.5-1.46a7.57,7.57,0,0,1,4-1.06c3.7,0,4.6,2.52,4.6,4.94v4.53a18.35,18.35,0,0,0,.18,2.89Zm-.35-6.17c-2.37,0-5.1.37-5.1,2.71a1.94,1.94,0,0,0,2.06,2.1,3,3,0,0,0,2.94-2,2.14,2.14,0,0,0,.1-.69Z"/><path d="M221.86,195.52c0-1.27,0-2.27-.1-3.27h1.91l.12,1.95h.06a4.17,4.17,0,0,1,3.82-2.22,3.55,3.55,0,0,1,3.41,2.42h0a4.73,4.73,0,0,1,1.36-1.57,4.12,4.12,0,0,1,2.66-.85c1.61,0,4,1,4,5.24v7.12H237V197.5c0-2.34-.86-3.73-2.62-3.73a2.88,2.88,0,0,0-2.62,2,3.79,3.79,0,0,0-.18,1.11v7.48h-2.14v-7.26c0-1.92-.85-3.31-2.51-3.31a3,3,0,0,0-2.74,2.2,3.4,3.4,0,0,0-.17,1.08v7.29h-2.15Z"/><path d="M242.71,204.34V192.25h2.19v12.09Z"/><path d="M248.56,195.52c0-1.27,0-2.27-.1-3.27h1.95l.12,2h.06a4.45,4.45,0,0,1,4-2.26c1.66,0,4.26,1,4.26,5.15v7.21h-2.19v-7c0-2-.74-3.59-2.79-3.59a3.17,3.17,0,0,0-3,2.25,3.48,3.48,0,0,0-.15,1v7.29h-2.19Z"/><path d="M262.44,204.34V192.25h2.19v12.09Z"/><path d="M268.29,195.52c0-1.27,0-2.27-.1-3.27h1.94l.12,2h.06a4.46,4.46,0,0,1,4-2.26c1.66,0,4.26,1,4.26,5.15v7.21h-2.19v-7c0-2-.73-3.59-2.79-3.59a3.16,3.16,0,0,0-3,2.25,3.48,3.48,0,0,0-.15,1v7.29h-2.19Z"/><path d="M287.15,202.1a6.07,6.07,0,0,0,2.92.86c1.6,0,2.35-.79,2.35-1.8s-.64-1.61-2.25-2.21c-2.18-.79-3.22-2-3.21-3.43,0-2,1.58-3.54,4.18-3.54a5.85,5.85,0,0,1,3,.74l-.55,1.6a4.75,4.75,0,0,0-2.48-.71c-1.29,0-2,.74-2,1.65s.71,1.45,2.3,2.07c2.08.77,3.16,1.82,3.17,3.63,0,2.14-1.67,3.64-4.52,3.64a6.88,6.88,0,0,1-3.4-.84Z"/><path d="M308.3,198.18c0,4.47-3.1,6.43-6,6.43-3.28,0-5.81-2.39-5.81-6.22,0-4,2.66-6.41,6-6.41S308.3,194.5,308.3,198.18Zm-9.58.14c0,2.65,1.52,4.65,3.66,4.65s3.69-2,3.69-4.72c0-2-1-4.63-3.65-4.63S298.72,196,298.72,198.32Z"/><path d="M311.09,195.52c0-1.27,0-2.27-.1-3.27h1.94l.12,2h.06a4.46,4.46,0,0,1,4-2.26c1.66,0,4.26,1,4.26,5.15v7.21h-2.19v-7c0-2-.73-3.59-2.79-3.59a3.16,3.16,0,0,0-3,2.25,3.48,3.48,0,0,0-.15,1v7.29h-2.19Z"/><path d="M340.7,186.59v14.63c0,1.07,0,2.28.09,3.12h-2l-.11-2.09h-.06a4.43,4.43,0,0,1-4.1,2.36c-2.93,0-5.19-2.47-5.19-6.14,0-4,2.49-6.49,5.43-6.49a4,4,0,0,1,3.65,1.83h.05v-7.22Zm-2.19,10.58a5,5,0,0,0-.09-.94,3.25,3.25,0,0,0-3.19-2.53c-2.27,0-3.63,2-3.63,4.65,0,2.46,1.22,4.5,3.59,4.5a3.32,3.32,0,0,0,3.21-2.64,3.54,3.54,0,0,0,.11-1Z"/><path d="M354.47,201c0,1.27,0,2.35.1,3.31h-1.94l-.12-2h-.06a4.52,4.52,0,0,1-4,2.25c-1.89,0-4.16-1.06-4.16-5.29v-7.07h2.18v6.68c0,2.3.72,3.87,2.7,3.87a3.18,3.18,0,0,0,2.91-2,3.25,3.25,0,0,0,.2-1.13v-7.4h2.19Z"/><path d="M358.13,196c0-1.42,0-2.64-.1-3.76H360l.08,2.37h.08a3.67,3.67,0,0,1,3.37-2.64,2.34,2.34,0,0,1,.61.06v2.07a3.3,3.3,0,0,0-.75-.07,3.07,3.07,0,0,0-2.94,2.81,5.56,5.56,0,0,0-.09,1v6.46h-2.19Z"/><path d="M376.37,201c0,1.27,0,2.35.1,3.31h-1.94l-.12-2h-.06a4.53,4.53,0,0,1-4,2.25c-1.89,0-4.16-1.06-4.16-5.29v-7.07h2.18v6.68c0,2.3.72,3.87,2.7,3.87a3.18,3.18,0,0,0,2.91-2,3.25,3.25,0,0,0,.2-1.13v-7.4h2.19Z"/><path d="M380,195.52c0-1.27,0-2.27-.1-3.27h1.91l.11,1.95H382a4.18,4.18,0,0,1,3.82-2.22,3.55,3.55,0,0,1,3.41,2.42h.05a4.73,4.73,0,0,1,1.36-1.57,4.12,4.12,0,0,1,2.66-.85c1.61,0,4,1,4,5.24v7.12h-2.14V197.5c0-2.34-.87-3.73-2.63-3.73a2.87,2.87,0,0,0-2.61,2,3.49,3.49,0,0,0-.18,1.11v7.48H387.6v-7.26c0-1.92-.85-3.31-2.51-3.31a3,3,0,0,0-2.74,2.2,3.4,3.4,0,0,0-.17,1.08v7.29H380Z"/><path d="M411,201c0,1.27,0,2.35.1,3.31h-2l-.11-2H409a4.5,4.5,0,0,1-4,2.25c-1.89,0-4.16-1.06-4.16-5.29v-7.07H403v6.68c0,2.3.72,3.87,2.7,3.87a3.21,3.21,0,0,0,2.91-2,3.51,3.51,0,0,0,.2-1.13v-7.4H411Z"/><path d="M414.66,195.52c0-1.27,0-2.27-.1-3.27h1.94l.13,2h.06a4.44,4.44,0,0,1,4-2.26c1.66,0,4.26,1,4.26,5.15v7.21h-2.18v-7c0-2-.74-3.59-2.8-3.59a3.16,3.16,0,0,0-3,2.25,3.48,3.48,0,0,0-.15,1v7.29h-2.19Z"/><path d="M438.64,201c0,1.27.05,2.35.11,3.31H436.8l-.11-2h-.07a4.5,4.5,0,0,1-4,2.25c-1.89,0-4.16-1.06-4.16-5.29v-7.07h2.19v6.68c0,2.3.72,3.87,2.7,3.87a3.21,3.21,0,0,0,2.91-2,3.51,3.51,0,0,0,.2-1.13v-7.4h2.18Z"/><path d="M55.25,222.25c-.06.85-.1,1.84-.1,3.31v7c0,2.8-.57,4.47-1.73,5.53a6.5,6.5,0,0,1-4.4,1.45,7.85,7.85,0,0,1-4-1l.55-1.69a6.86,6.86,0,0,0,3.56,1c2.25,0,3.89-1.17,3.89-4.23v-1.35h0a4.27,4.27,0,0,1-3.84,2c-3,0-5.15-2.57-5.15-5.92,0-4.09,2.67-6.4,5.46-6.4a4,4,0,0,1,3.77,2.08h0l.09-1.81ZM53,227a3.42,3.42,0,0,0-.12-1,3.18,3.18,0,0,0-3.09-2.34c-2.09,0-3.6,1.78-3.6,4.59,0,2.36,1.22,4.35,3.58,4.35a3.21,3.21,0,0,0,3.06-2.27,3.76,3.76,0,0,0,.17-1.17Z"/><path d="M69.73,228.18c0,4.47-3.1,6.43-6,6.43-3.28,0-5.81-2.39-5.81-6.22,0-4,2.66-6.41,6-6.41S69.73,224.5,69.73,228.18Zm-9.58.14c0,2.65,1.52,4.65,3.66,4.65s3.69-2,3.69-4.72c0-2-1-4.63-3.65-4.63S60.15,226,60.15,228.32Zm.1-9.5a1.28,1.28,0,0,1,1.28-1.28,1.28,1.28,0,0,1,0,2.55A1.24,1.24,0,0,1,60.25,218.82Zm4.64,0a1.26,1.26,0,0,1,1.26-1.28,1.28,1.28,0,1,1-1.26,1.28Z"/><path d="M72.51,226c0-1.42,0-2.64-.1-3.76h1.93l.08,2.37h.08A3.67,3.67,0,0,1,77.87,222a2.34,2.34,0,0,1,.61.06v2.07a3.36,3.36,0,0,0-.75-.07,3.07,3.07,0,0,0-2.94,2.81,5.56,5.56,0,0,0-.09,1v6.46H72.51Z"/><path d="M81.67,228.69c0,3,1.93,4.2,4.14,4.2a8.09,8.09,0,0,0,3.35-.62l.38,1.56a9.76,9.76,0,0,1-4,.77c-3.71,0-6-2.47-6-6.1S81.72,222,85.25,222c3.94,0,5,3.46,5,5.68a5.36,5.36,0,0,1-.07,1Zm6.44-1.58c0-1.39-.57-3.56-3-3.56-2.25,0-3.2,2-3.38,3.56Z"/><path d="M92.86,234.34c.06-.83.1-2.05.1-3.12V216.59h2.19v7.6h0A4.46,4.46,0,0,1,99.32,222c3,0,5.11,2.49,5.1,6.15,0,4.34-2.74,6.48-5.44,6.48a4.35,4.35,0,0,1-4-2.26h-.06l-.11,2Zm2.29-4.85a3.5,3.5,0,0,0,.09.8,3.38,3.38,0,0,0,3.3,2.57c2.31,0,3.67-1.87,3.67-4.64,0-2.43-1.26-4.51-3.61-4.51a3.68,3.68,0,0,0-3.45,3.61Z"/><path d="M109.65,218.83a1.37,1.37,0,1,1-2.73,0,1.35,1.35,0,0,1,1.37-1.37A1.33,1.33,0,0,1,109.65,218.83Zm-2.46,15.51V222.25h2.19v12.09Z"/><path d="M113,216.59h2.19v17.75H113Z"/><path d="M120.17,228.69c0,3,1.93,4.2,4.14,4.2a8.13,8.13,0,0,0,3.35-.62l.38,1.56a9.76,9.76,0,0,1-4,.77c-3.72,0-6-2.47-6-6.1s2.16-6.52,5.69-6.52c3.94,0,5,3.46,5,5.68a5.36,5.36,0,0,1-.07,1Zm6.44-1.58c0-1.39-.57-3.56-3-3.56-2.24,0-3.19,2-3.37,3.56Z"/><path d="M140.09,233.9a8.43,8.43,0,0,1-3.47.7c-3.65,0-6-2.48-6-6.18a6.15,6.15,0,0,1,6.49-6.44,7.22,7.22,0,0,1,3.06.64l-.49,1.69a5.43,5.43,0,0,0-2.57-.58c-2.76,0-4.27,2.07-4.27,4.58,0,2.8,1.8,4.52,4.21,4.52a6.37,6.37,0,0,0,2.69-.58Z"/><path d="M143.75,228.69c0,3,1.93,4.2,4.13,4.2a8.06,8.06,0,0,0,3.35-.62l.39,1.56a9.82,9.82,0,0,1-4,.77c-3.71,0-5.94-2.47-5.94-6.1s2.15-6.52,5.68-6.52c4,0,5,3.46,5,5.68a5.2,5.2,0,0,1-.08,1Zm6.43-1.58c0-1.39-.57-3.56-3-3.56-2.25,0-3.2,2-3.38,3.56Z"/><path d="M165.46,222.24c-.05.88-.1,1.85-.1,3.33v7c0,2.77-.55,4.47-1.72,5.52a6.43,6.43,0,0,1-4.4,1.45,7.84,7.84,0,0,1-4-1l.55-1.67a6.82,6.82,0,0,0,3.55,1c2.25,0,3.9-1.18,3.9-4.23v-1.35h-.05a4.3,4.3,0,0,1-3.85,2c-3,0-5.15-2.55-5.15-5.9,0-4.1,2.68-6.42,5.45-6.42a4,4,0,0,1,3.78,2.1h.05l.1-1.83ZM163.19,227a3.23,3.23,0,0,0-3.2-3.32c-2.1,0-3.6,1.77-3.6,4.57,0,2.38,1.2,4.35,3.57,4.35a3.21,3.21,0,0,0,3-2.25,3.66,3.66,0,0,0,.18-1.17Zm-5-9.72A1.83,1.83,0,0,0,160,219a1.77,1.77,0,0,0,1.8-1.73h1.3a3.1,3.1,0,0,1-6.2,0Z"/><path d="M171.47,218.83a1.36,1.36,0,1,1-2.72,0,1.34,1.34,0,0,1,1.37-1.37A1.31,1.31,0,0,1,171.47,218.83ZM169,234.34V222.25h2.18v12.09Z"/><path d="M174.87,225.52c0-1.27,0-2.27-.1-3.27h1.94l.12,2h.06a4.46,4.46,0,0,1,4-2.26c1.66,0,4.26,1,4.26,5.15v7.21H183v-7c0-2-.74-3.59-2.79-3.59a3.26,3.26,0,0,0-3.12,3.27v7.29h-2.18Z"/><path d="M193.94,234.34c.06-.83.1-2.05.1-3.12V216.59h2.18v7.6h.05a4.46,4.46,0,0,1,4.12-2.21c3,0,5.12,2.49,5.11,6.15,0,4.34-2.75,6.48-5.45,6.48a4.36,4.36,0,0,1-4.05-2.26h-.06l-.11,2Zm2.28-4.85a3.5,3.5,0,0,0,.09.8,3.39,3.39,0,0,0,3.3,2.57c2.31,0,3.67-1.87,3.67-4.64,0-2.43-1.25-4.51-3.61-4.51a3.68,3.68,0,0,0-3.45,3.61Z"/><path d="M210.72,218.83a1.33,1.33,0,0,1-1.4,1.37,1.31,1.31,0,0,1-1.32-1.37,1.34,1.34,0,0,1,1.36-1.37A1.32,1.32,0,0,1,210.72,218.83Zm-2.45,15.51V222.25h2.18v12.09Z"/><path d="M214.11,226c0-1.42,0-2.64-.1-3.76h1.93l.08,2.37h.08a3.66,3.66,0,0,1,3.37-2.64,2.38,2.38,0,0,1,.61.06v2.07a3.36,3.36,0,0,0-.75-.07,3.07,3.07,0,0,0-2.94,2.81,5.56,5.56,0,0,0-.09,1v6.46h-2.19Z"/><path d="M227.59,216.59h2.19v7.55h.05a4.28,4.28,0,0,1,1.58-1.55,4.42,4.42,0,0,1,2.25-.61c1.63,0,4.21,1,4.21,5.16v7.2h-2.19v-7c0-1.95-.73-3.59-2.79-3.59a3.21,3.21,0,0,0-3,2.19,3.11,3.11,0,0,0-.14,1.05v7.31h-2.19Z"/><path d="M248.17,234.34l-.2-1.53h-.06a4.52,4.52,0,0,1-3.7,1.8,3.45,3.45,0,0,1-3.69-3.47c0-2.92,2.59-4.53,7.26-4.5v-.26A2.48,2.48,0,0,0,245,223.6a5.84,5.84,0,0,0-3.15.9l-.5-1.46a7.57,7.57,0,0,1,4-1.06c3.7,0,4.6,2.52,4.6,4.94v4.53a18.35,18.35,0,0,0,.18,2.89Zm-.34-6.17c-2.38,0-5.11.37-5.11,2.71a1.94,1.94,0,0,0,2.06,2.1,3,3,0,0,0,2.94-2,2.16,2.16,0,0,0,.11-.69Z"/><path d="M253.73,234.34V223.92H252v-1.67h1.69v-.58a5.81,5.81,0,0,1,1.4-4.24,4.25,4.25,0,0,1,2.94-1.11,4.72,4.72,0,0,1,1.88.35l-.29,1.69a3.33,3.33,0,0,0-1.41-.28c-1.86,0-2.34,1.65-2.34,3.52v.65h2.92v1.67h-2.91v10.42Z"/><path d="M263.73,218.77v3.48h3.16v1.67h-3.16v6.51c0,1.51.43,2.36,1.66,2.36a4.31,4.31,0,0,0,1.27-.16l.1,1.67a5.54,5.54,0,0,1-2,.3,3.05,3.05,0,0,1-2.37-.93,4.6,4.6,0,0,1-.86-3.15v-6.6H259.7v-1.67h1.87v-2.91Z"/><path d="M276.07,234.34l-.2-1.53h-.06a4.52,4.52,0,0,1-3.7,1.8,3.45,3.45,0,0,1-3.69-3.47c0-2.92,2.59-4.53,7.26-4.5v-.26a2.48,2.48,0,0,0-2.75-2.78,5.84,5.84,0,0,0-3.15.9l-.5-1.46a7.57,7.57,0,0,1,4-1.06c3.7,0,4.6,2.52,4.6,4.94v4.53a18.35,18.35,0,0,0,.18,2.89Zm-.35-6.17c-2.37,0-5.1.37-5.1,2.71a1.93,1.93,0,0,0,2.05,2.1,3,3,0,0,0,2.95-2,2.14,2.14,0,0,0,.1-.69Z"/><path d="M281.41,216.59h2.19v17.75h-2.19Z"/><path d="M287.31,234.34V222.25h2.19v12.09Z"/><path d="M295.34,227.79h.05c.3-.42.71-1,1.06-1.37l3.56-4.17h2.64l-4.67,5,5.33,7.12h-2.68l-4.16-5.81-1.13,1.26v4.55h-2.18V216.59h2.18Z"/><path d="M318.81,233.9a8.39,8.39,0,0,1-3.47.7c-3.65,0-6-2.48-6-6.18A6.15,6.15,0,0,1,315.8,222a7.22,7.22,0,0,1,3.06.64l-.49,1.69a5.43,5.43,0,0,0-2.57-.58c-2.76,0-4.27,2.07-4.27,4.58,0,2.8,1.8,4.52,4.22,4.52a6.41,6.41,0,0,0,2.69-.58Zm-3,.38-.82,1.31a1.85,1.85,0,0,1,1.75,1.73c0,1.47-1.21,2-2.61,2a3.43,3.43,0,0,1-1.7-.44l.38-1.06a2.76,2.76,0,0,0,1.35.36c.55,0,1.08-.2,1.07-.79s-.77-.94-1.95-1l1.18-2.09Z"/><path d="M323.84,218.83a1.36,1.36,0,1,1-2.72,0,1.34,1.34,0,0,1,1.37-1.37A1.31,1.31,0,0,1,323.84,218.83Zm-2.45,15.51V222.25h2.19v12.09Z"/><path d="M325.86,233.06l5.47-7.11c.54-.67,1-1.25,1.59-1.89V224h-6.57v-1.76h9.23v1.37l-5.4,7c-.52.65-1,1.27-1.56,1.88v.05h7.06v1.76h-9.81Z"/><path d="M339,228.69c.05,3,1.93,4.2,4.14,4.2a8.09,8.09,0,0,0,3.35-.62l.38,1.56a9.76,9.76,0,0,1-4,.77c-3.71,0-5.95-2.47-5.95-6.1S339,222,342.57,222c3.94,0,5,3.46,5,5.68a5.36,5.36,0,0,1-.07,1Zm6.44-1.58c0-1.39-.57-3.56-3-3.56-2.24,0-3.19,2-3.37,3.56Z"/><path d="M350.29,216.59h2.19v17.75h-2.19Z"/><path d="M366.62,222.25c-.06.85-.1,1.84-.1,3.31v7c0,2.8-.57,4.47-1.73,5.53a6.5,6.5,0,0,1-4.4,1.45,7.83,7.83,0,0,1-4-1l.55-1.69a6.86,6.86,0,0,0,3.56,1c2.25,0,3.89-1.17,3.89-4.23v-1.35h-.05a4.27,4.27,0,0,1-3.84,2c-3,0-5.15-2.57-5.15-5.92,0-4.09,2.66-6.4,5.46-6.4a4,4,0,0,1,3.77,2.08h0l.09-1.81ZM364.33,227a3.42,3.42,0,0,0-.12-1,3.19,3.19,0,0,0-3.09-2.34c-2.09,0-3.6,1.78-3.6,4.59,0,2.36,1.22,4.35,3.58,4.35a3.22,3.22,0,0,0,3.06-2.27,3.76,3.76,0,0,0,.17-1.17Z"/><path d="M371.39,228.69c.05,3,1.93,4.2,4.14,4.2a8.13,8.13,0,0,0,3.35-.62l.38,1.56a9.76,9.76,0,0,1-4,.77c-3.72,0-6-2.47-6-6.1S371.44,222,375,222c3.94,0,5,3.46,5,5.68a5.36,5.36,0,0,1-.07,1Zm6.44-1.58c0-1.39-.57-3.56-3-3.56-2.24,0-3.2,2-3.37,3.56Z"/><path d="M388.83,222.25,391.2,229c.41,1.12.72,2.12,1,3.12h.07c.28-1,.62-2,1-3.12l2.37-6.78h2.3l-4.76,12.09h-2.1l-4.6-12.09Z"/><path d="M406.61,234.34l-.19-1.53h-.07a4.48,4.48,0,0,1-3.69,1.8,3.45,3.45,0,0,1-3.7-3.47c0-2.92,2.6-4.53,7.27-4.5v-.26a2.48,2.48,0,0,0-2.75-2.78,5.84,5.84,0,0,0-3.15.9l-.5-1.46a7.55,7.55,0,0,1,4-1.06c3.69,0,4.59,2.52,4.59,4.94v4.53a18.28,18.28,0,0,0,.19,2.89Zm-.34-6.17c-2.38,0-5.1.37-5.1,2.71a1.93,1.93,0,0,0,2.05,2.1,3,3,0,0,0,2.95-2,2.45,2.45,0,0,0,.1-.69Z"/><path d="M412,226c0-1.42,0-2.64-.1-3.76h1.92l.09,2.37H414a3.65,3.65,0,0,1,3.36-2.64,2.34,2.34,0,0,1,.61.06v2.07a3.21,3.21,0,0,0-.74-.07,3.08,3.08,0,0,0-2.95,2.81,6.58,6.58,0,0,0-.09,1v6.46H412Z"/><path d="M418.29,233.05a1.49,1.49,0,1,1,1.48,1.56A1.47,1.47,0,0,1,418.29,233.05Z"/><path d="M197.75,77.5a18.39,18.39,0,0,1,3.18-.25,5.23,5.23,0,0,1,3.59,1.06A3.46,3.46,0,0,1,205.65,81a3.76,3.76,0,0,1-1,2.74,5.26,5.26,0,0,1-3.91,1.4A5.52,5.52,0,0,1,199.4,85v5.14h-1.65Zm1.65,6.17a5.43,5.43,0,0,0,1.38.14c2,0,3.21-1,3.21-2.73s-1.21-2.53-3-2.53a8.35,8.35,0,0,0-1.57.13Z"/><path d="M212.41,90.15,212.26,89h0a3.4,3.4,0,0,1-2.81,1.37,2.62,2.62,0,0,1-2.8-2.64c0-2.22,2-3.45,5.52-3.42v-.2A1.89,1.89,0,0,0,210,82a4.5,4.5,0,0,0-2.4.69l-.38-1.11a5.84,5.84,0,0,1,3-.81c2.8,0,3.49,1.92,3.49,3.76V88a14.71,14.71,0,0,0,.14,2.2Zm-.26-4.69c-1.81,0-3.88.28-3.88,2.06a1.47,1.47,0,0,0,1.56,1.6,2.29,2.29,0,0,0,2.24-1.54,1.65,1.65,0,0,0,.08-.52Z"/><path d="M215.43,89.18l4.15-5.41c.41-.51.79-.94,1.21-1.43v0h-5V81h7v1l-4.11,5.35c-.39.49-.77,1-1.18,1.42v0h5.37v1.34h-7.46Z"/><path d="M229.7,90.15,229.55,89h-.05a3.4,3.4,0,0,1-2.81,1.37,2.62,2.62,0,0,1-2.8-2.64c0-2.22,2-3.45,5.52-3.42v-.2A1.89,1.89,0,0,0,227.32,82a4.5,4.5,0,0,0-2.4.69l-.38-1.11a5.81,5.81,0,0,1,3-.81c2.8,0,3.49,1.92,3.49,3.76V88a14.71,14.71,0,0,0,.14,2.2Zm-.26-4.69c-1.81,0-3.88.28-3.88,2.06a1.47,1.47,0,0,0,1.56,1.6,2.29,2.29,0,0,0,2.24-1.54,1.65,1.65,0,0,0,.08-.52Z"/><path d="M233.76,83.82c0-1.08,0-2-.07-2.86h1.46l.06,1.8h.06a2.79,2.79,0,0,1,2.56-2,1.78,1.78,0,0,1,.47,0v1.57a3.1,3.1,0,0,0-.57-.05,2.34,2.34,0,0,0-2.24,2.14,4.71,4.71,0,0,0-.07.78v4.91h-1.66Z"/><path d="M242.44,78.32V81h2.4v1.27h-2.4v5c0,1.14.33,1.79,1.26,1.79a3.23,3.23,0,0,0,1-.12l.08,1.27a4.28,4.28,0,0,1-1.5.23,2.33,2.33,0,0,1-1.8-.71,3.53,3.53,0,0,1-.65-2.4v-5h-1.42V81h1.42V78.75Z"/><path d="M247.54,85.86a2.94,2.94,0,0,0,3.15,3.19,6.29,6.29,0,0,0,2.54-.47l.3,1.18a7.39,7.39,0,0,1-3.07.59,4.28,4.28,0,0,1-4.52-4.64c0-2.78,1.64-5,4.32-5,3,0,3.78,2.63,3.78,4.32a5,5,0,0,1,0,.79Zm4.89-1.2c0-1.06-.43-2.71-2.3-2.71a2.75,2.75,0,0,0-2.57,2.71Z"/><path d="M255.89,88.45a4.59,4.59,0,0,0,2.22.65c1.22,0,1.78-.6,1.78-1.37s-.48-1.22-1.71-1.68c-1.66-.6-2.44-1.5-2.44-2.6,0-1.48,1.21-2.7,3.18-2.7a4.45,4.45,0,0,1,2.25.57l-.41,1.21a3.67,3.67,0,0,0-1.89-.54c-1,0-1.52.57-1.52,1.26s.54,1.1,1.74,1.57c1.59.59,2.41,1.39,2.41,2.76,0,1.63-1.26,2.77-3.43,2.77a5.2,5.2,0,0,1-2.58-.64Z"/><path d="M265.52,78.36a1,1,0,0,1-1.06,1,1,1,0,0,1-1-1,1,1,0,1,1,2.07,0Zm-1.87,11.79V81h1.66v9.19Z"/><path d="M101.1,126a3.56,3.56,0,0,1,2.44-3.32v-.06a3,3,0,0,1-2-2.76c0-1.95,1.66-3.29,3.84-3.29,2.38,0,3.59,1.5,3.59,3a3.13,3.13,0,0,1-2,2.88v.06a3.43,3.43,0,0,1,2.48,3.19c0,2.16-1.84,3.6-4.21,3.6C102.66,129.36,101.1,127.82,101.1,126Zm6.65-.09c0-1.49-1-2.21-2.72-2.68a2.69,2.69,0,0,0-2.23,2.54,2.28,2.28,0,0,0,2.47,2.34A2.24,2.24,0,0,0,107.75,125.93Zm-4.59-6.17c0,1.23.93,1.9,2.34,2.28a2.42,2.42,0,0,0,1.88-2.25,1.92,1.92,0,0,0-2.09-2A2,2,0,0,0,103.16,119.76Z"/><path d="M111.13,128.17a1.13,1.13,0,0,1,1.14-1.21,1.2,1.2,0,1,1-1.14,1.21Z"/><path d="M115.33,127.24a5.73,5.73,0,0,0,2.74.76c2.13,0,2.8-1.35,2.79-2.39,0-1.73-1.58-2.47-3.19-2.47h-.94v-1.25h.94c1.21,0,2.75-.63,2.75-2.09,0-1-.63-1.86-2.17-1.86a4.52,4.52,0,0,0-2.46.82l-.45-1.21a5.84,5.84,0,0,1,3.23-1c2.44,0,3.55,1.44,3.55,3a3.09,3.09,0,0,1-2.28,2.91v0a3.19,3.19,0,0,1,2.74,3.16c0,2-1.54,3.71-4.5,3.71a6,6,0,0,1-3.2-.85Z"/><path d="M132.89,122.85c0,4.19-1.57,6.51-4.3,6.51-2.41,0-4-2.26-4.09-6.34s1.79-6.43,4.3-6.43S132.89,118.92,132.89,122.85Zm-6.71.17c0,3.22,1,5,2.51,5,1.7,0,2.52-2,2.52-5.14s-.78-5-2.51-5C127.25,117.89,126.18,119.68,126.18,123Z"/><path d="M142.85,123.4v1.23h-4.68V123.4Z"/><path d="M149.29,128a7.36,7.36,0,0,0,1.34-.06,4.6,4.6,0,0,0,2.59-1.19,5.5,5.5,0,0,0,1.62-3.29h-.05a3.63,3.63,0,0,1-2.92,1.33,3.57,3.57,0,0,1-3.64-3.79,4.24,4.24,0,0,1,4.22-4.38c2.52,0,4.08,2,4.08,5.22a7.81,7.81,0,0,1-2.13,5.79,6.24,6.24,0,0,1-3.59,1.64,8,8,0,0,1-1.52.1Zm.6-7.09a2.38,2.38,0,0,0,2.38,2.62,2.79,2.79,0,0,0,2.43-1.3,1.27,1.27,0,0,0,.15-.61c0-2.12-.79-3.72-2.53-3.72C150.89,117.87,149.88,119.13,149.89,120.88Z"/><path d="M158.19,128.17a1.13,1.13,0,0,1,1.14-1.21,1.2,1.2,0,1,1-1.14,1.21Z"/><path d="M162.39,127.24a5.73,5.73,0,0,0,2.74.76c2.13,0,2.8-1.35,2.79-2.39,0-1.73-1.58-2.47-3.19-2.47h-.94v-1.25h.94c1.22,0,2.75-.63,2.75-2.09,0-1-.63-1.86-2.17-1.86a4.52,4.52,0,0,0-2.46.82l-.45-1.21a5.84,5.84,0,0,1,3.23-1c2.44,0,3.55,1.44,3.55,3a3.09,3.09,0,0,1-2.28,2.91v0a3.2,3.2,0,0,1,2.75,3.16c0,2-1.55,3.71-4.51,3.71a6,6,0,0,1-3.2-.85Z"/><path d="M180,122.85c0,4.19-1.57,6.51-4.3,6.51-2.41,0-4.05-2.26-4.09-6.34s1.79-6.43,4.3-6.43S180,118.92,180,122.85Zm-6.71.17c0,3.22,1,5,2.51,5,1.7,0,2.52-2,2.52-5.14s-.77-5-2.51-5C174.31,117.89,173.24,119.68,173.24,123Z"/><path d="M314,88.13a5.69,5.69,0,0,0,2.95.83c1.7,0,2.69-.88,2.69-2.18s-.69-1.88-2.42-2.53c-2.09-.74-3.39-1.84-3.39-3.63,0-2,1.66-3.47,4.15-3.47a6,6,0,0,1,2.83.61l-.46,1.36a4.91,4.91,0,0,0-2.42-.61c-1.76,0-2.43,1-2.43,1.92,0,1.19.78,1.77,2.55,2.45,2.17.86,3.27,1.9,3.27,3.78s-1.45,3.69-4.48,3.69a6.62,6.62,0,0,1-3.28-.84Z"/><path d="M328.66,90.15,328.51,89h-.05a3.4,3.4,0,0,1-2.81,1.37,2.62,2.62,0,0,1-2.8-2.64c0-2.22,2-3.45,5.52-3.42v-.2A1.89,1.89,0,0,0,326.28,82a4.5,4.5,0,0,0-2.4.69l-.38-1.11a5.84,5.84,0,0,1,3-.81c2.81,0,3.49,1.92,3.49,3.76V88a14.71,14.71,0,0,0,.14,2.2Zm-.26-4.69c-1.81,0-3.88.28-3.88,2.06a1.47,1.47,0,0,0,1.56,1.6,2.29,2.29,0,0,0,2.24-1.54,1.65,1.65,0,0,0,.08-.52Z"/><path d="M332.73,76.66h1.66V90.15h-1.66Z"/><path d="M337.21,90.15V81h1.66v9.19Z"/></svg>