<?xml version="1.0" encoding="utf-8"?>
<!-- Generator: Adobe Illustrator 23.0.1, SVG Export Plug-In . SVG Version: 6.00 Build 0)  -->
<svg version="1.1" id="Layer_1" xmlns="http://www.w3.org/2000/svg" xmlns:xlink="http://www.w3.org/1999/xlink" x="0px" y="0px"
	 viewBox="0 0 460 310" style="enable-background:new 0 0 460 310;" xml:space="preserve">
<style type="text/css">
	.st0{fill:#B3B3B3;}
	.st1{fill:#CCCCCC;}
	.st2{fill:none;stroke:#999999;stroke-width:0.5;stroke-miterlimit:10;}
	.st3{fill:none;stroke:#999999;stroke-width:0.75;stroke-miterlimit:10;}
	.st4{fill:#333333;}
</style>
<title>tutorial-class-3</title>
<rect x="96" y="76" class="st0" width="269" height="39"/>
<path class="st1" d="M104.3,47H115c2.2,0,4,1.8,4,4v10.7c0,2.2-1.8,4-4,4h-10.7c-2.2,0-4-1.8-4-4V51C100.3,48.8,102.1,47,104.3,47z"
	/>
<path class="st2" d="M104.3,47H115c2.2,0,4,1.8,4,4v10.7c0,2.2-1.8,4-4,4h-10.7c-2.2,0-4-1.8-4-4V51C100.3,48.8,102.1,47,104.3,47z"
	/>
<path class="st1" d="M104.3,85.7H115c2.2,0,4,1.8,4,4v10.7c0,2.2-1.8,4-4,4h-10.7c-2.2,0-4-1.8-4-4V89.7
	C100.3,87.5,102.1,85.7,104.3,85.7z"/>
<path class="st2" d="M104.3,85.7H115c2.2,0,4,1.8,4,4v10.7c0,2.2-1.8,4-4,4h-10.7c-2.2,0-4-1.8-4-4V89.7
	C100.3,87.5,102.1,85.7,104.3,85.7z"/>
<line class="st3" x1="96" y1="37" x2="365" y2="37"/>
<line class="st3" x1="96" y1="75.7" x2="365" y2="75.7"/>
<line class="st3" x1="96" y1="114.9" x2="365" y2="114.9"/>
<g>
	<g>
		<path class="st4" d="M173.5,64.1h-1.9V53.4c0-0.8,0.1-1.9,0.2-3.1l0,0c-0.1,0.5-0.3,1-0.5,1.5l-5.4,12.2H165l-5.4-12.2
			c-0.2-0.5-0.4-1.1-0.5-1.6l0,0c0.1,0.6,0.1,1.7,0.1,3.1v10.7h-1.8V48.1h2.5l4.9,11.1c0.3,0.6,0.5,1.3,0.7,1.9h0.1
			c0.3-0.9,0.6-1.5,0.8-2l5-11.1h2.3L173.5,64.1z"/>
	</g>
	<g>
		<path class="st4" d="M190,64.1h-2l-1.7-4.5h-6.8l-1.6,4.5h-2.1l6.1-15.9h1.9L190,64.1z M185.6,57.9l-2.5-6.8
			c-0.1-0.3-0.2-0.7-0.2-1.1h-0.1c0,0.4-0.1,0.7-0.3,1.1l-2.5,6.8H185.6z"/>
	</g>
	<g>
		<path class="st4" d="M200.2,49.8h-4.6v14.2h-1.9V49.8h-4.6v-1.7h11L200.2,49.8z"/>
		<path class="st4" d="M214.9,64.1H213V50.3c-0.2,0.2-0.4,0.3-0.6,0.5c-0.3,0.2-0.6,0.4-0.9,0.5s-0.7,0.3-1.1,0.5
			c-0.4,0.1-0.7,0.3-1.1,0.4v-1.8c0.4-0.1,0.9-0.3,1.3-0.5c0.4-0.2,0.9-0.4,1.3-0.6c0.4-0.2,0.8-0.5,1.2-0.7c0.3-0.2,0.7-0.5,1-0.8
			h0.7L214.9,64.1z"/>
		<path class="st4" d="M230.4,56c0,1.2-0.1,2.4-0.4,3.5c-0.2,0.9-0.5,1.8-1,2.6c-0.4,0.7-1,1.2-1.7,1.6c-0.7,0.4-1.5,0.6-2.3,0.6
			c-0.7,0-1.5-0.2-2.1-0.5c-0.6-0.4-1.2-0.9-1.6-1.5c-0.5-0.8-0.8-1.6-1-2.5c-0.2-1.1-0.3-2.2-0.3-3.4c0-1.2,0.1-2.5,0.4-3.7
			c0.2-0.9,0.5-1.9,1-2.7c0.4-0.7,1-1.3,1.7-1.6c0.7-0.4,1.5-0.6,2.3-0.5C228.7,47.9,230.4,50.6,230.4,56z M228.5,56.2
			c0-4.5-1.1-6.8-3.2-6.8s-3.4,2.3-3.4,6.9c0,4.3,1.1,6.5,3.3,6.5C227.5,62.8,228.6,60.6,228.5,56.2L228.5,56.2z"/>
		<path class="st4" d="M241.9,59.5c0,0.7-0.1,1.4-0.4,2c-0.3,0.6-0.7,1.1-1.1,1.5c-0.5,0.4-1.1,0.8-1.8,1c-0.7,0.2-1.5,0.4-2.3,0.3
			c-1.3,0.1-2.5-0.2-3.6-0.9v-2c1,0.8,2.3,1.3,3.7,1.3c0.5,0,1-0.1,1.5-0.2c0.4-0.1,0.8-0.3,1.1-0.6c0.3-0.3,0.6-0.6,0.8-1
			c0.2-0.4,0.3-0.8,0.3-1.3c0-2.1-1.5-3.1-4.4-3.1h-1.3V55h1.3c2.6,0,3.9-1,3.9-2.9c0-1.8-1-2.7-3-2.7c-1.2,0-2.3,0.4-3.2,1.1v-1.8
			c1.1-0.6,2.4-0.9,3.6-0.9c0.6,0,1.2,0.1,1.8,0.3c0.5,0.2,1,0.4,1.4,0.8c0.4,0.3,0.7,0.7,0.9,1.2c0.2,0.5,0.3,1,0.3,1.5
			c0.1,2-1.3,3.7-3.2,4l0,0c0.5,0.1,1,0.2,1.5,0.4c0.4,0.2,0.8,0.5,1.2,0.8C241.6,57.6,241.9,58.5,241.9,59.5L241.9,59.5z"/>
		<path class="st4" d="M254.1,64.1h-8.4V48.1h8.1v1.7h-6.2v5.3h5.8v1.7h-5.8v5.6h6.6V64.1z"/>
	</g>
</g>
<g>
	<g>
		<path class="st4" d="M173.5,102.7h-1.9V92.1c0-0.8,0.1-1.9,0.2-3.1l0,0c-0.1,0.5-0.3,1-0.5,1.5l-5.4,12.2H165l-5.4-12.2
			c-0.2-0.5-0.4-1-0.6-1.6l0,0c0.1,0.6,0.1,1.7,0.1,3.1v10.7h-1.8v-16h2.5l4.9,11.1c0.3,0.6,0.5,1.3,0.7,1.9h0.1
			c0.3-0.9,0.6-1.5,0.8-2l5-11.1h2.3L173.5,102.7z"/>
	</g>
	<g>
		<path class="st4" d="M190,102.7h-2l-1.7-4.5h-6.8l-1.6,4.5h-2.1l6.1-15.9h1.9L190,102.7z M185.6,96.6l-2.5-6.8
			c-0.1-0.3-0.2-0.7-0.2-1.1h-0.1c0,0.4-0.1,0.7-0.3,1.1l-2.5,6.8H185.6z"/>
	</g>
	<g>
		<path class="st4" d="M200.2,88.5h-4.6v14.2h-1.9V88.5h-4.6v-1.7h11L200.2,88.5z"/>
		<path class="st4" d="M214.9,102.7H213V89c-0.2,0.2-0.4,0.3-0.6,0.5c-0.3,0.2-0.6,0.4-0.9,0.5s-0.7,0.3-1.1,0.5
			c-0.4,0.1-0.7,0.3-1.1,0.4V89c0.4-0.1,0.9-0.3,1.3-0.4c0.4-0.2,0.9-0.4,1.3-0.6c0.4-0.2,0.8-0.5,1.2-0.7s0.7-0.5,1-0.8h0.7
			L214.9,102.7z"/>
		<path class="st4" d="M230.4,94.7c0,1.2-0.1,2.4-0.4,3.5c-0.2,0.9-0.5,1.8-1,2.6c-0.4,0.7-1,1.2-1.7,1.6c-0.7,0.4-1.5,0.6-2.3,0.6
			c-0.7,0-1.5-0.2-2.1-0.5c-0.6-0.4-1.2-0.9-1.6-1.5c-0.5-0.8-0.8-1.6-1-2.5c-0.2-1.1-0.4-2.2-0.4-3.4c0-1.2,0.1-2.5,0.4-3.7
			c0.2-0.9,0.5-1.9,1-2.7c0.4-0.7,1-1.3,1.7-1.6c0.7-0.4,1.5-0.6,2.3-0.6C228.7,86.5,230.4,89.3,230.4,94.7z M228.5,94.9
			c0-4.5-1.1-6.8-3.2-6.8s-3.4,2.3-3.4,6.9c0,4.3,1.1,6.4,3.3,6.4C227.5,101.4,228.6,99.3,228.5,94.9L228.5,94.9z"/>
		<path class="st4" d="M239.4,102.7h-1.8V89c-0.2,0.2-0.4,0.3-0.6,0.5c-0.3,0.2-0.6,0.4-0.9,0.5c-0.3,0.2-0.7,0.3-1.1,0.5
			c-0.4,0.1-0.7,0.3-1.1,0.4V89c0.4-0.1,0.9-0.3,1.3-0.4c0.5-0.2,0.9-0.4,1.3-0.6c0.4-0.2,0.8-0.5,1.2-0.7c0.3-0.2,0.7-0.5,1-0.8
			h0.7L239.4,102.7z"/>
		<path class="st4" d="M254.1,102.7h-8.4V86.8h8.1v1.7h-6.2v5.3h5.8v1.7h-5.8v5.6h6.6V102.7z"/>
	</g>
</g>
<path class="st1" d="M104.3,125.7H115c2.2,0,4,1.8,4,4v10.7c0,2.2-1.8,4-4,4h-10.7c-2.2,0-4-1.8-4-4v-10.7
	C100.3,127.5,102.1,125.7,104.3,125.7z"/>
<path class="st2" d="M104.3,125.7H115c2.2,0,4,1.8,4,4v10.7c0,2.2-1.8,4-4,4h-10.7c-2.2,0-4-1.8-4-4v-10.7
	C100.3,127.5,102.1,125.7,104.3,125.7z"/>
<line class="st3" x1="93.4" y1="154.9" x2="362.4" y2="154.9"/>
<g>
	<g>
		<path class="st4" d="M173.5,142.7h-1.9v-10.7c0-0.8,0.1-1.9,0.2-3.1l0,0c-0.1,0.5-0.3,1-0.5,1.5l-5.4,12.2H165l-5.4-12.1
			c-0.2-0.5-0.4-1-0.6-1.6l0,0c0.1,0.6,0.1,1.7,0.1,3.1v10.7h-1.8v-16h2.5l4.9,11.1c0.3,0.6,0.5,1.3,0.7,1.9h0.1
			c0.3-0.9,0.6-1.5,0.8-2l5-11.1h2.3L173.5,142.7z"/>
	</g>
	<g>
		<path class="st4" d="M190,142.7h-2l-1.7-4.5h-6.8l-1.6,4.5h-2.1l6.1-15.9h1.9L190,142.7z M185.6,136.6l-2.5-6.8
			c-0.1-0.3-0.2-0.7-0.2-1.1h-0.1c0,0.4-0.1,0.7-0.3,1.1l-2.5,6.8H185.6z"/>
	</g>
	<g>
		<path class="st4" d="M200.2,128.5h-4.6v14.2h-1.9v-14.2h-4.6v-1.7h11L200.2,128.5z"/>
		<path class="st4" d="M214.9,142.7H213V129c-0.2,0.2-0.4,0.3-0.6,0.5c-0.3,0.2-0.6,0.4-0.9,0.5s-0.7,0.3-1.1,0.5
			c-0.4,0.1-0.7,0.3-1.1,0.4V129c0.4-0.1,0.9-0.3,1.3-0.4c0.4-0.2,0.9-0.4,1.3-0.6c0.4-0.2,0.8-0.5,1.2-0.7s0.7-0.5,1-0.8h0.7
			L214.9,142.7z"/>
		<path class="st4" d="M230.4,134.7c0,1.2-0.1,2.4-0.4,3.5c-0.2,0.9-0.5,1.8-1,2.6c-0.4,0.7-1,1.2-1.7,1.6c-0.7,0.4-1.5,0.6-2.3,0.6
			c-0.7,0-1.5-0.2-2.1-0.5c-0.6-0.4-1.2-0.9-1.6-1.5c-0.5-0.8-0.8-1.6-1-2.5c-0.2-1.1-0.3-2.2-0.3-3.4c0-1.2,0.1-2.5,0.4-3.7
			c0.2-0.9,0.5-1.9,1-2.7c0.4-0.7,1-1.3,1.7-1.6c0.7-0.4,1.5-0.6,2.3-0.6C228.7,126.5,230.4,129.3,230.4,134.7z M228.5,134.9
			c0-4.5-1.1-6.8-3.2-6.8s-3.4,2.3-3.4,6.9c0,4.3,1.1,6.4,3.3,6.4C227.5,141.5,228.6,139.3,228.5,134.9L228.5,134.9z"/>
		<path class="st4" d="M240.8,126.8v10.5h2.1v1.7h-2.1v3.7H239V139h-7.5v-1.6c0.7-0.8,1.4-1.6,2.1-2.5s1.4-1.8,2-2.7
			s1.3-1.8,1.8-2.8c0.5-0.8,1-1.7,1.4-2.6L240.8,126.8z M233.6,137.3h5.4v-7.8c-0.6,1-1.1,1.8-1.6,2.6s-1,1.5-1.4,2.1
			s-0.9,1.2-1.3,1.7L233.6,137.3z"/>
		<path class="st4" d="M254.1,142.7h-8.4v-15.9h8.1v1.7h-6.2v5.3h5.8v1.7h-5.8v5.6h6.6V142.7z"/>
	</g>
</g>
<path class="st4" d="M327.4,89.8l5.4,5.4v-0.3c0-2.8-2.3-5.1-5.1-5.1L327.4,89.8z"/>
<path class="st4" d="M327.7,86.3c4.7,0,8.6,3.8,8.6,8.5c0,1.1-0.2,2.2-0.6,3.2l5,5c2.6-2.2,4.6-5,5.9-8.1
	c-4-10.2-15.4-15.4-25.7-11.7l3.7,3.7C325.6,86.5,326.6,86.3,327.7,86.3z"/>
<path class="st4" d="M310.6,81.6l3.9,3.9l0.8,0.8c-2.9,2.2-5.1,5.2-6.4,8.6c4.1,10.4,15.8,15.5,26.2,11.5l0.1-0.1l0.7,0.7l5,5
	l2.2-2.2l-30.4-30.4L310.6,81.6z M320.1,91.1l2.6,2.7c-0.1,0.4-0.1,0.7-0.1,1.1c0,2.8,2.3,5.1,5.1,5.1c0.4,0,0.7,0,1.1-0.1l2.6,2.6
	c-1.2,0.6-2.5,0.9-3.8,0.9c-4.7,0-8.6-3.8-8.6-8.6v0l0,0C319.2,93.6,319.5,92.3,320.1,91.1z"/>
<g>
	<path d="M76.5,188.5c1-0.2,2.5-0.4,4.1-0.4c2.3,0,3.7,0.4,4.8,1.3c0.9,0.7,1.5,1.7,1.5,3.1c0,1.7-1.1,3.2-3,3.8v0.1
		c1.7,0.4,3.6,1.8,3.6,4.4c0,1.5-0.6,2.7-1.5,3.5c-1.2,1.1-3.2,1.6-6.1,1.6c-1.6,0-2.8-0.1-3.5-0.2V188.5z M78.7,195.7h2.1
		c2.4,0,3.8-1.2,3.8-2.9c0-2.1-1.6-2.9-3.8-2.9c-1,0-1.6,0.1-2,0.2V195.7z M78.7,204.1c0.4,0.1,1.1,0.1,1.9,0.1
		c2.3,0,4.5-0.9,4.5-3.4c0-2.4-2.1-3.4-4.5-3.4h-1.9V204.1z"/>
	<path d="M101,202.4c0,1.3,0,2.4,0.1,3.4h-2l-0.1-2.1h-0.1c-0.6,1-1.9,2.3-4.2,2.3c-2,0-4.3-1.1-4.3-5.5v-7.4h2.3v7
		c0,2.4,0.7,4,2.8,4c1.5,0,2.6-1.1,3-2.1c0.1-0.3,0.2-0.8,0.2-1.2v-7.7h2.3V202.4z"/>
	<path d="M121.2,187.3v15.2c0,1.1,0,2.4,0.1,3.3h-2.1l-0.1-2.2h-0.1c-0.7,1.4-2.2,2.5-4.3,2.5c-3,0-5.4-2.6-5.4-6.4
		c0-4.2,2.6-6.8,5.6-6.8c1.9,0,3.2,0.9,3.8,1.9h0.1v-7.5H121.2z M118.9,198.3c0-0.3,0-0.7-0.1-1c-0.3-1.5-1.6-2.7-3.3-2.7
		c-2.4,0-3.8,2.1-3.8,4.9c0,2.5,1.2,4.7,3.7,4.7c1.5,0,2.9-1,3.4-2.7c0.1-0.3,0.1-0.6,0.1-1V198.3z"/>
	<path d="M136.4,199.4c0,4.7-3.2,6.7-6.3,6.7c-3.4,0-6-2.5-6-6.5c0-4.2,2.8-6.7,6.2-6.7C133.9,192.9,136.4,195.5,136.4,199.4z
		 M126.4,199.5c0,2.8,1.6,4.8,3.8,4.8c2.2,0,3.8-2.1,3.8-4.9c0-2.1-1.1-4.8-3.8-4.8S126.4,197.1,126.4,199.5z M126.5,189.6
		c0-0.7,0.6-1.3,1.3-1.3c0.7,0,1.3,0.6,1.3,1.3c0,0.7-0.5,1.3-1.3,1.3C127.1,191,126.5,190.3,126.5,189.6z M131.3,189.6
		c0-0.7,0.6-1.3,1.3-1.3s1.3,0.6,1.3,1.3c0,0.7-0.5,1.3-1.3,1.3C131.9,191,131.3,190.3,131.3,189.6z"/>
	<path d="M139.3,196.6c0-1.3,0-2.4-0.1-3.4h2l0.1,2.1h0.1c0.6-1.2,2.1-2.4,4.2-2.4c1.7,0,4.4,1,4.4,5.4v7.5h-2.3v-7.3
		c0-2-0.8-3.7-2.9-3.7c-1.5,0-2.7,1.1-3.1,2.3c-0.1,0.3-0.2,0.7-0.2,1.1v7.6h-2.3V196.6z"/>
	<path d="M155,199.9c0.1,3.1,2,4.4,4.3,4.4c1.6,0,2.6-0.3,3.5-0.7l0.4,1.6c-0.8,0.4-2.2,0.8-4.2,0.8c-3.9,0-6.2-2.5-6.2-6.3
		s2.2-6.8,5.9-6.8c4.1,0,5.2,3.6,5.2,5.9c0,0.5-0.1,0.8-0.1,1.1H155z M161.7,198.3c0-1.5-0.6-3.7-3.2-3.7c-2.3,0-3.3,2.1-3.5,3.7
		H161.7z"/>
	<path d="M166.7,196.6c0-1.3,0-2.4-0.1-3.4h2l0.1,2h0.1c0.7-1.2,1.9-2.3,4-2.3c1.7,0,3,1,3.6,2.5h0.1c0.4-0.7,0.9-1.2,1.4-1.6
		c0.8-0.6,1.6-0.9,2.8-0.9c1.7,0,4.1,1.1,4.1,5.5v7.4h-2.2v-7.1c0-2.4-0.9-3.9-2.7-3.9c-1.3,0-2.3,1-2.7,2.1
		c-0.1,0.3-0.2,0.7-0.2,1.1v7.8h-2.2v-7.5c0-2-0.9-3.5-2.6-3.5c-1.4,0-2.5,1.1-2.8,2.3c-0.1,0.3-0.2,0.7-0.2,1.1v7.6h-2.2V196.6z"/>
	<path d="M200.9,205.8l-0.2-1.6h-0.1c-0.7,1-2.1,1.9-3.8,1.9c-2.5,0-3.8-1.8-3.8-3.6c0-3,2.7-4.7,7.6-4.7v-0.3c0-1-0.3-2.9-2.9-2.9
		c-1.2,0-2.4,0.4-3.3,0.9l-0.5-1.5c1-0.7,2.5-1.1,4.1-1.1c3.8,0,4.8,2.6,4.8,5.1v4.7c0,1.1,0.1,2.2,0.2,3H200.9z M200.6,199.4
		c-2.5-0.1-5.3,0.4-5.3,2.8c0,1.5,1,2.2,2.2,2.2c1.6,0,2.7-1,3-2.1c0.1-0.2,0.1-0.5,0.1-0.7V199.4z"/>
	<path d="M215.4,205.3c-0.5,0.3-1.7,0.7-3.3,0.7l-0.7,1c1,0.1,1.8,0.8,1.8,1.8c0,1.5-1.3,2.1-2.7,2.1c-0.6,0-1.3-0.2-1.8-0.4
		l0.4-1.1c0.4,0.3,0.9,0.4,1.4,0.4c0.6,0,1.1-0.2,1.1-0.8c0-0.7-0.8-1-2-1.1l1.1-1.9c-3.2-0.4-5.3-2.9-5.3-6.4
		c0-3.9,2.7-6.7,6.8-6.7c1.4,0,2.5,0.3,3.2,0.7l-0.5,1.8c-0.5-0.3-1.4-0.6-2.7-0.6c-2.9,0-4.4,2.1-4.4,4.8c0,2.9,1.9,4.7,4.4,4.7
		c1.3,0,2.2-0.3,2.8-0.6L215.4,205.3z"/>
	<path d="M218.1,205.8v-12.6h2.3v12.6H218.1z"/>
	<path d="M224.2,187.3h2.3v18.5h-2.3V187.3z"/>
	<path d="M230.3,196.6c0-1.3,0-2.4-0.1-3.4h2l0.1,2h0.1c0.7-1.2,1.9-2.3,4-2.3c1.7,0,3,1,3.6,2.5h0.1c0.4-0.7,0.9-1.2,1.4-1.6
		c0.8-0.6,1.6-0.9,2.8-0.9c1.7,0,4.1,1.1,4.1,5.5v7.4h-2.2v-7.1c0-2.4-0.9-3.9-2.7-3.9c-1.3,0-2.3,1-2.7,2.1
		c-0.1,0.3-0.2,0.7-0.2,1.1v7.8h-2.2v-7.5c0-2-0.9-3.5-2.6-3.5c-1.4,0-2.5,1.1-2.8,2.3c-0.1,0.3-0.2,0.7-0.2,1.1v7.6h-2.2V196.6z"/>
	<path d="M259,205.8l-0.2-1.6h-0.1c-0.7,1-2.1,1.9-3.8,1.9c-2.5,0-3.8-1.8-3.8-3.6c0-3,2.7-4.7,7.6-4.7v-0.3c0-1-0.3-2.9-2.9-2.9
		c-1.2,0-2.4,0.4-3.3,0.9l-0.5-1.5c1-0.7,2.5-1.1,4.1-1.1c3.8,0,4.8,2.6,4.8,5.1v4.7c0,1.1,0.1,2.2,0.2,3H259z M258.6,199.4
		c-2.5-0.1-5.3,0.4-5.3,2.8c0,1.5,1,2.2,2.2,2.2c1.6,0,2.7-1,3-2.1c0.1-0.2,0.1-0.5,0.1-0.7V199.4z"/>
	<path d="M265.2,193.2l2.8,7.4c0.3,0.8,0.6,1.8,0.8,2.6h0.1c0.2-0.8,0.5-1.7,0.8-2.6l2.5-7.4h2.4l-3.4,9c-1.6,4.3-2.8,6.5-4.3,7.9
		c-1.1,1-2.2,1.4-2.8,1.5l-0.6-1.9c0.6-0.2,1.3-0.5,2-1.1c0.6-0.5,1.4-1.4,1.9-2.5c0.1-0.2,0.2-0.4,0.2-0.5c0-0.1-0.1-0.3-0.2-0.6
		l-4.7-11.6H265.2z"/>
	<path d="M283.4,205.8l-0.2-1.6h-0.1c-0.7,1-2.1,1.9-3.8,1.9c-2.5,0-3.8-1.8-3.8-3.6c0-3,2.7-4.7,7.6-4.7v-0.3c0-1-0.3-2.9-2.9-2.9
		c-1.2,0-2.4,0.4-3.3,0.9l-0.5-1.5c1-0.7,2.5-1.1,4.1-1.1c3.8,0,4.8,2.6,4.8,5.1v4.7c0,1.1,0.1,2.2,0.2,3H283.4z M283.1,199.4
		c-2.5-0.1-5.3,0.4-5.3,2.8c0,1.5,1,2.2,2.2,2.2c1.6,0,2.7-1,3-2.1c0.1-0.2,0.1-0.5,0.1-0.7V199.4z"/>
	<path d="M289,196.6c0-1.3,0-2.4-0.1-3.4h2l0.1,2.1h0.1c0.6-1.2,2.1-2.4,4.2-2.4c1.7,0,4.4,1,4.4,5.4v7.5h-2.3v-7.3
		c0-2-0.8-3.7-2.9-3.7c-1.5,0-2.7,1.1-3.1,2.3c-0.1,0.3-0.2,0.7-0.2,1.1v7.6H289V196.6z"/>
	<path d="M319.8,187.3v15.2c0,1.1,0,2.4,0.1,3.3h-2.1l-0.1-2.2h-0.1c-0.7,1.4-2.2,2.5-4.3,2.5c-3,0-5.4-2.6-5.4-6.4
		c0-4.2,2.6-6.8,5.6-6.8c1.9,0,3.2,0.9,3.8,1.9h0.1v-7.5H319.8z M317.5,198.3c0-0.3,0-0.7-0.1-1c-0.3-1.5-1.6-2.7-3.3-2.7
		c-2.4,0-3.8,2.1-3.8,4.9c0,2.5,1.2,4.7,3.7,4.7c1.5,0,2.9-1,3.4-2.7c0.1-0.3,0.1-0.6,0.1-1V198.3z"/>
	<path d="M324.9,199.9c0.1,3.1,2,4.4,4.3,4.4c1.6,0,2.6-0.3,3.5-0.7l0.4,1.6c-0.8,0.4-2.2,0.8-4.2,0.8c-3.9,0-6.2-2.5-6.2-6.3
		s2.2-6.8,5.9-6.8c4.1,0,5.2,3.6,5.2,5.9c0,0.5-0.1,0.8-0.1,1.1H324.9z M331.6,198.3c0-1.5-0.6-3.7-3.2-3.7c-2.3,0-3.3,2.1-3.5,3.7
		H331.6z"/>
	<path d="M336.6,197.1c0-1.5,0-2.8-0.1-3.9h2l0.1,2.5h0.1c0.6-1.7,2-2.8,3.5-2.8c0.3,0,0.4,0,0.6,0.1v2.2c-0.2-0.1-0.5-0.1-0.8-0.1
		c-1.6,0-2.8,1.2-3.1,2.9c-0.1,0.3-0.1,0.7-0.1,1.1v6.7h-2.3V197.1z"/>
	<path d="M344.8,203.4c0.7,0.4,1.9,0.9,3,0.9c1.7,0,2.4-0.8,2.4-1.9c0-1.1-0.7-1.7-2.3-2.3c-2.3-0.8-3.3-2.1-3.3-3.6
		c0-2,1.6-3.7,4.3-3.7c1.3,0,2.4,0.4,3.1,0.8l-0.6,1.7c-0.5-0.3-1.4-0.7-2.6-0.7c-1.4,0-2.1,0.8-2.1,1.7c0,1,0.8,1.5,2.4,2.1
		c2.2,0.8,3.3,1.9,3.3,3.8c0,2.2-1.7,3.8-4.7,3.8c-1.4,0-2.7-0.3-3.5-0.9L344.8,203.4z"/>
	<path d="M355.4,187.3h2.3v18.5h-2.3V187.3z"/>
	<path d="M362.8,199.9c0.1,3.1,2,4.4,4.3,4.4c1.6,0,2.6-0.3,3.5-0.7l0.4,1.6c-0.8,0.4-2.2,0.8-4.2,0.8c-3.9,0-6.2-2.5-6.2-6.3
		s2.2-6.8,5.9-6.8c4.1,0,5.2,3.6,5.2,5.9c0,0.5-0.1,0.8-0.1,1.1H362.8z M369.6,198.3c0-1.5-0.6-3.7-3.2-3.7c-2.3,0-3.3,2.1-3.5,3.7
		H369.6z"/>
	<path d="M374.6,197.1c0-1.5,0-2.8-0.1-3.9h2l0.1,2.5h0.1c0.6-1.7,1.9-2.8,3.5-2.8c0.3,0,0.4,0,0.7,0.1v2.2
		c-0.2-0.1-0.5-0.1-0.8-0.1c-1.6,0-2.8,1.2-3.1,2.9c-0.1,0.3-0.1,0.7-0.1,1.1v6.7h-2.3V197.1z"/>
	<path d="M63.1,224.4c-0.1,0.9-0.1,1.9-0.1,3.5v7.3c0,2.9-0.6,4.7-1.8,5.7c-1.2,1.1-3,1.5-4.6,1.5c-1.5,0-3.2-0.4-4.2-1l0.6-1.7
		c0.8,0.5,2.1,1,3.7,1c2.3,0,4.1-1.2,4.1-4.4v-1.4h-0.1c-0.7,1.2-2.1,2.1-4,2.1c-3.1,0-5.4-2.7-5.4-6.1c0-4.3,2.8-6.7,5.7-6.7
		c2.2,0,3.4,1.1,3.9,2.2H61l0.1-1.9H63.1z M60.8,229.4c0-0.4,0-0.7-0.1-1c-0.4-1.3-1.5-2.4-3.2-2.4c-2.2,0-3.7,1.8-3.7,4.8
		c0,2.5,1.2,4.5,3.7,4.5c1.4,0,2.7-0.9,3.2-2.3c0.1-0.4,0.2-0.8,0.2-1.2V229.4z"/>
	<path d="M69.2,220.9c0,0.8-0.5,1.4-1.5,1.4c-0.8,0-1.4-0.6-1.4-1.4c0-0.8,0.6-1.4,1.4-1.4C68.7,219.4,69.2,220.1,69.2,220.9z
		 M66.7,237v-12.6H69V237H66.7z"/>
	<path d="M71.3,235.7l5.7-7.4c0.5-0.7,1.1-1.3,1.6-2v-0.1h-6.8v-1.8h9.6l0,1.4l-5.6,7.3c-0.5,0.7-1,1.3-1.6,2v0.1h7.4v1.8H71.3
		V235.7z"/>
	<path d="M83.9,218.5h2.3V237h-2.3V218.5z"/>
	<path d="M91.3,231.1c0.1,3.1,2,4.4,4.3,4.4c1.6,0,2.6-0.3,3.5-0.7l0.4,1.6c-0.8,0.4-2.2,0.8-4.2,0.8c-3.9,0-6.2-2.5-6.2-6.3
		c0-3.8,2.2-6.8,5.9-6.8c4.1,0,5.2,3.6,5.2,5.9c0,0.5-0.1,0.8-0.1,1.1H91.3z M98,229.5c0-1.5-0.6-3.7-3.2-3.7
		c-2.3,0-3.3,2.1-3.5,3.7H98z"/>
	<path d="M103,227.8c0-1.3,0-2.4-0.1-3.4h2l0.1,2.1h0.1c0.6-1.2,2.1-2.4,4.2-2.4c1.7,0,4.4,1,4.4,5.4v7.5h-2.3v-7.3
		c0-2-0.8-3.7-2.9-3.7c-1.5,0-2.7,1.1-3.1,2.3c-0.1,0.3-0.2,0.7-0.2,1.1v7.6H103V227.8z"/>
	<path d="M128.3,218.5v15.2c0,1.1,0,2.4,0.1,3.3h-2.1l-0.1-2.2h-0.1c-0.7,1.4-2.2,2.5-4.3,2.5c-3,0-5.4-2.6-5.4-6.4
		c0-4.2,2.6-6.8,5.6-6.8c1.9,0,3.2,0.9,3.8,1.9h0.1v-7.5H128.3z M126.1,229.5c0-0.3,0-0.7-0.1-1c-0.3-1.5-1.6-2.7-3.3-2.7
		c-2.4,0-3.8,2.1-3.8,4.9c0,2.5,1.2,4.7,3.7,4.7c1.5,0,2.9-1,3.4-2.7c0.1-0.3,0.1-0.6,0.1-1V229.5z"/>
	<path d="M134.7,220.9c0,0.8-0.5,1.4-1.5,1.4c-0.8,0-1.4-0.6-1.4-1.4c0-0.8,0.6-1.4,1.4-1.4C134.1,219.4,134.7,220.1,134.7,220.9z
		 M132.1,237v-12.6h2.3V237H132.1z"/>
	<path d="M137.7,235.6c0-1,0.6-1.6,1.6-1.6s1.5,0.7,1.5,1.6c0,0.9-0.6,1.6-1.6,1.6C138.3,237.3,137.7,236.6,137.7,235.6z"/>
	<path d="M149.2,219.7c1-0.2,2.5-0.4,4.1-0.4c2.3,0,3.7,0.4,4.8,1.3c0.9,0.7,1.5,1.7,1.5,3.1c0,1.7-1.1,3.2-3,3.8v0.1
		c1.7,0.4,3.6,1.8,3.6,4.4c0,1.5-0.6,2.7-1.5,3.5c-1.2,1.1-3.2,1.6-6.1,1.6c-1.6,0-2.8-0.1-3.5-0.2V219.7z M151.5,226.9h2.1
		c2.4,0,3.8-1.2,3.8-2.9c0-2.1-1.6-2.9-3.8-2.9c-1,0-1.6,0.1-2,0.2V226.9z M151.5,235.3c0.4,0.1,1.1,0.1,1.9,0.1
		c2.3,0,4.5-0.9,4.5-3.4c0-2.4-2.1-3.4-4.5-3.4h-1.9V235.3z"/>
	<path d="M173.7,233.6c0,1.3,0,2.4,0.1,3.4h-2l-0.1-2.1h-0.1c-0.6,1-1.9,2.3-4.2,2.3c-2,0-4.3-1.1-4.3-5.5v-7.4h2.3v7
		c0,2.4,0.7,4,2.8,4c1.5,0,2.6-1.1,3-2.1c0.1-0.3,0.2-0.8,0.2-1.2v-7.7h2.3V233.6z"/>
	<path d="M182.7,234.6c0.7,0.4,1.9,0.9,3,0.9c1.7,0,2.4-0.8,2.4-1.9c0-1.1-0.7-1.7-2.3-2.3c-2.3-0.8-3.3-2.1-3.3-3.6
		c0-2,1.6-3.7,4.3-3.7c1.3,0,2.4,0.4,3.1,0.8l-0.6,1.7c-0.5-0.3-1.4-0.7-2.6-0.7c-1.4,0-2.1,0.8-2.1,1.7c0,1,0.8,1.5,2.4,2.1
		c2.2,0.8,3.3,1.9,3.3,3.8c0,2.2-1.7,3.8-4.7,3.8c-1.4,0-2.7-0.3-3.5-0.9L182.7,234.6z"/>
	<path d="M194.6,231.1c0.1,3.1,2,4.4,4.3,4.4c1.6,0,2.6-0.3,3.5-0.7l0.4,1.6c-0.8,0.4-2.2,0.8-4.2,0.8c-3.9,0-6.2-2.5-6.2-6.3
		c0-3.8,2.2-6.8,5.9-6.8c4.1,0,5.2,3.6,5.2,5.9c0,0.5-0.1,0.8-0.1,1.1H194.6z M201.3,229.5c0-1.5-0.6-3.7-3.2-3.7
		c-2.3,0-3.3,2.1-3.5,3.7H201.3z"/>
	<path d="M215.3,236.5c-0.5,0.3-1.7,0.7-3.3,0.7l-0.7,1c1,0.1,1.8,0.8,1.8,1.8c0,1.5-1.3,2.1-2.7,2.1c-0.6,0-1.3-0.2-1.8-0.4
		l0.4-1.1c0.4,0.3,0.9,0.4,1.4,0.4c0.6,0,1.1-0.2,1.1-0.8c0-0.7-0.8-1-2-1.1l1.1-1.9c-3.2-0.4-5.3-2.9-5.3-6.4
		c0-3.9,2.7-6.7,6.8-6.7c1.4,0,2.5,0.3,3.2,0.7l-0.5,1.8c-0.5-0.3-1.4-0.6-2.7-0.6c-2.9,0-4.4,2.1-4.4,4.8c0,2.9,1.9,4.7,4.4,4.7
		c1.3,0,2.2-0.3,2.8-0.6L215.3,236.5z"/>
	<path d="M219.1,231.1c0.1,3.1,2,4.4,4.3,4.4c1.6,0,2.6-0.3,3.5-0.7l0.4,1.6c-0.8,0.4-2.2,0.8-4.2,0.8c-3.9,0-6.2-2.5-6.2-6.3
		c0-3.8,2.2-6.8,5.9-6.8c4.1,0,5.2,3.6,5.2,5.9c0,0.5-0.1,0.8-0.1,1.1H219.1z M225.8,229.5c0-1.5-0.6-3.7-3.2-3.7
		c-2.3,0-3.3,2.1-3.5,3.7H225.8z"/>
	<path d="M230.9,227.8c0-1.3,0-2.4-0.1-3.4h2l0.1,2.1h0.1c0.6-1.2,2.1-2.4,4.2-2.4c1.7,0,4.4,1,4.4,5.4v7.5h-2.3v-7.3
		c0-2-0.8-3.7-2.9-3.7c-1.5,0-2.7,1.1-3.1,2.3c-0.1,0.3-0.2,0.7-0.2,1.1v7.6h-2.3V227.8z"/>
	<path d="M246.6,231.1c0.1,3.1,2,4.4,4.3,4.4c1.6,0,2.6-0.3,3.5-0.7l0.4,1.6c-0.8,0.4-2.2,0.8-4.2,0.8c-3.9,0-6.2-2.5-6.2-6.3
		c0-3.8,2.2-6.8,5.9-6.8c4.1,0,5.2,3.6,5.2,5.9c0,0.5-0.1,0.8-0.1,1.1H246.6z M253.3,229.5c0-1.5-0.6-3.7-3.2-3.7
		c-2.3,0-3.3,2.1-3.5,3.7H253.3z"/>
	<path d="M269.2,224.4c-0.1,0.9-0.1,1.9-0.1,3.5v7.3c0,2.9-0.6,4.7-1.8,5.7c-1.2,1.1-3,1.5-4.6,1.5c-1.5,0-3.2-0.4-4.2-1l0.6-1.7
		c0.8,0.5,2.1,1,3.7,1c2.3,0,4.1-1.2,4.1-4.4v-1.4h-0.1c-0.7,1.2-2.1,2.1-4,2.1c-3.1,0-5.4-2.7-5.4-6.1c0-4.3,2.8-6.7,5.7-6.7
		c2.2,0,3.4,1.1,3.9,2.2h0.1l0.1-1.9H269.2z M266.8,229.4c0-0.4,0-0.7-0.1-1c-0.4-1.3-1.5-2.4-3.2-2.4c-2.2,0-3.7,1.8-3.7,4.8
		c0,2.5,1.2,4.5,3.7,4.5c1.4,0,2.7-0.9,3.2-2.3c0.1-0.4,0.2-0.8,0.2-1.2V229.4z M261.6,219.3c0.2,1,0.8,1.8,1.9,1.8
		c1.2,0,1.8-0.9,1.9-1.8h1.4c0,1.9-1.3,3.2-3.2,3.2c-2.3,0-3.2-1.6-3.2-3.2H261.6z"/>
	<path d="M275.3,220.9c0,0.8-0.5,1.4-1.5,1.4c-0.8,0-1.4-0.6-1.4-1.4c0-0.8,0.6-1.4,1.4-1.4C274.7,219.4,275.3,220.1,275.3,220.9z
		 M272.7,237v-12.6h2.3V237H272.7z"/>
	<path d="M284,234.6c0.7,0.4,1.9,0.9,3,0.9c1.7,0,2.4-0.8,2.4-1.9c0-1.1-0.7-1.7-2.3-2.3c-2.3-0.8-3.3-2.1-3.3-3.6
		c0-2,1.6-3.7,4.3-3.7c1.3,0,2.4,0.4,3.1,0.8l-0.6,1.7c-0.5-0.3-1.4-0.7-2.6-0.7c-1.4,0-2.1,0.8-2.1,1.7c0,1,0.8,1.5,2.4,2.1
		c2.2,0.8,3.3,1.9,3.3,3.8c0,2.2-1.7,3.8-4.7,3.8c-1.4,0-2.7-0.3-3.5-0.9L284,234.6z"/>
	<path d="M301.6,237l-0.2-1.6h-0.1c-0.7,1-2.1,1.9-3.8,1.9c-2.5,0-3.8-1.8-3.8-3.6c0-3,2.7-4.7,7.6-4.7v-0.3c0-1-0.3-2.9-2.9-2.9
		c-1.2,0-2.4,0.4-3.3,0.9l-0.5-1.5c1-0.7,2.5-1.1,4.1-1.1c3.8,0,4.8,2.6,4.8,5.1v4.7c0,1.1,0.1,2.2,0.2,3H301.6z M301.2,230.6
		c-2.5-0.1-5.3,0.4-5.3,2.8c0,1.5,1,2.2,2.2,2.2c1.6,0,2.7-1,3-2.1c0.1-0.2,0.1-0.5,0.1-0.7V230.6z"/>
	<path d="M307.8,224.4l2.8,7.4c0.3,0.8,0.6,1.8,0.8,2.6h0.1c0.2-0.8,0.5-1.7,0.8-2.6l2.5-7.4h2.4l-3.4,9c-1.6,4.3-2.8,6.5-4.3,7.9
		c-1.1,1-2.2,1.4-2.8,1.5l-0.6-1.9c0.6-0.2,1.3-0.5,2-1.1c0.6-0.5,1.4-1.4,1.9-2.5c0.1-0.2,0.2-0.4,0.2-0.5s-0.1-0.3-0.2-0.6
		l-4.7-11.6H307.8z"/>
	<path d="M319.4,237v-10.8h-1.8v-1.7h1.8v-0.6c0-1.8,0.4-3.4,1.5-4.4c0.9-0.8,2-1.2,3.1-1.2c0.8,0,1.5,0.2,2,0.4l-0.3,1.8
		c-0.3-0.2-0.8-0.3-1.5-0.3c-2,0-2.4,1.7-2.4,3.6v0.7h3v1.7h-3V237H319.4z"/>
	<path d="M333.7,237l-0.2-1.6h-0.1c-0.7,1-2.1,1.9-3.8,1.9c-2.5,0-3.8-1.8-3.8-3.6c0-3,2.7-4.7,7.6-4.7v-0.3c0-1-0.3-2.9-2.9-2.9
		c-1.2,0-2.4,0.4-3.3,0.9l-0.5-1.5c1-0.7,2.5-1.1,4.1-1.1c3.8,0,4.8,2.6,4.8,5.1v4.7c0,1.1,0.1,2.2,0.2,3H333.7z M333.4,230.6
		c-2.5-0.1-5.3,0.4-5.3,2.8c0,1.5,1,2.2,2.2,2.2c1.6,0,2.7-1,3-2.1c0.1-0.2,0.1-0.5,0.1-0.7V230.6z"/>
	<path d="M339.3,227.8c0-1.3,0-2.4-0.1-3.4h2l0.1,2.1h0.1c0.6-1.2,2.1-2.4,4.2-2.4c1.7,0,4.4,1,4.4,5.4v7.5h-2.3v-7.3
		c0-2-0.8-3.7-2.9-3.7c-1.5,0-2.7,1.1-3.1,2.3c-0.1,0.3-0.2,0.7-0.2,1.1v7.6h-2.3V227.8z"/>
	<path d="M353.7,237v-12.6h2.3V237H353.7z"/>
	<path d="M359.8,227.8c0-1.3,0-2.4-0.1-3.4h2l0.1,2.1h0.1c0.6-1.2,2.1-2.4,4.2-2.4c1.7,0,4.4,1,4.4,5.4v7.5h-2.3v-7.3
		c0-2-0.8-3.7-2.9-3.7c-1.5,0-2.7,1.1-3.1,2.3c-0.1,0.3-0.2,0.7-0.2,1.1v7.6h-2.3V227.8z"/>
	<path d="M381,231.1c0.1,3.1,2,4.4,4.3,4.4c1.6,0,2.6-0.3,3.5-0.7l0.4,1.6c-0.8,0.4-2.2,0.8-4.2,0.8c-3.9,0-6.2-2.5-6.2-6.3
		c0-3.8,2.2-6.8,5.9-6.8c4.1,0,5.2,3.6,5.2,5.9c0,0.5-0.1,0.8-0.1,1.1H381z M387.7,229.5c0-1.5-0.6-3.7-3.2-3.7
		c-2.3,0-3.3,2.1-3.5,3.7H387.7z"/>
	<path d="M392.8,227.8c0-1.3,0-2.4-0.1-3.4h2l0.1,2.1h0.1c0.6-1.2,2.1-2.4,4.2-2.4c1.7,0,4.4,1,4.4,5.4v7.5h-2.3v-7.3
		c0-2-0.8-3.7-2.9-3.7c-1.5,0-2.7,1.1-3.1,2.3c-0.1,0.3-0.2,0.7-0.2,1.1v7.6h-2.3V227.8z"/>
	<path d="M85.5,268.2l-0.2-1.6h-0.1c-0.7,1-2.1,1.9-3.8,1.9c-2.5,0-3.8-1.8-3.8-3.6c0-3,2.7-4.7,7.6-4.7v-0.3c0-1-0.3-2.9-2.9-2.9
		c-1.2,0-2.4,0.4-3.3,0.9l-0.5-1.5c1-0.7,2.5-1.1,4.1-1.1c3.8,0,4.8,2.6,4.8,5.1v4.7c0,1.1,0.1,2.2,0.2,3H85.5z M85.1,261.8
		c-2.5-0.1-5.3,0.4-5.3,2.8c0,1.5,1,2.2,2.2,2.2c1.6,0,2.7-1,3-2.1c0.1-0.2,0.1-0.5,0.1-0.7V261.8z"/>
	<path d="M91,249.7h2.3v18.5H91V249.7z"/>
	<path d="M99.9,252v3.6h3.3v1.7h-3.3v6.8c0,1.6,0.4,2.4,1.7,2.4c0.6,0,1-0.1,1.3-0.2l0.1,1.7c-0.4,0.2-1.1,0.3-2,0.3
		c-1.1,0-1.9-0.3-2.5-1c-0.7-0.7-0.9-1.8-0.9-3.3v-6.9h-1.9v-1.7h1.9v-3L99.9,252z"/>
	<path d="M113.6,261.4L113.6,261.4c0.4-0.4,0.8-1,1.2-1.4l3.7-4.3h2.8l-4.9,5.2l5.5,7.4h-2.8l-4.3-6l-1.2,1.3v4.7h-2.3v-18.5h2.3
		V261.4z"/>
	<path d="M123.9,268.2v-12.6h2.3v12.6H123.9z"/>
	<path d="M129.7,265.8c0.7,0.4,1.9,0.9,3,0.9c1.7,0,2.4-0.8,2.4-1.9c0-1.1-0.6-1.7-2.3-2.3c-2.3-0.8-3.3-2.1-3.3-3.6
		c0-2,1.6-3.7,4.3-3.7c1.3,0,2.4,0.4,3.1,0.8l-0.6,1.7c-0.5-0.3-1.4-0.7-2.6-0.7c-1.4,0-2.1,0.8-2.1,1.7c0,1,0.8,1.5,2.4,2.1
		c2.2,0.8,3.3,1.9,3.3,3.8c0,2.2-1.7,3.8-4.7,3.8c-1.4,0-2.7-0.3-3.5-0.9L129.7,265.8z"/>
	<path d="M140.3,259c0-1.3,0-2.4-0.1-3.4h2l0.1,2h0.1c0.7-1.2,1.9-2.3,4-2.3c1.7,0,3,1,3.6,2.5h0.1c0.4-0.7,0.9-1.2,1.4-1.6
		c0.8-0.6,1.6-0.9,2.8-0.9c1.7,0,4.1,1.1,4.1,5.5v7.4H156v-7.1c0-2.4-0.9-3.9-2.7-3.9c-1.3,0-2.3,1-2.7,2.1
		c-0.1,0.3-0.2,0.7-0.2,1.1v7.8h-2.2v-7.5c0-2-0.9-3.5-2.6-3.5c-1.4,0-2.5,1.1-2.8,2.3c-0.1,0.3-0.2,0.7-0.2,1.1v7.6h-2.2V259z"/>
	<path d="M162,268.2v-12.6h2.3v12.6H162z"/>
	<path d="M168.1,259c0-1.3,0-2.4-0.1-3.4h2l0.1,2.1h0.1c0.6-1.2,2.1-2.4,4.2-2.4c1.7,0,4.4,1,4.4,5.4v7.5h-2.3v-7.3
		c0-2-0.8-3.7-2.9-3.7c-1.5,0-2.7,1.1-3.1,2.3c-0.1,0.3-0.2,0.7-0.2,1.1v7.6h-2.3V259z"/>
	<path d="M193.4,249.7v15.2c0,1.1,0,2.4,0.1,3.3h-2.1l-0.1-2.2h-0.1c-0.7,1.4-2.2,2.5-4.3,2.5c-3,0-5.4-2.6-5.4-6.4
		c0-4.2,2.6-6.8,5.6-6.8c1.9,0,3.2,0.9,3.8,1.9h0.1v-7.5H193.4z M191.1,260.7c0-0.3,0-0.7-0.1-1c-0.3-1.5-1.6-2.7-3.3-2.7
		c-2.4,0-3.8,2.1-3.8,4.9c0,2.5,1.2,4.7,3.7,4.7c1.5,0,2.9-1,3.4-2.7c0.1-0.3,0.1-0.6,0.1-1V260.7z"/>
	<path d="M204.1,268.2l-0.2-1.6h-0.1c-0.7,1-2.1,1.9-3.8,1.9c-2.5,0-3.8-1.8-3.8-3.6c0-3,2.7-4.7,7.6-4.7v-0.3c0-1-0.3-2.9-2.9-2.9
		c-1.2,0-2.4,0.4-3.3,0.9l-0.5-1.5c1-0.7,2.5-1.1,4.1-1.1c3.8,0,4.8,2.6,4.8,5.1v4.7c0,1.1,0.1,2.2,0.2,3H204.1z M203.8,261.8
		c-2.5-0.1-5.3,0.4-5.3,2.8c0,1.5,1,2.2,2.2,2.2c1.6,0,2.7-1,3-2.1c0.1-0.2,0.1-0.5,0.1-0.7V261.8z"/>
	<path d="M209.7,259c0-1.3,0-2.4-0.1-3.4h2l0.1,2.1h0.1c0.6-1.2,2.1-2.4,4.2-2.4c1.7,0,4.4,1,4.4,5.4v7.5h-2.3v-7.3
		c0-2-0.8-3.7-2.9-3.7c-1.5,0-2.7,1.1-3.1,2.3c-0.1,0.3-0.2,0.7-0.2,1.1v7.6h-2.3V259z"/>
	<path d="M231.9,261.4L231.9,261.4c0.4-0.4,0.8-1,1.2-1.4l3.7-4.3h2.8l-4.9,5.2l5.5,7.4h-2.8l-4.3-6l-1.2,1.3v4.7h-2.3v-18.5h2.3
		V261.4z"/>
	<path d="M249.3,268.2l-0.2-1.6H249c-0.7,1-2.1,1.9-3.8,1.9c-2.5,0-3.8-1.8-3.8-3.6c0-3,2.7-4.7,7.6-4.7v-0.3c0-1-0.3-2.9-2.9-2.9
		c-1.2,0-2.4,0.4-3.3,0.9l-0.5-1.5c1-0.7,2.5-1.1,4.1-1.1c3.8,0,4.8,2.6,4.8,5.1v4.7c0,1.1,0.1,2.2,0.2,3H249.3z M248.9,261.8
		c-2.5-0.1-5.3,0.4-5.3,2.8c0,1.5,1,2.2,2.2,2.2c1.6,0,2.7-1,3-2.1c0.1-0.2,0.1-0.5,0.1-0.7V261.8z"/>
	<path d="M254.8,259.7c0-1.6-0.1-2.9-0.1-4.1h2.1l0.1,2.2h0.1c0.9-1.5,2.4-2.4,4.5-2.4c3,0,5.3,2.6,5.3,6.4c0,4.5-2.8,6.8-5.7,6.8
		c-1.7,0-3.1-0.7-3.9-2h-0.1v6.8h-2.3V259.7z M257.1,263.1c0,0.3,0.1,0.7,0.1,0.9c0.4,1.6,1.8,2.7,3.4,2.7c2.4,0,3.8-2,3.8-4.9
		c0-2.5-1.3-4.7-3.7-4.7c-1.6,0-3,1.1-3.5,2.8c-0.1,0.3-0.2,0.6-0.2,0.9V263.1z"/>
	<path d="M276.6,268.2l-0.2-1.6h-0.1c-0.7,1-2.1,1.9-3.8,1.9c-2.5,0-3.8-1.8-3.8-3.6c0-3,2.7-4.7,7.6-4.7v-0.3c0-1-0.3-2.9-2.9-2.9
		c-1.2,0-2.4,0.4-3.3,0.9l-0.5-1.5c1-0.7,2.5-1.1,4.1-1.1c3.8,0,4.8,2.6,4.8,5.1v4.7c0,1.1,0.1,2.2,0.2,3H276.6z M276.3,261.8
		c-2.5-0.1-5.3,0.4-5.3,2.8c0,1.5,1,2.2,2.2,2.2c1.6,0,2.7-1,3-2.1c0.1-0.2,0.1-0.5,0.1-0.7V261.8z"/>
	<path d="M284.8,252v3.6h3.3v1.7h-3.3v6.8c0,1.6,0.4,2.4,1.7,2.4c0.6,0,1-0.1,1.3-0.2l0.1,1.7c-0.4,0.2-1.1,0.3-2,0.3
		c-1.1,0-1.9-0.3-2.5-1c-0.7-0.7-0.9-1.8-0.9-3.3v-6.9h-2v-1.7h2v-3L284.8,252z"/>
	<path d="M297.6,268.2l-0.2-1.6h-0.1c-0.7,1-2.1,1.9-3.8,1.9c-2.5,0-3.8-1.8-3.8-3.6c0-3,2.7-4.7,7.6-4.7v-0.3c0-1-0.3-2.9-2.9-2.9
		c-1.2,0-2.4,0.4-3.3,0.9l-0.5-1.5c1-0.7,2.5-1.1,4.1-1.1c3.8,0,4.8,2.6,4.8,5.1v4.7c0,1.1,0.1,2.2,0.2,3H297.6z M297.3,261.8
		c-2.5-0.1-5.3,0.4-5.3,2.8c0,1.5,1,2.2,2.2,2.2c1.6,0,2.7-1,3-2.1c0.1-0.2,0.1-0.5,0.1-0.7V261.8z"/>
	<path d="M303.1,268.2c0.1-0.9,0.1-2.1,0.1-3.3v-15.2h2.3v7.9h0.1c0.8-1.4,2.3-2.3,4.3-2.3c3.1,0,5.3,2.6,5.3,6.4
		c0,4.5-2.8,6.7-5.6,6.7c-1.8,0-3.3-0.7-4.2-2.4h-0.1l-0.1,2.1H303.1z M305.5,263.1c0,0.3,0.1,0.6,0.1,0.8c0.4,1.6,1.8,2.7,3.4,2.7
		c2.4,0,3.8-2,3.8-4.8c0-2.5-1.3-4.7-3.7-4.7c-1.6,0-3,1.1-3.5,2.8c-0.1,0.3-0.1,0.6-0.1,0.9V263.1z"/>
	<path d="M320.5,252.1c0,0.8-0.5,1.4-1.5,1.4c-0.8,0-1.4-0.6-1.4-1.4c0-0.8,0.6-1.4,1.4-1.4C320,250.6,320.5,251.3,320.5,252.1z
		 M318,268.2v-12.6h2.3v12.6H318z"/>
	<path d="M324.1,249.7h2.3v18.5h-2.3V249.7z"/>
	<path d="M332.8,252.1c0,0.8-0.5,1.4-1.5,1.4c-0.8,0-1.4-0.6-1.4-1.4c0-0.8,0.6-1.4,1.4-1.4C332.2,250.6,332.8,251.3,332.8,252.1z
		 M330.2,268.2v-12.6h2.3v12.6H330.2z"/>
	<path d="M336.3,259.5c0-1.5,0-2.8-0.1-3.9h2l0.1,2.5h0.1c0.6-1.7,2-2.8,3.5-2.8c0.3,0,0.4,0,0.7,0.1v2.2c-0.2-0.1-0.5-0.1-0.8-0.1
		c-1.6,0-2.8,1.2-3.1,2.9c-0.1,0.3-0.1,0.7-0.1,1.1v6.7h-2.3V259.5z"/>
	<path d="M344.5,265.8c0.7,0.4,1.9,0.9,3,0.9c1.7,0,2.4-0.8,2.4-1.9c0-1.1-0.7-1.7-2.3-2.3c-2.3-0.8-3.3-2.1-3.3-3.6
		c0-2,1.6-3.7,4.3-3.7c1.3,0,2.4,0.4,3.1,0.8l-0.6,1.7c-0.5-0.3-1.4-0.7-2.6-0.7c-1.4,0-2.1,0.8-2.1,1.7c0,1,0.8,1.5,2.4,2.1
		c2.2,0.8,3.3,1.9,3.3,3.8c0,2.2-1.7,3.8-4.7,3.8c-1.4,0-2.7-0.3-3.5-0.9L344.5,265.8z"/>
	<path d="M357.6,252.1c0,0.8-0.5,1.4-1.5,1.4c-0.8,0-1.4-0.6-1.4-1.4c0-0.8,0.6-1.4,1.4-1.4C357.1,250.6,357.6,251.3,357.6,252.1z
		 M355.1,268.2v-12.6h2.3v12.6H355.1z"/>
	<path d="M361.2,259c0-1.3,0-2.4-0.1-3.4h2l0.1,2.1h0.1c0.6-1.2,2.1-2.4,4.2-2.4c1.7,0,4.4,1,4.4,5.4v7.5h-2.3v-7.3
		c0-2-0.8-3.7-2.9-3.7c-1.5,0-2.7,1.1-3.1,2.3c-0.1,0.3-0.2,0.7-0.2,1.1v7.6h-2.3V259z"/>
	<path d="M375.1,266.8c0-1,0.7-1.6,1.6-1.6s1.5,0.7,1.5,1.6c0,0.9-0.6,1.6-1.6,1.6C375.7,268.5,375.1,267.8,375.1,266.8z"/>
</g>
</svg>
