<svg id="Layer_1" data-name="Layer 1" xmlns="http://www.w3.org/2000/svg" viewBox="0 0 460 310"><defs><style>.cls-1{fill:gray;}.cls-2{font-size:22px;font-family:SegoeUIHistoric, Segoe UI Historic;}.cls-2,.cls-4{fill:#f2f2f2;}.cls-3{letter-spacing:0.01em;}</style></defs><title>tutorial-class-4</title><path d="M81,188.19a30.15,30.15,0,0,1,4.63-.36c3.12,0,5.35.74,6.82,2.12a7.67,7.67,0,0,1,2.39,6,9,9,0,0,1-2.42,6.55C90.83,204.1,88.23,205,85,205a34.39,34.39,0,0,1-4-.19ZM83.2,203.1a15.33,15.33,0,0,0,2.18.1c4.67,0,7.18-2.59,7.18-7.14,0-4-2.23-6.49-6.81-6.49a12.8,12.8,0,0,0-2.55.22Z"/><path d="M98.93,199.16c0,3,1.93,4.2,4.13,4.2a8.06,8.06,0,0,0,3.35-.62l.39,1.56a9.82,9.82,0,0,1-4,.77c-3.71,0-5.94-2.47-5.94-6.1s2.15-6.52,5.68-6.52c4,0,5,3.46,5,5.68a5.2,5.2,0,0,1-.08,1Zm6.43-1.58c0-1.38-.57-3.56-3-3.56-2.25,0-3.2,2-3.38,3.56Z"/><path d="M110.22,196.49c0-1.43,0-2.65-.1-3.77H112l.09,2.37h.08a3.65,3.65,0,0,1,3.36-2.64,2.34,2.34,0,0,1,.61.06v2.07a3.24,3.24,0,0,0-.75-.07,3.08,3.08,0,0,0-2.94,2.81,6.58,6.58,0,0,0-.09,1v6.46h-2.18Z"/><path d="M118.08,202.57a6.07,6.07,0,0,0,2.92.86c1.6,0,2.35-.79,2.35-1.8s-.64-1.61-2.25-2.21c-2.18-.79-3.22-2-3.21-3.43,0-2,1.58-3.54,4.18-3.54a5.85,5.85,0,0,1,3,.74l-.55,1.6a4.75,4.75,0,0,0-2.48-.71c-1.29,0-2,.74-2,1.66s.71,1.44,2.3,2.06c2.08.77,3.16,1.82,3.17,3.63,0,2.14-1.67,3.64-4.52,3.64a6.91,6.91,0,0,1-3.4-.84Z"/><path d="M134.83,199.16c0,3,1.92,4.2,4.13,4.2a8.06,8.06,0,0,0,3.35-.62l.39,1.56a9.82,9.82,0,0,1-4,.77c-3.71,0-5.95-2.47-5.95-6.1s2.16-6.52,5.69-6.52c3.95,0,5,3.46,5,5.68a5.2,5.2,0,0,1-.08,1Zm6.43-1.58c0-1.38-.57-3.56-3-3.56-2.25,0-3.2,2-3.38,3.56Z"/><path d="M148.3,198.26h0c.3-.42.71-1,1.06-1.37l3.56-4.17h2.64l-4.67,5,5.32,7.12h-2.68L149.43,199l-1.13,1.26v4.55h-2.18V187.06h2.18Z"/><path d="M158.27,187.06h2.19v17.75h-2.19Z"/><path d="M165.4,199.16c0,3,1.93,4.2,4.14,4.2a8,8,0,0,0,3.34-.62l.39,1.56a9.76,9.76,0,0,1-4,.77c-3.72,0-6-2.47-6-6.1s2.16-6.52,5.69-6.52c3.94,0,5,3.46,5,5.68a6.33,6.33,0,0,1-.07,1Zm6.43-1.58c0-1.38-.56-3.56-3-3.56-2.24,0-3.2,2-3.37,3.56Z"/><path d="M177.49,192.72l2.64,7.15c.28.8.58,1.74.78,2.46H181c.21-.71.48-1.64.77-2.51l2.39-7.1h2.33l-3.3,8.61c-1.57,4.16-2.65,6.27-4.14,7.58a6,6,0,0,1-2.7,1.41l-.55-1.83a5.77,5.77,0,0,0,1.93-1.08,7,7,0,0,0,1.84-2.45,1.32,1.32,0,0,0,.17-.53,1.59,1.59,0,0,0-.15-.56l-4.46-11.15Z"/><path d="M190.93,189.3a1.33,1.33,0,0,1-1.4,1.37,1.31,1.31,0,0,1-1.33-1.37,1.33,1.33,0,0,1,1.37-1.36A1.32,1.32,0,0,1,190.93,189.3Zm-2.46,15.51V192.72h2.19v12.09Z"/><path d="M194.32,196.66c0-1.54,0-2.8-.11-3.94h2l.12,2.06h0a4.73,4.73,0,0,1,4.29-2.33c2.93,0,5.13,2.46,5.13,6.13,0,4.36-2.66,6.5-5.49,6.5a4.22,4.22,0,0,1-3.73-1.9h-.05v6.58h-2.18Zm2.18,3.23a3.68,3.68,0,0,0,.1.89,3.36,3.36,0,0,0,3.28,2.58c2.33,0,3.68-1.91,3.68-4.68,0-2.41-1.27-4.49-3.59-4.49a3.5,3.5,0,0,0-3.33,2.72,3.84,3.84,0,0,0-.14.89Z"/><path d="M222.46,204.37a8.38,8.38,0,0,1-3.46.7c-3.65,0-6-2.48-6-6.18a6.16,6.16,0,0,1,6.5-6.44,7.17,7.17,0,0,1,3,.64l-.49,1.69a5.4,5.4,0,0,0-2.57-.58c-2.75,0-4.27,2.07-4.26,4.58,0,2.8,1.8,4.52,4.21,4.52a6.37,6.37,0,0,0,2.69-.58Zm-3,.38-.82,1.31a1.86,1.86,0,0,1,1.75,1.73c0,1.47-1.22,2-2.61,2a3.38,3.38,0,0,1-1.7-.44l.37-1.06a2.77,2.77,0,0,0,1.36.36c.55,0,1.08-.2,1.07-.79s-.77-.94-1.95-1l1.18-2.09Z"/><path d="M225,204.81V192.72h2.19v12.09Z"/><path d="M233.08,198.26h0c.29-.42.7-1,1.05-1.37l3.56-4.17h2.64l-4.67,5,5.33,7.12h-2.68L234.2,199l-1.12,1.26v4.55h-2.19V187.06h2.19Z"/><path d="M249.77,204.81l-.19-1.53h-.07a4.48,4.48,0,0,1-3.7,1.8,3.44,3.44,0,0,1-3.69-3.46c0-2.93,2.6-4.54,7.27-4.51v-.25a2.49,2.49,0,0,0-2.76-2.79,5.86,5.86,0,0,0-3.15.9l-.49-1.46a7.54,7.54,0,0,1,4-1.06c3.7,0,4.6,2.52,4.6,4.94v4.53a19.64,19.64,0,0,0,.18,2.89Zm-.34-6.17c-2.38,0-5.1.37-5.1,2.71a1.94,1.94,0,0,0,2,2.11,3,3,0,0,0,2.94-2,2.16,2.16,0,0,0,.11-.69Z"/><path d="M255.11,196.49c0-1.43,0-2.65-.1-3.77h1.93l.08,2.37h.08a3.67,3.67,0,0,1,3.37-2.64,2.34,2.34,0,0,1,.61.06v2.07a3.3,3.3,0,0,0-.75-.07,3.07,3.07,0,0,0-2.94,2.81,5.56,5.56,0,0,0-.09,1v6.46h-2.19Z"/><path d="M263.39,196c0-1.27,0-2.27-.1-3.27h1.91l.12,1.95h.06a4.17,4.17,0,0,1,3.82-2.22,3.55,3.55,0,0,1,3.4,2.42h0A4.86,4.86,0,0,1,274,193.3a4.12,4.12,0,0,1,2.66-.85c1.61,0,4,1,4,5.24v7.12h-2.15V198c0-2.34-.86-3.72-2.62-3.72a2.87,2.87,0,0,0-2.62,2,3.79,3.79,0,0,0-.18,1.11v7.48H271v-7.26c0-1.92-.85-3.3-2.51-3.3a3,3,0,0,0-2.74,2.19,3.44,3.44,0,0,0-.17,1.08v7.29h-2.15Z"/><path d="M290.94,204.81l-.19-1.53h-.07a4.46,4.46,0,0,1-3.69,1.8,3.45,3.45,0,0,1-3.7-3.46c0-2.93,2.6-4.54,7.27-4.51v-.25a2.49,2.49,0,0,0-2.75-2.79,5.84,5.84,0,0,0-3.15.9l-.5-1.46a7.55,7.55,0,0,1,4-1.06c3.69,0,4.59,2.52,4.59,4.94v4.53a18.28,18.28,0,0,0,.19,2.89Zm-.34-6.17c-2.38,0-5.1.37-5.1,2.71a1.94,1.94,0,0,0,2.05,2.11,3,3,0,0,0,2.95-2,2.45,2.45,0,0,0,.1-.69Z"/><path d="M298.47,198.26h0c.3-.42.71-1,1.06-1.37l3.56-4.17h2.64l-4.67,5,5.33,7.12h-2.68L299.6,199l-1.13,1.26v4.55h-2.18V187.06h2.18Z"/><path d="M315.77,189.3a1.36,1.36,0,1,1-2.72,0,1.33,1.33,0,0,1,1.37-1.36A1.3,1.3,0,0,1,315.77,189.3Zm-2.45,15.51V192.72h2.18v12.09Z"/><path d="M327.79,204.37a8.43,8.43,0,0,1-3.47.7c-3.65,0-6-2.48-6-6.18a6.15,6.15,0,0,1,6.49-6.44,7.22,7.22,0,0,1,3.06.64l-.49,1.69a5.43,5.43,0,0,0-2.57-.58c-2.76,0-4.27,2.07-4.27,4.58,0,2.8,1.8,4.52,4.21,4.52a6.33,6.33,0,0,0,2.69-.58Zm-3,.38-.82,1.31a1.86,1.86,0,0,1,1.75,1.73c0,1.47-1.21,2-2.61,2a3.43,3.43,0,0,1-1.7-.44l.38-1.06a2.7,2.7,0,0,0,1.35.36c.55,0,1.08-.2,1.07-.79s-.77-.94-1.95-1l1.18-2.09Z"/><path d="M332.82,189.3a1.36,1.36,0,1,1-2.72,0,1.33,1.33,0,0,1,1.37-1.36A1.3,1.3,0,0,1,332.82,189.3Zm-2.45,15.51V192.72h2.18v12.09Z"/><path d="M336.22,196c0-1.27,0-2.27-.1-3.27h1.94l.12,2h.06a4.46,4.46,0,0,1,4-2.26c1.66,0,4.26,1,4.26,5.15v7.21h-2.19v-7c0-2-.73-3.59-2.79-3.59a3.26,3.26,0,0,0-3.12,3.27v7.29h-2.18Z"/><path d="M355.29,204.81c.06-.83.1-2,.1-3.12V187.06h2.18v7.6h.05a4.46,4.46,0,0,1,4.12-2.21c3,0,5.12,2.49,5.11,6.15,0,4.34-2.75,6.48-5.45,6.48a4.36,4.36,0,0,1-4-2.26h-.06l-.11,2Zm2.28-4.85a3.5,3.5,0,0,0,.09.8,3.39,3.39,0,0,0,3.3,2.57c2.31,0,3.67-1.87,3.67-4.64,0-2.43-1.25-4.51-3.6-4.51a3.68,3.68,0,0,0-3.46,3.61Z"/><path d="M379.72,201.5c0,1.27,0,2.35.1,3.31h-1.94l-.12-2h-.06a4.5,4.5,0,0,1-4,2.25c-1.89,0-4.16-1.06-4.16-5.29v-7.07h2.19v6.68c0,2.3.71,3.87,2.7,3.87a3.21,3.21,0,0,0,2.91-2,3.44,3.44,0,0,0,.2-1.12v-7.41h2.18Z"/><path d="M86.64,232.57a6,6,0,0,0,2.91.86c1.6,0,2.35-.79,2.35-1.8s-.64-1.61-2.25-2.21c-2.18-.79-3.22-2-3.21-3.43,0-2,1.58-3.54,4.18-3.54a5.85,5.85,0,0,1,3,.74l-.54,1.6a4.81,4.81,0,0,0-2.48-.71c-1.3,0-2,.74-2,1.66s.71,1.44,2.3,2.06c2.08.77,3.16,1.82,3.17,3.63,0,2.14-1.66,3.64-4.52,3.64a6.91,6.91,0,0,1-3.4-.84Z"/><path d="M103.55,234.81l-.2-1.53h-.06a4.48,4.48,0,0,1-3.7,1.8,3.44,3.44,0,0,1-3.69-3.46c0-2.93,2.59-4.54,7.26-4.51v-.25a2.48,2.48,0,0,0-2.75-2.79,5.86,5.86,0,0,0-3.15.9l-.5-1.46a7.57,7.57,0,0,1,4-1.06c3.7,0,4.6,2.52,4.6,4.94v4.53a18.35,18.35,0,0,0,.18,2.89Zm-.34-6.17c-2.38,0-5.11.37-5.11,2.71a1.94,1.94,0,0,0,2.06,2.11,3,3,0,0,0,2.94-2,2.16,2.16,0,0,0,.11-.69Z"/><path d="M109.49,222.72l2.64,7.15c.29.8.58,1.74.78,2.46H113c.22-.71.48-1.64.77-2.51l2.39-7.1h2.34l-3.31,8.61c-1.57,4.16-2.64,6.27-4.14,7.58a6,6,0,0,1-2.7,1.41l-.54-1.83a5.83,5.83,0,0,0,1.92-1.08,7,7,0,0,0,1.84-2.45,1.32,1.32,0,0,0,.17-.53,1.39,1.39,0,0,0-.15-.56l-4.46-11.15Z"/><path d="M120.69,234.81V224.39H119v-1.67h1.69v-.58a5.81,5.81,0,0,1,1.4-4.24,4.23,4.23,0,0,1,2.94-1.11,4.76,4.76,0,0,1,1.88.35l-.29,1.69a3.36,3.36,0,0,0-1.42-.27c-1.85,0-2.34,1.64-2.34,3.51v.65h2.92v1.67h-2.91v10.42Z"/><path d="M134.47,234.81l-.19-1.53h-.07a4.46,4.46,0,0,1-3.69,1.8,3.45,3.45,0,0,1-3.7-3.46c0-2.93,2.6-4.54,7.27-4.51v-.25a2.49,2.49,0,0,0-2.76-2.79,5.8,5.8,0,0,0-3.14.9l-.5-1.46a7.55,7.55,0,0,1,4-1.06c3.69,0,4.59,2.52,4.59,4.94v4.53a18.28,18.28,0,0,0,.19,2.89Zm-.34-6.17c-2.38,0-5.1.37-5.1,2.71a1.94,1.94,0,0,0,2.05,2.11,3,3,0,0,0,2.95-2,2.45,2.45,0,0,0,.1-.69Z"/><path d="M140.42,222.72l2.64,7.15c.28.8.58,1.74.77,2.46h.07c.21-.71.48-1.64.77-2.51l2.39-7.1h2.33l-3.31,8.61c-1.56,4.16-2.64,6.27-4.14,7.58a5.94,5.94,0,0,1-2.69,1.41l-.55-1.83a5.87,5.87,0,0,0,1.93-1.08,7,7,0,0,0,1.84-2.45,1.32,1.32,0,0,0,.17-.53,1.46,1.46,0,0,0-.16-.56L138,222.72Z"/><path d="M158,234.81l-.2-1.53h-.06a4.48,4.48,0,0,1-3.7,1.8,3.44,3.44,0,0,1-3.69-3.46c0-2.93,2.59-4.54,7.26-4.51v-.25a2.48,2.48,0,0,0-2.75-2.79,5.86,5.86,0,0,0-3.15.9l-.5-1.46a7.57,7.57,0,0,1,4-1.06c3.7,0,4.6,2.52,4.6,4.94v4.53a18.35,18.35,0,0,0,.18,2.89Zm-.34-6.17c-2.38,0-5.11.37-5.11,2.71a1.94,1.94,0,0,0,2.06,2.11,3,3,0,0,0,2.94-2,2.16,2.16,0,0,0,.11-.69Z"/><path d="M179.08,222.72c-.06.86-.11,1.84-.11,3.31v7c0,2.8-.57,4.47-1.72,5.53a6.51,6.51,0,0,1-4.41,1.45,7.81,7.81,0,0,1-4-1l.55-1.69a6.86,6.86,0,0,0,3.56,1c2.24,0,3.89-1.17,3.89-4.23v-1.35h-.05a4.28,4.28,0,0,1-3.84,2c-3,0-5.15-2.57-5.15-5.92,0-4.09,2.66-6.4,5.45-6.4a4,4,0,0,1,3.78,2.08h0l.1-1.81Zm-2.29,4.76a3.45,3.45,0,0,0-.12-1,3.19,3.19,0,0,0-3.09-2.34c-2.1,0-3.6,1.78-3.6,4.59,0,2.36,1.22,4.35,3.58,4.35a3.22,3.22,0,0,0,3.06-2.27,4.09,4.09,0,0,0,.17-1.17Z"/><path d="M183.85,229.16c0,3,1.93,4.2,4.14,4.2a8,8,0,0,0,3.34-.62l.39,1.56a9.76,9.76,0,0,1-4,.77c-3.72,0-5.95-2.47-5.95-6.1s2.16-6.52,5.69-6.52c3.94,0,5,3.46,5,5.68a5.36,5.36,0,0,1-.07,1Zm6.43-1.58c0-1.38-.56-3.56-3-3.56-2.24,0-3.2,2-3.37,3.56Z"/><path d="M195.14,226.49c0-1.43,0-2.65-.1-3.77H197l.08,2.37h.08a3.66,3.66,0,0,1,3.37-2.64,2.38,2.38,0,0,1,.61.06v2.07a3.36,3.36,0,0,0-.75-.07,3.06,3.06,0,0,0-2.94,2.81,5.56,5.56,0,0,0-.09,1v6.46h-2.19Z"/><path d="M205.88,219.3a1.33,1.33,0,0,1-1.4,1.37,1.31,1.31,0,0,1-1.33-1.37,1.33,1.33,0,0,1,1.37-1.36A1.32,1.32,0,0,1,205.88,219.3Zm-2.46,15.51V222.72h2.19v12.09Z"/><path d="M225,217.06v14.63c0,1.08,0,2.28.1,3.12h-1.95l-.11-2.09H223a4.44,4.44,0,0,1-4.1,2.36c-2.93,0-5.19-2.47-5.19-6.14,0-4,2.49-6.49,5.43-6.49a4,4,0,0,1,3.65,1.83h0v-7.22Zm-2.18,10.58a4.29,4.29,0,0,0-.1-.94,3.24,3.24,0,0,0-3.18-2.53c-2.28,0-3.64,2-3.64,4.65,0,2.46,1.23,4.5,3.6,4.5a3.33,3.33,0,0,0,3.21-2.64,3.54,3.54,0,0,0,.11-1Z"/><path d="M239.61,228.65c0,4.48-3.11,6.43-6,6.43-3.28,0-5.81-2.39-5.81-6.22,0-4.05,2.66-6.41,6-6.41S239.61,225,239.61,228.65Zm-9.58.14c0,2.65,1.51,4.65,3.66,4.65s3.68-2,3.68-4.72c0-2-1-4.63-3.64-4.63S230,226.5,230,228.79Zm.1-9.5A1.26,1.26,0,0,1,231.4,218a1.27,1.27,0,0,1,0,2.54A1.24,1.24,0,0,1,230.13,219.29Zm4.63,0A1.26,1.26,0,0,1,236,218a1.27,1.27,0,0,1,0,2.54A1.24,1.24,0,0,1,234.76,219.29Z"/><path d="M242.39,226c0-1.27,0-2.27-.1-3.27h2l.12,2h.06a4.45,4.45,0,0,1,4-2.26c1.66,0,4.26,1,4.26,5.15v7.21h-2.19v-7c0-2-.74-3.59-2.79-3.59a3.17,3.17,0,0,0-3,2.25,3.48,3.48,0,0,0-.15,1v7.29h-2.19Z"/><path d="M257.5,229.16c0,3,1.93,4.2,4.14,4.2a8,8,0,0,0,3.34-.62l.39,1.56a9.76,9.76,0,0,1-4,.77c-3.72,0-5.95-2.47-5.95-6.1s2.16-6.52,5.69-6.52c3.94,0,5,3.46,5,5.68a6.33,6.33,0,0,1-.07,1Zm6.43-1.58c0-1.38-.56-3.56-3-3.56-2.24,0-3.2,2-3.37,3.56Z"/><path d="M268.69,234.81c.06-.83.1-2,.1-3.12V217.06H271v7.6h0a4.46,4.46,0,0,1,4.12-2.21c3,0,5.11,2.49,5.1,6.15,0,4.34-2.75,6.48-5.44,6.48a4.34,4.34,0,0,1-4.05-2.26h-.06l-.11,2ZM271,230a3.5,3.5,0,0,0,.09.8,3.38,3.38,0,0,0,3.29,2.57c2.32,0,3.67-1.87,3.67-4.64,0-2.43-1.25-4.51-3.6-4.51a3.63,3.63,0,0,0-3.45,3.61Z"/><path d="M285.47,219.3a1.36,1.36,0,1,1-2.72,0,1.33,1.33,0,0,1,1.37-1.36A1.3,1.3,0,0,1,285.47,219.3ZM283,234.81V222.72h2.19v12.09Z"/><path d="M288.87,217.06h2.19v17.75h-2.19Z"/><path d="M296,229.16c0,3,1.93,4.2,4.13,4.2a8.06,8.06,0,0,0,3.35-.62l.39,1.56a9.82,9.82,0,0,1-4,.77c-3.71,0-5.94-2.47-5.94-6.1s2.15-6.52,5.68-6.52c3.95,0,5,3.46,5,5.68a5.2,5.2,0,0,1-.08,1Zm6.43-1.58c0-1.38-.57-3.56-3-3.56-2.24,0-3.2,2-3.38,3.56Z"/><path d="M315.91,234.37a8.39,8.39,0,0,1-3.47.7c-3.64,0-6-2.48-6-6.18a6.16,6.16,0,0,1,6.5-6.44,7.17,7.17,0,0,1,3,.64l-.49,1.69a5.43,5.43,0,0,0-2.57-.58c-2.75,0-4.27,2.07-4.26,4.58,0,2.8,1.8,4.52,4.21,4.52a6.37,6.37,0,0,0,2.69-.58Z"/><path d="M319.57,229.16c.05,3,1.93,4.2,4.14,4.2a8.09,8.09,0,0,0,3.35-.62l.38,1.56a9.76,9.76,0,0,1-4,.77c-3.71,0-6-2.47-6-6.1s2.16-6.52,5.69-6.52c3.94,0,5,3.46,5,5.68a5.36,5.36,0,0,1-.07,1Zm6.44-1.58c0-1.38-.57-3.56-3-3.56-2.24,0-3.19,2-3.37,3.56Z"/><path d="M333.05,228.26h.05c.29-.42.71-1,1-1.37l3.57-4.17h2.64l-4.67,5,5.32,7.12h-2.68L334.17,229l-1.12,1.26v4.55h-2.19V217.06h2.19Z"/><path d="M342.28,232.57a6,6,0,0,0,2.92.86c1.6,0,2.34-.79,2.34-1.8s-.63-1.61-2.24-2.21c-2.19-.79-3.22-2-3.21-3.43,0-2,1.58-3.54,4.18-3.54a5.85,5.85,0,0,1,3,.74l-.55,1.6a4.75,4.75,0,0,0-2.48-.71c-1.29,0-2,.74-2,1.66s.71,1.44,2.3,2.06c2.08.77,3.16,1.82,3.17,3.63,0,2.14-1.67,3.64-4.52,3.64a6.88,6.88,0,0,1-3.4-.84Z"/><path d="M355,219.3a1.33,1.33,0,0,1-1.4,1.37,1.31,1.31,0,0,1-1.33-1.37,1.34,1.34,0,0,1,1.37-1.36A1.32,1.32,0,0,1,355,219.3Zm-2.46,15.51V222.72h2.19v12.09Z"/><path d="M358.34,226c0-1.27,0-2.27-.1-3.27h1.94l.13,2h.06a4.44,4.44,0,0,1,4-2.26c1.66,0,4.26,1,4.26,5.15v7.21h-2.18v-7c0-2-.74-3.59-2.8-3.59a3.16,3.16,0,0,0-3,2.25,3.48,3.48,0,0,0-.15,1v7.29h-2.19Z"/><path d="M371.69,233.52a1.49,1.49,0,0,1,1.5-1.59,1.58,1.58,0,0,1,0,3.15A1.47,1.47,0,0,1,371.69,233.52Z"/><rect class="cls-1" x="120" y="69" width="220" height="54" rx="10"/><text class="cls-2" transform="translate(173.44 103.28)">De<tspan class="cls-3" x="26.93" y="0">r</tspan><tspan x="34.73" y="0">s ekle / çıkar</tspan></text><path class="cls-4" d="M157.62,94.3H143.15l4.56-4.57a1.2,1.2,0,0,0,.34-.84,1.18,1.18,0,0,0-.34-.84l-.71-.71a1.15,1.15,0,0,0-.84-.35,1.16,1.16,0,0,0-.84.35l-7.81,7.81a1.18,1.18,0,0,0,0,1.68l7.81,7.81a1.16,1.16,0,0,0,.84.35,1.15,1.15,0,0,0,.84-.35l.71-.71a1.17,1.17,0,0,0,.34-.83,1.13,1.13,0,0,0-.34-.82l-4.61-4.6h14.53a1.23,1.23,0,0,0,1.21-1.21v-1A1.21,1.21,0,0,0,157.62,94.3Z"/></svg>