<svg id="Layer_1" data-name="Layer 1" xmlns="http://www.w3.org/2000/svg" viewBox="0 0 460 310"><defs><style>.cls-1{fill:#007bff;}.cls-2{font-size:22px;fill:#f2f2f2;font-family:SegoeUIHistoric, Segoe UI Historic;}.cls-3{letter-spacing:-0.01em;}</style></defs><title>tutorial-create-2</title><path d="M55.15,188.11h9.08v1.81H57.34v5.61H63.7v1.8H57.34V205H55.15Z"/><path d="M69.07,189.45a1.33,1.33,0,0,1-1.4,1.37,1.31,1.31,0,0,1-1.32-1.37,1.33,1.33,0,0,1,1.36-1.37A1.32,1.32,0,0,1,69.07,189.45ZM66.61,205V192.87H68.8V205Z"/><path d="M72.46,187.21h2.19V205H72.46Z"/><path d="M81,189.39v3.48h3.16v1.67H81v6.51c0,1.5.44,2.36,1.67,2.36a4.31,4.31,0,0,0,1.27-.16l.1,1.67a5.83,5.83,0,0,1-2,.3,3.09,3.09,0,0,1-2.38-.93,4.65,4.65,0,0,1-.85-3.15v-6.6H77v-1.67h1.87V190Z"/><path d="M86.63,196.63c0-1.42,0-2.64-.1-3.76h1.93l.08,2.37h.08A3.68,3.68,0,0,1,92,192.59a2.32,2.32,0,0,1,.61.07v2.06a4,4,0,0,0-.75-.06,3.07,3.07,0,0,0-2.94,2.81,5.56,5.56,0,0,0-.09,1V205H86.63Z"/><path d="M95.79,199.31c0,3,1.93,4.2,4.14,4.2a8.26,8.26,0,0,0,3.35-.62l.38,1.56a9.76,9.76,0,0,1-4,.77c-3.71,0-5.95-2.47-5.95-6.1s2.16-6.53,5.69-6.53c3.94,0,5,3.46,5,5.69a5.36,5.36,0,0,1-.07,1Zm6.44-1.58c0-1.39-.57-3.56-3-3.56-2.25,0-3.2,2-3.38,3.56Z"/><path d="M107.09,187.21h2.19V205h-2.19Z"/><path d="M114.22,199.31c0,3,1.93,4.2,4.14,4.2a8.2,8.2,0,0,0,3.34-.62l.39,1.56a9.76,9.76,0,0,1-4,.77c-3.72,0-6-2.47-6-6.1s2.16-6.53,5.68-6.53c3.95,0,5,3.46,5,5.69a6.33,6.33,0,0,1-.07,1Zm6.43-1.58c0-1.39-.57-3.56-3-3.56-2.24,0-3.2,2-3.37,3.56Z"/><path d="M125.51,196.63c0-1.42,0-2.64-.1-3.76h1.92l.09,2.37h.08a3.66,3.66,0,0,1,3.36-2.65,2.32,2.32,0,0,1,.61.07v2.06a4,4,0,0,0-.74-.06,3.08,3.08,0,0,0-2.95,2.81,6.63,6.63,0,0,0-.08,1V205h-2.19Z"/><path d="M136.24,189.45a1.36,1.36,0,1,1-2.72,0,1.34,1.34,0,0,1,1.37-1.37A1.31,1.31,0,0,1,136.24,189.45ZM133.79,205V192.87H136V205Z"/><path d="M147.12,198.41h0c.29-.42.71-1,1.05-1.37l3.57-4.17h2.64l-4.67,5,5.32,7.12H152.4l-4.16-5.81-1.12,1.26V205h-2.19V187.21h2.19Z"/><path d="M166.87,201.65c0,1.27,0,2.35.1,3.31H165l-.12-2h-.06a4.53,4.53,0,0,1-4,2.25c-1.89,0-4.16-1.06-4.16-5.3v-7.06h2.18v6.68c0,2.3.72,3.87,2.7,3.87a3.18,3.18,0,0,0,2.91-2,3.25,3.25,0,0,0,.2-1.13v-7.4h2.19Z"/><path d="M170.54,187.21h2.18V205h-2.18Z"/><path d="M176.44,187.21h2.19V205h-2.19Z"/><path d="M189,205l-.19-1.53h-.07a4.5,4.5,0,0,1-3.7,1.8,3.45,3.45,0,0,1-3.69-3.47c0-2.92,2.59-4.53,7.26-4.5V197a2.48,2.48,0,0,0-2.75-2.78,5.86,5.86,0,0,0-3.15.9l-.5-1.47a7.67,7.67,0,0,1,4-1.06c3.7,0,4.6,2.53,4.6,4.95v4.52A19.69,19.69,0,0,0,191,205Zm-.34-6.17c-2.38-.06-5.11.37-5.11,2.71a1.94,1.94,0,0,0,2.06,2.1,3,3,0,0,0,2.94-2,2.16,2.16,0,0,0,.11-.69Z"/><path d="M194.39,196.13c0-1.26,0-2.26-.1-3.26h1.94l.12,2h.06a4.47,4.47,0,0,1,4-2.27c1.66,0,4.26,1,4.26,5.16V205h-2.19v-7c0-2-.73-3.59-2.79-3.59a3.26,3.26,0,0,0-3.12,3.27V205h-2.18Z"/><path d="M215,205l-.19-1.53h-.07a4.48,4.48,0,0,1-3.69,1.8,3.45,3.45,0,0,1-3.7-3.47c0-2.92,2.6-4.53,7.27-4.5V197a2.48,2.48,0,0,0-2.75-2.78,5.84,5.84,0,0,0-3.15.9l-.5-1.47a7.64,7.64,0,0,1,4-1.06c3.69,0,4.59,2.53,4.59,4.95v4.52A18.33,18.33,0,0,0,217,205Zm-.34-6.17c-2.38-.06-5.1.37-5.1,2.71a1.93,1.93,0,0,0,2,2.1,3,3,0,0,0,3-2,2.45,2.45,0,0,0,.1-.69Z"/><path d="M220.31,196.63c0-1.42,0-2.64-.1-3.76h1.92l.09,2.37h.08a3.66,3.66,0,0,1,3.36-2.65,2.32,2.32,0,0,1,.61.07v2.06a4,4,0,0,0-.74-.06,3.08,3.08,0,0,0-2.95,2.81,6.58,6.58,0,0,0-.09,1V205h-2.18Z"/><path d="M235.06,205l-.19-1.53h-.07a4.48,4.48,0,0,1-3.69,1.8,3.45,3.45,0,0,1-3.7-3.47c0-2.92,2.6-4.53,7.27-4.5V197a2.48,2.48,0,0,0-2.75-2.78,5.84,5.84,0,0,0-3.15.9l-.5-1.47a7.64,7.64,0,0,1,4-1.06c3.69,0,4.59,2.53,4.59,4.95v4.52a18.33,18.33,0,0,0,.19,2.9Zm-.34-6.17c-2.38-.06-5.1.37-5.1,2.71a1.93,1.93,0,0,0,2,2.1,3,3,0,0,0,3-2,2.45,2.45,0,0,0,.1-.69Z"/><path d="M242.59,198.41h0c.3-.42.71-1,1.06-1.37l3.56-4.17h2.64l-4.67,5,5.32,7.12h-2.67l-4.16-5.81-1.13,1.26V205h-2.18V187.21h2.18Z"/><path d="M257.44,187.21h2.18v7.55h.05a4.35,4.35,0,0,1,1.58-1.55,4.44,4.44,0,0,1,2.26-.62c1.62,0,4.21,1,4.21,5.17V205h-2.19v-7c0-1.95-.74-3.59-2.79-3.59a3.21,3.21,0,0,0-3,2.19,3.1,3.1,0,0,0-.15,1.05V205h-2.18Z"/><path d="M278,205l-.19-1.53h-.07a4.48,4.48,0,0,1-3.69,1.8,3.45,3.45,0,0,1-3.7-3.47c0-2.92,2.6-4.53,7.27-4.5V197a2.48,2.48,0,0,0-2.75-2.78,5.81,5.81,0,0,0-3.15.9l-.5-1.47a7.64,7.64,0,0,1,4-1.06c3.69,0,4.59,2.53,4.59,4.95v4.52A18.33,18.33,0,0,0,280,205Zm-.34-6.17c-2.38-.06-5.1.37-5.1,2.71a1.93,1.93,0,0,0,2.05,2.1,3,3,0,0,0,2.95-2,2.45,2.45,0,0,0,.1-.69Z"/><path d="M283.36,196.13c0-1.26,0-2.26-.1-3.26h1.94l.12,2h.07a4.45,4.45,0,0,1,4-2.27c1.66,0,4.26,1,4.26,5.16V205h-2.18v-7c0-2-.74-3.59-2.8-3.59a3.16,3.16,0,0,0-3,2.25,3.48,3.48,0,0,0-.15,1V205h-2.19Z"/><path d="M307.67,192.87c-.06.85-.11,1.84-.11,3.31v7c0,2.79-.57,4.47-1.72,5.53a6.51,6.51,0,0,1-4.41,1.45,7.81,7.81,0,0,1-4-1l.55-1.7a6.76,6.76,0,0,0,3.56,1c2.24,0,3.89-1.17,3.89-4.23v-1.35h0a4.28,4.28,0,0,1-3.84,2c-3,0-5.15-2.57-5.15-5.92,0-4.1,2.66-6.41,5.45-6.41a4,4,0,0,1,3.77,2.09h.05l.1-1.81Zm-2.29,4.75a3.38,3.38,0,0,0-.12-1,3.19,3.19,0,0,0-3.09-2.34c-2.1,0-3.6,1.78-3.6,4.58,0,2.37,1.22,4.36,3.58,4.36a3.22,3.22,0,0,0,3.06-2.27,4.09,4.09,0,0,0,.17-1.17Z"/><path d="M313.52,189.45a1.33,1.33,0,0,1-1.4,1.37,1.31,1.31,0,0,1-1.33-1.37,1.34,1.34,0,0,1,1.37-1.37A1.32,1.32,0,0,1,313.52,189.45ZM311.06,205V192.87h2.19V205Z"/><path d="M332.64,187.21v14.63c0,1.07,0,2.28.1,3.12h-1.95l-.11-2.09h-.06a4.43,4.43,0,0,1-4.1,2.36c-2.93,0-5.19-2.47-5.19-6.14,0-4,2.49-6.5,5.43-6.5a4,4,0,0,1,3.65,1.84h0v-7.22Zm-2.18,10.58a5,5,0,0,0-.09-.94,3.26,3.26,0,0,0-3.19-2.53c-2.27,0-3.64,2-3.64,4.65,0,2.46,1.23,4.49,3.6,4.49a3.32,3.32,0,0,0,3.21-2.63,3.54,3.54,0,0,0,.11-1Z"/><path d="M337.54,199.31c0,3,1.93,4.2,4.14,4.2a8.2,8.2,0,0,0,3.34-.62l.39,1.56a9.76,9.76,0,0,1-4,.77c-3.72,0-5.95-2.47-5.95-6.1s2.16-6.53,5.69-6.53c3.94,0,5,3.46,5,5.69a6.33,6.33,0,0,1-.07,1Zm6.43-1.58c0-1.39-.56-3.56-3-3.56-2.24,0-3.2,2-3.37,3.56Z"/><path d="M348.83,196.63c0-1.42,0-2.64-.1-3.76h1.93l.08,2.37h.08a3.67,3.67,0,0,1,3.37-2.65,2.37,2.37,0,0,1,.61.07v2.06a4.14,4.14,0,0,0-.75-.06,3.07,3.07,0,0,0-2.94,2.81,5.56,5.56,0,0,0-.09,1V205h-2.19Z"/><path d="M356.7,202.72a6,6,0,0,0,2.91.86c1.61,0,2.35-.79,2.35-1.8s-.64-1.61-2.25-2.21c-2.18-.79-3.21-2-3.21-3.43,0-1.95,1.58-3.55,4.18-3.55a5.91,5.91,0,0,1,3,.75l-.55,1.6a4.68,4.68,0,0,0-2.48-.72c-1.3,0-2,.75-2,1.66s.71,1.45,2.29,2.07c2.09.77,3.17,1.82,3.17,3.63,0,2.14-1.66,3.64-4.52,3.64a6.87,6.87,0,0,1-3.39-.84Z"/><path d="M366.91,187.21h2.19V205h-2.19Z"/><path d="M374,199.31c0,3,1.93,4.2,4.14,4.2a8.2,8.2,0,0,0,3.34-.62l.39,1.56a9.76,9.76,0,0,1-4,.77c-3.72,0-5.95-2.47-5.95-6.1s2.16-6.53,5.69-6.53c3.94,0,5,3.46,5,5.69a6.33,6.33,0,0,1-.07,1Zm6.43-1.58c0-1.39-.56-3.56-3-3.56-2.24,0-3.2,2-3.37,3.56Z"/><path d="M385.33,196.63c0-1.42,0-2.64-.1-3.76h1.93l.08,2.37h.08a3.67,3.67,0,0,1,3.36-2.65,2.4,2.4,0,0,1,.62.07v2.06a4.14,4.14,0,0,0-.75-.06,3.06,3.06,0,0,0-2.94,2.81,5.56,5.56,0,0,0-.09,1V205h-2.19Z"/><path d="M396.07,189.45a1.33,1.33,0,0,1-1.4,1.37,1.31,1.31,0,0,1-1.33-1.37,1.34,1.34,0,0,1,1.37-1.37A1.32,1.32,0,0,1,396.07,189.45ZM393.61,205V192.87h2.19V205Z"/><path d="M399.46,196.13c0-1.26,0-2.26-.1-3.26h1.94l.12,2h.06a4.47,4.47,0,0,1,4-2.27c1.66,0,4.26,1,4.26,5.16V205h-2.19v-7c0-2-.73-3.59-2.79-3.59a3.16,3.16,0,0,0-3,2.25,3.48,3.48,0,0,0-.15,1V205h-2.19Z"/><path d="M31.8,217.21H34v7.55h0a4.28,4.28,0,0,1,1.58-1.55,4.43,4.43,0,0,1,2.25-.62c1.63,0,4.21,1,4.21,5.17V235H39.9v-7c0-1.95-.74-3.59-2.8-3.59a3.2,3.2,0,0,0-3,2.19,2.87,2.87,0,0,0-.15,1.05V235H31.8Z"/><path d="M52.38,235l-.19-1.53h-.07a4.5,4.5,0,0,1-3.7,1.8,3.45,3.45,0,0,1-3.69-3.47c0-2.92,2.59-4.53,7.26-4.5V227a2.48,2.48,0,0,0-2.75-2.78,5.86,5.86,0,0,0-3.15.9l-.5-1.47a7.67,7.67,0,0,1,4-1.06c3.7,0,4.6,2.53,4.6,4.95v4.52a19.69,19.69,0,0,0,.18,2.9ZM52,228.79c-2.38-.06-5.11.37-5.11,2.71A1.94,1.94,0,0,0,49,233.6a3,3,0,0,0,2.94-2,2.16,2.16,0,0,0,.11-.69Z"/><path d="M58.37,222.87l2.37,6.78c.41,1.12.72,2.11,1,3.12h.07c.28-1,.62-2,1-3.12l2.37-6.78h2.29L62.72,235h-2.1L56,222.87Z"/><path d="M79.66,231.65c0,1.27,0,2.35.1,3.31H77.82l-.12-2h-.06a4.53,4.53,0,0,1-4,2.25c-1.89,0-4.17-1.06-4.17-5.3v-7.06h2.19v6.68c0,2.3.72,3.87,2.7,3.87a3.19,3.19,0,0,0,2.91-2,3.51,3.51,0,0,0,.2-1.13v-7.4h2.19Z"/><path d="M82,233.68l5.47-7.11c.54-.67,1-1.25,1.59-1.89v-.05H82.44v-1.76h9.23v1.37l-5.41,7c-.51.65-1,1.27-1.55,1.88v0h7.06V235H82Z"/><path d="M104.28,217.21v14.63c0,1.07,0,2.28.1,3.12h-1.95l-.11-2.09h-.06a4.43,4.43,0,0,1-4.1,2.36c-2.93,0-5.19-2.47-5.19-6.14,0-4,2.49-6.5,5.43-6.5a4,4,0,0,1,3.65,1.84h0v-7.22Zm-2.18,10.58a5,5,0,0,0-.09-.94,3.25,3.25,0,0,0-3.19-2.53c-2.27,0-3.63,2-3.63,4.65,0,2.46,1.22,4.49,3.59,4.49a3.31,3.31,0,0,0,3.21-2.63,3.54,3.54,0,0,0,.11-1Z"/><path d="M114.65,235l-.19-1.53h-.07a4.48,4.48,0,0,1-3.69,1.8,3.45,3.45,0,0,1-3.7-3.47c0-2.92,2.6-4.53,7.27-4.5V227a2.48,2.48,0,0,0-2.75-2.78,5.81,5.81,0,0,0-3.15.9l-.5-1.47a7.64,7.64,0,0,1,4-1.06c3.69,0,4.59,2.53,4.59,4.95v4.52a18.33,18.33,0,0,0,.19,2.9Zm-.34-6.17c-2.38-.06-5.1.37-5.1,2.71a1.93,1.93,0,0,0,2.05,2.1,3,3,0,0,0,2.95-2,2.45,2.45,0,0,0,.1-.69Z"/><path d="M135.73,222.87c-.06.85-.1,1.84-.1,3.31v7c0,2.79-.57,4.47-1.73,5.53a6.46,6.46,0,0,1-4.4,1.45,7.88,7.88,0,0,1-4-1l.56-1.7a6.72,6.72,0,0,0,3.55,1c2.25,0,3.9-1.17,3.9-4.23v-1.35h-.05a4.28,4.28,0,0,1-3.84,2c-3,0-5.16-2.57-5.16-5.92,0-4.1,2.67-6.41,5.46-6.41a4,4,0,0,1,3.77,2.09h0l.09-1.81Zm-2.29,4.75a3.38,3.38,0,0,0-.12-1,3.16,3.16,0,0,0-3.08-2.34c-2.1,0-3.61,1.78-3.61,4.58,0,2.37,1.23,4.36,3.58,4.36a3.21,3.21,0,0,0,3.06-2.27,3.76,3.76,0,0,0,.17-1.17Z"/><path d="M150.22,228.8c0,4.47-3.11,6.43-6,6.43-3.28,0-5.82-2.39-5.82-6.23,0-4,2.66-6.41,6-6.41S150.22,225.12,150.22,228.8Zm-9.59.14c0,2.65,1.52,4.64,3.67,4.64s3.68-2,3.68-4.71c0-2-1-4.63-3.64-4.63S140.63,226.65,140.63,228.94Zm.1-9.5a1.28,1.28,0,0,1,1.28-1.28,1.28,1.28,0,0,1,0,2.55A1.25,1.25,0,0,1,140.73,219.44Zm4.64,0a1.26,1.26,0,0,1,1.26-1.28,1.28,1.28,0,1,1-1.26,1.28Z"/><path d="M153,226.63c0-1.42,0-2.64-.1-3.76h1.92l.09,2.37H155a3.68,3.68,0,0,1,3.37-2.65,2.32,2.32,0,0,1,.61.07v2.06a4,4,0,0,0-.75-.06,3.08,3.08,0,0,0-2.94,2.81,5.56,5.56,0,0,0-.09,1V235H153Z"/><path d="M171.23,231.65c0,1.27,0,2.35.1,3.31h-1.94l-.12-2h-.06a4.5,4.5,0,0,1-4,2.25c-1.89,0-4.16-1.06-4.16-5.3v-7.06h2.19v6.68c0,2.3.71,3.87,2.7,3.87a3.21,3.21,0,0,0,2.91-2,3.51,3.51,0,0,0,.2-1.13v-7.4h2.18Zm-8.54-12.21a1.27,1.27,0,0,1,1.27-1.28,1.28,1.28,0,0,1,0,2.55A1.24,1.24,0,0,1,162.69,219.44Zm4.63,0a1.27,1.27,0,0,1,1.27-1.28,1.28,1.28,0,0,1,0,2.55A1.24,1.24,0,0,1,167.32,219.44Z"/><path d="M174.9,226.13c0-1.26,0-2.26-.1-3.26h1.94l.12,2h.07a4.45,4.45,0,0,1,4-2.27c1.66,0,4.26,1,4.26,5.16V235H183v-7c0-2-.74-3.59-2.8-3.59a3.16,3.16,0,0,0-3,2.25,3.48,3.48,0,0,0-.15,1V235H174.9Z"/><path d="M198.88,231.65c0,1.27,0,2.35.1,3.31H197l-.12-2h-.06a4.5,4.5,0,0,1-4,2.25c-1.89,0-4.16-1.06-4.16-5.3v-7.06h2.19v6.68c0,2.3.71,3.87,2.7,3.87a3.21,3.21,0,0,0,2.91-2,3.51,3.51,0,0,0,.2-1.13v-7.4h2.18Zm-8.54-12.21a1.27,1.27,0,0,1,1.27-1.28,1.28,1.28,0,0,1,0,2.55A1.24,1.24,0,0,1,190.34,219.44Zm4.63,0a1.27,1.27,0,0,1,1.27-1.28,1.28,1.28,0,0,1,0,2.55A1.24,1.24,0,0,1,195,219.44Z"/><path d="M202.55,226.63c0-1.42,0-2.64-.1-3.76h1.92l.09,2.37h.07a3.68,3.68,0,0,1,3.37-2.65,2.32,2.32,0,0,1,.61.07v2.06a4,4,0,0,0-.75-.06,3.07,3.07,0,0,0-2.94,2.81,5.56,5.56,0,0,0-.09,1V235h-2.18Z"/><path d="M227,228.8c0,4.47-3.11,6.43-6,6.43-3.28,0-5.82-2.39-5.82-6.23,0-4,2.66-6.41,6-6.41S227,225.12,227,228.8Zm-9.59.14c0,2.65,1.52,4.64,3.66,4.64s3.69-2,3.69-4.71c0-2-1-4.63-3.65-4.63S217.38,226.65,217.38,228.94Z"/><path d="M229.75,217.21h2.19V235h-2.19Z"/><path d="M242.35,235l-.19-1.53h-.07a4.49,4.49,0,0,1-3.7,1.8,3.45,3.45,0,0,1-3.69-3.47c0-2.92,2.6-4.53,7.27-4.5V227a2.49,2.49,0,0,0-2.76-2.78,5.8,5.8,0,0,0-3.14.9l-.5-1.47a7.64,7.64,0,0,1,4-1.06c3.69,0,4.59,2.53,4.59,4.95v4.52a19.69,19.69,0,0,0,.18,2.9Zm-.34-6.17c-2.38-.06-5.1.37-5.1,2.71a1.93,1.93,0,0,0,2.05,2.1,3,3,0,0,0,2.95-2,2.45,2.45,0,0,0,.1-.69Z"/><path d="M256.32,234.52a8.39,8.39,0,0,1-3.47.7c-3.64,0-6-2.48-6-6.18a6.15,6.15,0,0,1,6.49-6.44,7.18,7.18,0,0,1,3.06.64l-.49,1.69a5.31,5.31,0,0,0-2.57-.58c-2.76,0-4.27,2.07-4.27,4.58,0,2.8,1.8,4.52,4.22,4.52a6.37,6.37,0,0,0,2.69-.58Z"/><path d="M265.63,235l-.2-1.53h-.06a4.52,4.52,0,0,1-3.7,1.8,3.45,3.45,0,0,1-3.69-3.47c0-2.92,2.59-4.53,7.26-4.5V227a2.48,2.48,0,0,0-2.75-2.78,5.84,5.84,0,0,0-3.15.9l-.5-1.47a7.64,7.64,0,0,1,4-1.06c3.7,0,4.6,2.53,4.6,4.95v4.52a18.4,18.4,0,0,0,.18,2.9Zm-.35-6.17c-2.37-.06-5.1.37-5.1,2.71a1.93,1.93,0,0,0,2.05,2.1,3,3,0,0,0,2.95-2,2.14,2.14,0,0,0,.1-.69Z"/><path d="M281.39,222.86c-.05.87-.1,1.85-.1,3.32v7c0,2.77-.55,4.47-1.72,5.52a6.43,6.43,0,0,1-4.4,1.45,7.84,7.84,0,0,1-4-1l.56-1.67a6.78,6.78,0,0,0,3.54,1c2.25,0,3.9-1.18,3.9-4.23v-1.35h-.05a4.3,4.3,0,0,1-3.85,2c-3,0-5.14-2.55-5.14-5.9,0-4.1,2.67-6.43,5.44-6.43a4,4,0,0,1,3.78,2.1h.05l.1-1.82Zm-2.27,4.77a3.23,3.23,0,0,0-3.2-3.32c-2.1,0-3.6,1.77-3.6,4.57,0,2.38,1.2,4.35,3.57,4.35a3.21,3.21,0,0,0,3.05-2.25,3.66,3.66,0,0,0,.18-1.17Zm-5-9.72a1.83,1.83,0,0,0,1.8,1.73,1.77,1.77,0,0,0,1.8-1.73H279a3.1,3.1,0,1,1-6.2,0Z"/><path d="M285,235V222.87h2.19V235Z"/><path d="M290.8,226.13c0-1.26,0-2.26-.1-3.26h1.94l.12,2h.06a4.47,4.47,0,0,1,4-2.27c1.66,0,4.26,1,4.26,5.16V235h-2.19v-7c0-2-.73-3.59-2.79-3.59a3.16,3.16,0,0,0-3,2.25,3.48,3.48,0,0,0-.15,1V235H290.8Z"/><path d="M304.67,235V222.87h2.19V235Z"/><path d="M315.51,232.72a6,6,0,0,0,2.91.86c1.61,0,2.35-.79,2.35-1.8s-.64-1.61-2.24-2.21c-2.19-.79-3.22-2-3.21-3.43,0-1.95,1.58-3.55,4.18-3.55a5.84,5.84,0,0,1,3,.75l-.55,1.6a4.65,4.65,0,0,0-2.48-.72c-1.3,0-2,.75-2,1.66s.71,1.45,2.29,2.07c2.09.77,3.17,1.82,3.18,3.63,0,2.14-1.67,3.64-4.52,3.64a6.88,6.88,0,0,1-3.4-.84Z"/><path d="M327,229.31c.05,3,1.93,4.2,4.14,4.2a8.26,8.26,0,0,0,3.35-.62l.38,1.56a9.76,9.76,0,0,1-4,.77c-3.71,0-6-2.47-6-6.1s2.16-6.53,5.69-6.53c3.94,0,5,3.46,5,5.69a5.36,5.36,0,0,1-.07,1Zm6.44-1.58c0-1.39-.57-3.56-3-3.56-2.24,0-3.19,2-3.37,3.56Z"/><path d="M346.87,234.52a8.43,8.43,0,0,1-3.47.7c-3.65,0-6-2.48-6-6.18a6.15,6.15,0,0,1,6.49-6.44,7.22,7.22,0,0,1,3.06.64l-.49,1.69a5.31,5.31,0,0,0-2.57-.58c-2.76,0-4.27,2.07-4.27,4.58,0,2.8,1.8,4.52,4.21,4.52a6.33,6.33,0,0,0,2.69-.58Zm-3,.38-.82,1.31a1.85,1.85,0,0,1,1.75,1.73c0,1.47-1.21,2-2.61,2a3.43,3.43,0,0,1-1.7-.44l.38-1.06a2.7,2.7,0,0,0,1.35.36c.55,0,1.08-.2,1.07-.79s-.77-.95-1.95-1.05l1.18-2.08Z"/><path d="M350.53,229.31c0,3,1.93,4.2,4.14,4.2a8.2,8.2,0,0,0,3.34-.62l.39,1.56a9.76,9.76,0,0,1-4,.77c-3.72,0-5.95-2.47-5.95-6.1s2.16-6.53,5.68-6.53c3.95,0,5,3.46,5,5.69a5.2,5.2,0,0,1-.08,1Zm6.43-1.58c0-1.39-.57-3.56-3-3.56-2.24,0-3.2,2-3.38,3.56Z"/><path d="M361.72,235c.06-.83.1-2.05.1-3.12V217.21H364v7.6h.05a4.49,4.49,0,0,1,4.12-2.22c3,0,5.12,2.5,5.11,6.16,0,4.34-2.75,6.48-5.45,6.48a4.36,4.36,0,0,1-4.05-2.26h0l-.12,2Zm2.28-4.85a4.17,4.17,0,0,0,.09.8,3.39,3.39,0,0,0,3.3,2.57c2.31,0,3.67-1.87,3.67-4.65,0-2.43-1.25-4.51-3.6-4.51a3.51,3.51,0,0,0-3.33,2.71,3.44,3.44,0,0,0-.13.91Z"/><path d="M378.5,219.45a1.36,1.36,0,1,1-2.72,0,1.34,1.34,0,0,1,1.37-1.37A1.31,1.31,0,0,1,378.5,219.45ZM376.05,235V222.87h2.18V235Z"/><path d="M381.9,217.21h2.18V235H381.9Z"/><path d="M390.25,219.45a1.36,1.36,0,1,1-2.72,0,1.34,1.34,0,0,1,1.37-1.37A1.31,1.31,0,0,1,390.25,219.45ZM387.8,235V222.87H390V235Z"/><path d="M393.64,226.63c0-1.42,0-2.64-.1-3.76h1.93l.08,2.37h.08a3.68,3.68,0,0,1,3.37-2.65,2.32,2.32,0,0,1,.61.07v2.06a4.14,4.14,0,0,0-.75-.06,3.07,3.07,0,0,0-2.94,2.81,5.56,5.56,0,0,0-.09,1V235h-2.19Z"/><path d="M401.51,232.72a6,6,0,0,0,2.91.86c1.61,0,2.35-.79,2.35-1.8s-.64-1.61-2.24-2.21c-2.19-.79-3.22-2-3.22-3.43,0-1.95,1.59-3.55,4.19-3.55a5.84,5.84,0,0,1,3,.75l-.55,1.6a4.65,4.65,0,0,0-2.48-.72c-1.3,0-2,.75-2,1.66s.71,1.45,2.29,2.07c2.09.77,3.17,1.82,3.17,3.63,0,2.14-1.66,3.64-4.52,3.64a6.87,6.87,0,0,1-3.39-.84Z"/><path d="M414.18,219.45a1.33,1.33,0,0,1-1.4,1.37,1.31,1.31,0,0,1-1.33-1.37,1.34,1.34,0,0,1,1.37-1.37A1.32,1.32,0,0,1,414.18,219.45ZM411.72,235V222.87h2.19V235Z"/><path d="M417.57,226.13c0-1.26,0-2.26-.1-3.26h1.94l.13,2h.06a4.45,4.45,0,0,1,4-2.27c1.66,0,4.26,1,4.26,5.16V235h-2.18v-7c0-2-.74-3.59-2.8-3.59a3.16,3.16,0,0,0-3,2.25,3.48,3.48,0,0,0-.15,1V235h-2.19Z"/><path d="M430.92,233.67a1.48,1.48,0,0,1,1.49-1.59,1.58,1.58,0,1,1-1.49,1.59Z"/><rect class="cls-1" x="132" y="69" width="196" height="54" rx="10"/><text class="cls-2" transform="translate(150.31 103.76)">Filt<tspan class="cls-3" x="28.85" y="0">r</tspan><tspan x="36.21" y="0">eler (17/102)</tspan></text></svg>