<svg id="Layer_1" data-name="Layer 1" xmlns="http://www.w3.org/2000/svg" viewBox="0 0 460 310"><defs><style>.cls-1{fill:#007bff;}.cls-2{font-size:22px;fill:#f2f2f2;font-family:SegoeUIHistoric, Segoe UI Historic;}.cls-3{letter-spacing:0em;}</style></defs><title>tutorial-create-4</title><path d="M73.13,188.15a23.55,23.55,0,0,1,4.19-.34,6.87,6.87,0,0,1,4.72,1.4,4.58,4.58,0,0,1,1.49,3.53,5,5,0,0,1-1.31,3.6,7,7,0,0,1-5.15,1.85,7.23,7.23,0,0,1-1.76-.16v6.76H73.13Zm2.18,8.11a6.66,6.66,0,0,0,1.8.19c2.64,0,4.23-1.3,4.23-3.6s-1.59-3.32-4-3.32a10.72,10.72,0,0,0-2.06.17Z"/><path d="M86,196.46c0-1.42,0-2.64-.1-3.76h1.92l.09,2.37H88a3.66,3.66,0,0,1,3.36-2.65,2.32,2.32,0,0,1,.61.07v2.06a4,4,0,0,0-.75-.06,3.08,3.08,0,0,0-2.94,2.81,6.58,6.58,0,0,0-.09,1v6.46H86Z"/><path d="M104.84,198.63c0,4.47-3.11,6.43-6,6.43-3.28,0-5.82-2.39-5.82-6.23,0-4,2.66-6.41,6-6.41S104.84,195,104.84,198.63Zm-9.59.14c0,2.65,1.52,4.65,3.67,4.65s3.68-2,3.68-4.72c0-2-1-4.63-3.64-4.63S95.25,196.48,95.25,198.77Z"/><path d="M118.08,192.7c-.06.85-.11,1.84-.11,3.31v7c0,2.79-.57,4.47-1.72,5.53a6.51,6.51,0,0,1-4.41,1.45,7.81,7.81,0,0,1-4-1l.55-1.7a6.76,6.76,0,0,0,3.56,1c2.24,0,3.89-1.17,3.89-4.23v-1.35h0a4.28,4.28,0,0,1-3.84,2c-3,0-5.15-2.57-5.15-5.92,0-4.1,2.66-6.41,5.45-6.41a4,4,0,0,1,3.78,2.09h0l.1-1.81Zm-2.29,4.75a3.38,3.38,0,0,0-.12-1,3.19,3.19,0,0,0-3.09-2.34c-2.1,0-3.6,1.78-3.6,4.58,0,2.37,1.22,4.36,3.58,4.36a3.22,3.22,0,0,0,3.06-2.27,4.09,4.09,0,0,0,.17-1.17Z"/><path d="M121.47,196.46c0-1.42,0-2.64-.1-3.76h1.92l.09,2.37h.07a3.68,3.68,0,0,1,3.37-2.65,2.32,2.32,0,0,1,.61.07v2.06a4,4,0,0,0-.75-.06,3.07,3.07,0,0,0-2.94,2.81,5.56,5.56,0,0,0-.09,1v6.46h-2.18Z"/><path d="M136.22,204.79l-.19-1.53H136a4.48,4.48,0,0,1-3.69,1.8,3.45,3.45,0,0,1-3.7-3.47c0-2.92,2.6-4.53,7.27-4.5v-.26a2.49,2.49,0,0,0-2.76-2.78,5.8,5.8,0,0,0-3.14.9l-.5-1.47a7.64,7.64,0,0,1,4-1.06c3.69,0,4.59,2.53,4.59,5v4.52a18.33,18.33,0,0,0,.19,2.9Zm-.34-6.17c-2.38-.06-5.1.37-5.1,2.71a1.93,1.93,0,0,0,2.05,2.1,3,3,0,0,0,2.95-2,2.45,2.45,0,0,0,.1-.69Z"/><path d="M141.57,196c0-1.26,0-2.26-.1-3.26h1.91l.12,2h.06a4.17,4.17,0,0,1,3.81-2.23,3.56,3.56,0,0,1,3.41,2.43h.05a5,5,0,0,1,1.36-1.58,4.13,4.13,0,0,1,2.66-.85c1.62,0,4,1,4,5.25v7.12H156.7V198c0-2.34-.86-3.73-2.62-3.73a2.88,2.88,0,0,0-2.62,2,3.78,3.78,0,0,0-.18,1.1v7.49h-2.15v-7.26c0-1.92-.85-3.31-2.51-3.31a3.05,3.05,0,0,0-2.74,2.2,3.4,3.4,0,0,0-.16,1.08v7.29h-2.15Z"/><path d="M162.42,204.79V192.7h2.19v12.09Z"/><path d="M168.27,196c0-1.26,0-2.26-.1-3.26h1.94l.12,2h.06a4.47,4.47,0,0,1,4-2.27c1.66,0,4.26,1,4.26,5.16v7.21h-2.19v-7c0-2-.73-3.59-2.79-3.59a3.16,3.16,0,0,0-3,2.25,3.48,3.48,0,0,0-.15,1v7.29h-2.19Z"/><path d="M187.44,187h2.19v7.55h.05a4.35,4.35,0,0,1,1.58-1.55,4.43,4.43,0,0,1,2.25-.62c1.63,0,4.22,1,4.22,5.17v7.2h-2.19v-7c0-2-.74-3.59-2.79-3.59a3.21,3.21,0,0,0-3,2.19,3.1,3.1,0,0,0-.15,1v7.31h-2.19Z"/><path d="M208,204.79l-.19-1.53h-.07a4.5,4.5,0,0,1-3.7,1.8,3.45,3.45,0,0,1-3.69-3.47c0-2.92,2.6-4.53,7.27-4.5v-.26a2.49,2.49,0,0,0-2.76-2.78,5.8,5.8,0,0,0-3.14.9l-.5-1.47a7.64,7.64,0,0,1,4-1.06c3.69,0,4.59,2.53,4.59,5v4.52a19.69,19.69,0,0,0,.18,2.9Zm-.34-6.17c-2.38-.06-5.1.37-5.1,2.71a1.93,1.93,0,0,0,2,2.1,3,3,0,0,0,3-2,2.45,2.45,0,0,0,.1-.69Z"/><path d="M212,203.51l5.47-7.11c.54-.67,1-1.25,1.59-1.89v0h-6.57V192.7h9.23v1.37l-5.4,7c-.52.65-1,1.27-1.56,1.88V203h7.06v1.76H212Z"/><path d="M224.07,204.79V192.7h2.19v12.09Z"/><path d="M229.92,196.46c0-1.42,0-2.64-.11-3.76h1.93l.09,2.37h.07a3.68,3.68,0,0,1,3.37-2.65,2.32,2.32,0,0,1,.61.07v2.06a4,4,0,0,0-.75-.06,3.07,3.07,0,0,0-2.94,2.81,5.56,5.56,0,0,0-.09,1v6.46h-2.18Z"/><path d="M254.33,198.63c0,4.47-3.1,6.43-6,6.43-3.28,0-5.81-2.39-5.81-6.23,0-4,2.66-6.41,6-6.41S254.33,195,254.33,198.63Zm-9.58.14c0,2.65,1.52,4.65,3.66,4.65s3.69-2,3.69-4.72c0-2-1-4.63-3.65-4.63S244.75,196.48,244.75,198.77Z"/><path d="M257.12,187h2.19v17.75h-2.19Z"/><path d="M273.13,201.48c0,1.27,0,2.35.1,3.31h-2l-.11-2h-.06a4.53,4.53,0,0,1-4,2.25c-1.89,0-4.16-1.06-4.16-5.3V192.7h2.19v6.68c0,2.3.72,3.87,2.7,3.87a3.21,3.21,0,0,0,2.91-2,3.51,3.51,0,0,0,.2-1.13v-7.4h2.19Z"/><path d="M276.79,196c0-1.26,0-2.26-.1-3.26h1.95l.12,2h.06a4.45,4.45,0,0,1,4-2.27c1.66,0,4.26,1,4.26,5.16v7.21h-2.19v-7c0-2-.74-3.59-2.8-3.59a3.17,3.17,0,0,0-3,2.25,3.48,3.48,0,0,0-.15,1v7.29h-2.19Z"/><path d="M299.29,204.35a8.39,8.39,0,0,1-3.47.7c-3.65,0-6-2.48-6-6.18a6.15,6.15,0,0,1,6.49-6.44,7.22,7.22,0,0,1,3.06.64l-.49,1.69a5.31,5.31,0,0,0-2.57-.58c-2.76,0-4.27,2.07-4.27,4.58,0,2.8,1.8,4.52,4.21,4.52a6.42,6.42,0,0,0,2.7-.58Z"/><path d="M308.59,204.79l-.19-1.53h-.07a4.48,4.48,0,0,1-3.69,1.8,3.45,3.45,0,0,1-3.69-3.47c0-2.92,2.59-4.53,7.26-4.5v-.26a2.48,2.48,0,0,0-2.75-2.78,5.84,5.84,0,0,0-3.15.9l-.5-1.47a7.64,7.64,0,0,1,4-1.06c3.69,0,4.59,2.53,4.59,5v4.52a18.33,18.33,0,0,0,.19,2.9Zm-.34-6.17c-2.38-.06-5.1.37-5.1,2.71a1.93,1.93,0,0,0,2.05,2.1,3,3,0,0,0,2.95-2,2.45,2.45,0,0,0,.1-.69Z"/><path d="M321.42,198.24h.05c.3-.42.71-1,1.06-1.37l3.56-4.17h2.64l-4.67,5,5.33,7.12h-2.68L322.55,199l-1.13,1.26v4.55h-2.18V187h2.18Z"/><path d="M338.12,204.79l-.19-1.53h-.07a4.5,4.5,0,0,1-3.7,1.8,3.45,3.45,0,0,1-3.69-3.47c0-2.92,2.59-4.53,7.26-4.5v-.26a2.48,2.48,0,0,0-2.75-2.78,5.86,5.86,0,0,0-3.15.9l-.5-1.47a7.67,7.67,0,0,1,4-1.06c3.7,0,4.6,2.53,4.6,5v4.52a19.69,19.69,0,0,0,.18,2.9Zm-.34-6.17c-2.38-.06-5.11.37-5.11,2.71a1.94,1.94,0,0,0,2.06,2.1,3,3,0,0,0,2.94-2,2.16,2.16,0,0,0,.11-.69Z"/><path d="M344.06,192.7l2.64,7.14c.29.8.58,1.75.78,2.47h.06c.22-.71.48-1.64.77-2.51l2.39-7.1H353l-3.31,8.61c-1.57,4.16-2.64,6.27-4.14,7.58a6,6,0,0,1-2.7,1.41l-.54-1.84a5.61,5.61,0,0,0,1.92-1.07,6.86,6.86,0,0,0,1.84-2.45,1.32,1.32,0,0,0,.17-.53,1.36,1.36,0,0,0-.15-.56l-4.46-11.15Z"/><path d="M365.22,187v14.63c0,1.07,0,2.28.1,3.12h-1.95l-.11-2.09h-.06a4.43,4.43,0,0,1-4.1,2.36c-2.93,0-5.19-2.47-5.19-6.14,0-4,2.49-6.5,5.43-6.5a4,4,0,0,1,3.65,1.84H363V187ZM363,197.62a5,5,0,0,0-.09-.94,3.25,3.25,0,0,0-3.19-2.53c-2.27,0-3.63,2-3.63,4.65,0,2.46,1.22,4.49,3.59,4.49a3.31,3.31,0,0,0,3.21-2.63,3.54,3.54,0,0,0,.11-.95Z"/><path d="M370.12,199.14c.05,3,1.93,4.2,4.14,4.2a8.3,8.3,0,0,0,3.35-.62l.38,1.56a9.76,9.76,0,0,1-4,.77c-3.72,0-5.95-2.47-5.95-6.1s2.16-6.53,5.69-6.53c3.94,0,5,3.46,5,5.69a5.36,5.36,0,0,1-.07,1Zm6.44-1.58c0-1.39-.57-3.56-3-3.56-2.24,0-3.2,2-3.37,3.56Z"/><path d="M384.05,189.22v3.48h3.16v1.67h-3.16v6.51c0,1.5.44,2.36,1.67,2.36a4.31,4.31,0,0,0,1.27-.16l.1,1.67a5.58,5.58,0,0,1-2,.3,3.09,3.09,0,0,1-2.38-.93,4.65,4.65,0,0,1-.85-3.15v-6.6H380V192.7h1.87v-2.91Z"/><path d="M87.13,234.79c.06-.83.1-2,.1-3.12V217h2.18v7.6h0a4.49,4.49,0,0,1,4.12-2.22c3,0,5.12,2.5,5.11,6.16,0,4.34-2.75,6.48-5.44,6.48a4.37,4.37,0,0,1-4.06-2.26h0l-.12,2Zm2.28-4.85a4.17,4.17,0,0,0,.09.8,3.39,3.39,0,0,0,3.3,2.57c2.31,0,3.67-1.87,3.67-4.64,0-2.44-1.25-4.52-3.6-4.52a3.69,3.69,0,0,0-3.46,3.62Z"/><path d="M111.56,231.48c0,1.27,0,2.35.11,3.31h-2l-.11-2h-.07a4.5,4.5,0,0,1-4,2.25c-1.89,0-4.16-1.06-4.16-5.3V222.7h2.19v6.68c0,2.3.72,3.87,2.7,3.87a3.21,3.21,0,0,0,2.91-2,3.51,3.51,0,0,0,.2-1.13v-7.4h2.18Z"/><path d="M117.87,219.22v3.48H121v1.67h-3.16v6.51c0,1.5.43,2.36,1.66,2.36a4.39,4.39,0,0,0,1.28-.16l.1,1.67a5.6,5.6,0,0,1-2,.3,3.05,3.05,0,0,1-2.37-.93,4.6,4.6,0,0,1-.85-3.15v-6.6h-1.88V222.7h1.88v-2.91Z"/><path d="M134.3,228.63c0,4.47-3.11,6.43-6,6.43-3.28,0-5.81-2.39-5.81-6.23,0-4,2.65-6.41,6-6.41S134.3,225,134.3,228.63Zm-9.59.14c0,2.65,1.52,4.65,3.67,4.65s3.68-2,3.68-4.72c0-2-1-4.63-3.64-4.63S124.71,226.48,124.71,228.77Z"/><path d="M137.08,226c0-1.26,0-2.26-.1-3.26h1.94l.13,2h.06a4.45,4.45,0,0,1,4-2.27c1.66,0,4.26,1,4.26,5.16v7.21h-2.18v-7c0-2-.74-3.59-2.8-3.59a3.16,3.16,0,0,0-3,2.25,3.48,3.48,0,0,0-.15,1v7.29h-2.19Z"/><path d="M161.06,231.48c0,1.27.05,2.35.11,3.31h-1.95l-.11-2H159a4.5,4.5,0,0,1-4,2.25c-1.89,0-4.16-1.06-4.16-5.3V222.7h2.19v6.68c0,2.3.72,3.87,2.7,3.87a3.21,3.21,0,0,0,2.91-2,3.51,3.51,0,0,0,.2-1.13v-7.4h2.18Z"/><path d="M164.73,226c0-1.26,0-2.26-.1-3.26h1.94l.13,2h.06a4.45,4.45,0,0,1,4-2.27c1.66,0,4.26,1,4.26,5.16v7.21h-2.18v-7c0-2-.74-3.59-2.8-3.59a3.16,3.16,0,0,0-3,2.25,3.48,3.48,0,0,0-.15,1v7.29h-2.19Z"/><path d="M185.31,234.79l-.19-1.53h-.07a4.5,4.5,0,0,1-3.7,1.8,3.45,3.45,0,0,1-3.69-3.47c0-2.92,2.59-4.53,7.26-4.5v-.26a2.48,2.48,0,0,0-2.75-2.78,5.86,5.86,0,0,0-3.15.9l-.5-1.47a7.67,7.67,0,0,1,4-1.06c3.7,0,4.6,2.53,4.6,5v4.52a19.69,19.69,0,0,0,.18,2.9Zm-.34-6.17c-2.38-.06-5.11.37-5.11,2.71a1.94,1.94,0,0,0,2.06,2.1,3,3,0,0,0,2.94-2,2.16,2.16,0,0,0,.11-.69Z"/><path d="M195.85,234.79c.06-.83.1-2,.1-3.12V217h2.19v7.6h.05a4.47,4.47,0,0,1,4.12-2.22c3,0,5.11,2.5,5.1,6.16,0,4.34-2.74,6.48-5.44,6.48a4.34,4.34,0,0,1-4.05-2.26h-.06l-.11,2Zm2.29-4.85a3.5,3.5,0,0,0,.09.8,3.38,3.38,0,0,0,3.3,2.57c2.31,0,3.67-1.87,3.67-4.64,0-2.44-1.26-4.52-3.61-4.52a3.51,3.51,0,0,0-3.33,2.71,4,4,0,0,0-.12.91Z"/><path d="M216.88,234.79l-.19-1.53h-.07a4.48,4.48,0,0,1-3.69,1.8,3.45,3.45,0,0,1-3.7-3.47c0-2.92,2.6-4.53,7.27-4.5v-.26a2.48,2.48,0,0,0-2.75-2.78,5.81,5.81,0,0,0-3.15.9l-.5-1.47a7.64,7.64,0,0,1,4-1.06c3.69,0,4.59,2.53,4.59,5v4.52a18.33,18.33,0,0,0,.19,2.9Zm-.34-6.17c-2.38-.06-5.1.37-5.1,2.71a1.93,1.93,0,0,0,2.05,2.1,3,3,0,0,0,2.95-2,2.45,2.45,0,0,0,.1-.69Z"/><path d="M221.92,232.55a6,6,0,0,0,2.91.86c1.61,0,2.35-.79,2.35-1.8s-.64-1.61-2.24-2.21c-2.19-.79-3.22-2-3.22-3.43,0-1.95,1.59-3.55,4.19-3.55a5.9,5.9,0,0,1,3,.75l-.55,1.6a4.68,4.68,0,0,0-2.48-.72c-1.3,0-2,.75-2,1.66s.71,1.45,2.29,2.07c2.09.77,3.17,1.82,3.17,3.63,0,2.14-1.66,3.64-4.52,3.64a6.87,6.87,0,0,1-3.39-.84Z"/><path d="M232.13,226c0-1.26,0-2.26-.1-3.26h1.91l.12,2h.06a4.17,4.17,0,0,1,3.81-2.23,3.56,3.56,0,0,1,3.41,2.43h0a5,5,0,0,1,1.36-1.58,4.13,4.13,0,0,1,2.66-.85c1.62,0,4,1,4,5.25v7.12h-2.14V228c0-2.34-.86-3.73-2.62-3.73a2.88,2.88,0,0,0-2.62,2,3.78,3.78,0,0,0-.18,1.1v7.49h-2.15v-7.26c0-1.92-.85-3.31-2.51-3.31a3.05,3.05,0,0,0-2.74,2.2,3.4,3.4,0,0,0-.16,1.08v7.29h-2.15Z"/><path d="M259.68,234.79l-.19-1.53h-.07a4.48,4.48,0,0,1-3.69,1.8,3.45,3.45,0,0,1-3.7-3.47c0-2.92,2.6-4.53,7.27-4.5v-.26a2.49,2.49,0,0,0-2.76-2.78,5.8,5.8,0,0,0-3.14.9l-.5-1.47a7.64,7.64,0,0,1,4-1.06c3.69,0,4.59,2.53,4.59,5v4.52a18.33,18.33,0,0,0,.19,2.9Zm-.34-6.17c-2.38-.06-5.1.37-5.1,2.71a1.93,1.93,0,0,0,2.05,2.1,3,3,0,0,0,2.95-2,2.45,2.45,0,0,0,.1-.69Z"/><path d="M265.63,222.7l2.64,7.14c.28.8.58,1.75.77,2.47h.06c.22-.71.49-1.64.78-2.51l2.39-7.1h2.33l-3.31,8.61c-1.56,4.16-2.64,6.27-4.14,7.58a6,6,0,0,1-2.69,1.41l-.55-1.84a5.64,5.64,0,0,0,1.93-1.07,6.85,6.85,0,0,0,1.83-2.45,1.17,1.17,0,0,0,.17-.53,1.36,1.36,0,0,0-.15-.56l-4.46-11.15Z"/><path d="M276.61,234.79V222.7h2.18v12.09Z"/><path d="M297.86,231.48c0,1.27,0,2.35.1,3.31H296l-.12-2h-.06a4.5,4.5,0,0,1-4,2.25c-1.89,0-4.16-1.06-4.16-5.3V222.7h2.19v6.68c0,2.3.71,3.87,2.7,3.87a3.21,3.21,0,0,0,2.91-2,3.51,3.51,0,0,0,.2-1.13v-7.4h2.18Z"/><path d="M301.53,226c0-1.26,0-2.26-.1-3.26h1.94l.12,2h.06a4.47,4.47,0,0,1,4-2.27c1.66,0,4.26,1,4.26,5.16v7.21h-2.19v-7c0-2-.73-3.59-2.79-3.59a3.16,3.16,0,0,0-3,2.25,3.48,3.48,0,0,0-.15,1v7.29h-2.19Z"/><path d="M325.51,231.48c0,1.27,0,2.35.1,3.31h-1.94l-.12-2h-.06a4.52,4.52,0,0,1-4,2.25c-1.89,0-4.16-1.06-4.16-5.3V222.7h2.18v6.68c0,2.3.72,3.87,2.71,3.87a3.21,3.21,0,0,0,2.91-2,3.51,3.51,0,0,0,.2-1.13v-7.4h2.18Z"/><path d="M331.82,219.22v3.48H335v1.67h-3.16v6.51c0,1.5.43,2.36,1.66,2.36a4.31,4.31,0,0,0,1.27-.16l.11,1.67a5.6,5.6,0,0,1-2,.3,3.05,3.05,0,0,1-2.37-.93,4.6,4.6,0,0,1-.85-3.15v-6.6h-1.88V222.7h1.88v-2.91Z"/><path d="M337.45,226c0-1.26,0-2.26-.1-3.26h1.91l.12,2h.06a4.18,4.18,0,0,1,3.82-2.23,3.56,3.56,0,0,1,3.41,2.43h0a5,5,0,0,1,1.37-1.58,4.12,4.12,0,0,1,2.66-.85c1.61,0,4,1,4,5.25v7.12h-2.15V228c0-2.34-.86-3.73-2.62-3.73a2.88,2.88,0,0,0-2.62,2,3.78,3.78,0,0,0-.18,1.1v7.49H345v-7.26c0-1.92-.85-3.31-2.51-3.31a3,3,0,0,0-2.74,2.2,3.4,3.4,0,0,0-.17,1.08v7.29h-2.15Z"/><path d="M365,234.79l-.2-1.53h-.06a4.52,4.52,0,0,1-3.7,1.8,3.45,3.45,0,0,1-3.69-3.47c0-2.92,2.59-4.53,7.26-4.5v-.26a2.48,2.48,0,0,0-2.75-2.78,5.84,5.84,0,0,0-3.15.9l-.5-1.47a7.64,7.64,0,0,1,4-1.06c3.7,0,4.6,2.53,4.6,5v4.52a18.4,18.4,0,0,0,.18,2.9Zm-.35-6.17c-2.37-.06-5.1.37-5.1,2.71a1.93,1.93,0,0,0,2.05,2.1,3,3,0,0,0,2.95-2,2.14,2.14,0,0,0,.1-.69Z"/><path d="M369.83,233.5a1.48,1.48,0,0,1,1.49-1.59,1.58,1.58,0,1,1-1.49,1.59Z"/><rect class="cls-1" x="147" y="69" width="172" height="54" rx="10"/><text class="cls-2" transform="translate(199.8 103.76)">Ka<tspan class="cls-3" x="23.96" y="0">y</tspan><tspan x="34.49" y="0">det</tspan></text></svg>